SolveigBold.ufo
<glyph name="exclam" format="1">
  <advance width="225"/>
  <unicode hex="0021"/>
  <outline>
    <contour>
      <point x="135" y="160" type="curve"/>
      <point x="92" y="159" type="line"/>
      <point x="85" y="296"/>
      <point x="64" y="522"/>
      <point x="53" y="578" type="curve"/>
      <point x="88" y="579"/>
      <point x="136" y="581"/>
      <point x="181" y="588" type="curve"/>
      <point x="165" y="502"/>
      <point x="141" y="254"/>
    </contour>
    <contour>
      <point x="120" y="90" type="curve" smooth="yes"/>
      <point x="166" y="90"/>
      <point x="175" y="60"/>
      <point x="175" y="45" type="curve" smooth="yes"/>
      <point x="175" y="25"/>
      <point x="155" y="-10"/>
      <point x="99" y="-10" type="curve" smooth="yes"/>
      <point x="69" y="-10"/>
      <point x="45" y="5"/>
      <point x="45" y="35" type="curve" smooth="yes"/>
      <point x="45" y="59"/>
      <point x="73" y="90"/>
    </contour>
  </outline>
</glyph>
<glyph name="quotedbl" format="1">
  <advance width="340"/>
  <unicode hex="0022"/>
  <outline>
    <contour>
      <point x="116" y="332" type="curve"/>
      <point x="77" y="331" type="line"/>
      <point x="67" y="429"/>
      <point x="46" y="551"/>
      <point x="37" y="578" type="curve"/>
      <point x="64" y="578"/>
      <point x="132" y="583"/>
      <point x="164" y="588" type="curve"/>
      <point x="146" y="535"/>
      <point x="127" y="429"/>
    </contour>
    <contour>
      <point x="282" y="332" type="curve"/>
      <point x="243" y="331" type="line"/>
      <point x="233" y="429"/>
      <point x="212" y="551"/>
      <point x="204" y="578" type="curve"/>
      <point x="231" y="578"/>
      <point x="298" y="583"/>
      <point x="330" y="588" type="curve"/>
      <point x="313" y="535"/>
      <point x="294" y="429"/>
    </contour>
  </outline>
</glyph>
<glyph name="numbersign" format="1">
  <advance width="416"/>
  <unicode hex="0023"/>
  <outline>
    <contour>
      <point x="291" y="582" type="curve"/>
      <point x="290" y="524"/>
      <point x="289" y="484"/>
      <point x="289" y="436" type="curve"/>
      <point x="314" y="436"/>
      <point x="341" y="437"/>
      <point x="360" y="437" type="curve"/>
      <point x="361" y="426"/>
      <point x="359" y="396"/>
      <point x="354" y="386" type="curve"/>
      <point x="333" y="386"/>
      <point x="311" y="387"/>
      <point x="289" y="388" type="curve"/>
      <point x="288" y="325"/>
      <point x="288" y="283"/>
      <point x="288" y="220" type="curve"/>
      <point x="313" y="220"/>
      <point x="341" y="221"/>
      <point x="360" y="221" type="curve"/>
      <point x="361" y="210"/>
      <point x="359" y="181"/>
      <point x="354" y="171" type="curve"/>
      <point x="332" y="171"/>
      <point x="310" y="173"/>
      <point x="288" y="173" type="curve"/>
      <point x="288" y="119"/>
      <point x="288" y="67"/>
      <point x="290" y="2" type="curve"/>
      <point x="279" y="-2"/>
      <point x="250" y="-6"/>
      <point x="238" y="-3" type="curve"/>
      <point x="239" y="62"/>
      <point x="241" y="119"/>
      <point x="241" y="173" type="curve"/>
      <point x="203" y="174"/>
      <point x="184" y="174"/>
      <point x="141" y="174" type="curve"/>
      <point x="141" y="120"/>
      <point x="142" y="67"/>
      <point x="144" y="2" type="curve"/>
      <point x="133" y="-2"/>
      <point x="105" y="-6"/>
      <point x="94" y="-3" type="curve"/>
      <point x="96" y="174" type="line"/>
      <point x="29" y="174" type="line"/>
      <point x="26" y="185"/>
      <point x="29" y="214"/>
      <point x="32" y="223" type="curve"/>
      <point x="52" y="222"/>
      <point x="74" y="221"/>
      <point x="96" y="221" type="curve"/>
      <point x="96" y="285"/>
      <point x="97" y="325"/>
      <point x="97" y="389" type="curve"/>
      <point x="29" y="389" type="line"/>
      <point x="26" y="399"/>
      <point x="30" y="431"/>
      <point x="32" y="438" type="curve"/>
      <point x="52" y="437"/>
      <point x="74" y="437"/>
      <point x="97" y="437" type="curve"/>
      <point x="97" y="581" type="line"/>
      <point x="105" y="584"/>
      <point x="138" y="584"/>
      <point x="144" y="582" type="curve"/>
      <point x="143" y="524"/>
      <point x="142" y="485"/>
      <point x="142" y="437" type="curve"/>
      <point x="185" y="436"/>
      <point x="203" y="436"/>
      <point x="242" y="436" type="curve"/>
      <point x="242" y="581" type="line"/>
      <point x="251" y="584"/>
      <point x="285" y="584"/>
    </contour>
    <contour>
      <point x="141" y="221" type="curve"/>
      <point x="184" y="220"/>
      <point x="201" y="220"/>
      <point x="241" y="220" type="curve"/>
      <point x="241" y="284"/>
      <point x="242" y="324"/>
      <point x="242" y="388" type="curve"/>
      <point x="205" y="389"/>
      <point x="185" y="389"/>
      <point x="142" y="389" type="curve"/>
      <point x="141" y="325"/>
      <point x="141" y="283"/>
    </contour>
  </outline>
</glyph>
<glyph name="dollar" format="1">
  <advance width="338"/>
  <unicode hex="0024"/>
  <outline>
    <contour>
      <point x="142" y="-16" type="curve"/>
      <point x="141" y="20"/>
      <point x="139" y="60"/>
      <point x="139" y="71" type="curve"/>
      <point x="106" y="72"/>
      <point x="62" y="74"/>
      <point x="38" y="82" type="curve"/>
      <point x="37" y="92"/>
      <point x="41" y="118"/>
      <point x="45" y="125" type="curve"/>
      <point x="142" y="111"/>
      <point x="206" y="112"/>
      <point x="206" y="172" type="curve" smooth="yes"/>
      <point x="206" y="216"/>
      <point x="159" y="246"/>
      <point x="117" y="275" type="curve" smooth="yes"/>
      <point x="51" y="320"/>
      <point x="42" y="353"/>
      <point x="42" y="390" type="curve" smooth="yes"/>
      <point x="42" y="448"/>
      <point x="85" y="487"/>
      <point x="150" y="510" type="curve"/>
      <point x="151" y="536"/>
      <point x="152" y="574"/>
      <point x="152" y="593" type="curve"/>
      <point x="162" y="597"/>
      <point x="189" y="595"/>
      <point x="195" y="594" type="curve"/>
      <point x="194" y="574"/>
      <point x="197" y="531"/>
      <point x="198" y="517" type="curve"/>
      <point x="213" y="520"/>
      <point x="242" y="521"/>
      <point x="269" y="521" type="curve"/>
      <point x="272" y="510"/>
      <point x="271" y="491"/>
      <point x="269" y="479" type="curve"/>
      <point x="191" y="478"/>
      <point x="134" y="461"/>
      <point x="134" y="414" type="curve" smooth="yes"/>
      <point x="134" y="387"/>
      <point x="167" y="367"/>
      <point x="211" y="340" type="curve" smooth="yes"/>
      <point x="283" y="295"/>
      <point x="301" y="256"/>
      <point x="301" y="204" type="curve" smooth="yes"/>
      <point x="301" y="159"/>
      <point x="277" y="98"/>
      <point x="191" y="76" type="curve"/>
      <point x="187" y="64"/>
      <point x="186" y="3"/>
      <point x="186" y="-16" type="curve"/>
      <point x="179" y="-18"/>
      <point x="150" y="-18"/>
    </contour>
  </outline>
</glyph>
<glyph name="ampersand" format="1">
  <advance width="638"/>
  <unicode hex="0026"/>
  <outline>
    <contour>
      <point x="607" y="328" type="curve"/>
      <point x="609" y="324" type="line"/>
      <point x="576" y="282"/>
      <point x="519" y="213"/>
      <point x="463" y="160" type="curve"/>
      <point x="506" y="109"/>
      <point x="583" y="30"/>
      <point x="631" y="-1" type="curve"/>
      <point x="584" y="4"/>
      <point x="476" y="0"/>
      <point x="457" y="-4" type="curve"/>
      <point x="379" y="92" type="line"/>
      <point x="298" y="26"/>
      <point x="239" y="-12"/>
      <point x="169" y="-12" type="curve" smooth="yes"/>
      <point x="77" y="-12"/>
      <point x="32" y="60"/>
      <point x="32" y="126" type="curve" smooth="yes"/>
      <point x="32" y="217"/>
      <point x="82" y="280"/>
      <point x="170" y="345" type="curve"/>
      <point x="145" y="380"/>
      <point x="124" y="414"/>
      <point x="124" y="460" type="curve"/>
      <point x="126" y="526"/>
      <point x="218" y="592"/>
      <point x="308" y="592" type="curve" smooth="yes"/>
      <point x="324" y="592"/>
      <point x="365" y="582"/>
      <point x="390" y="570" type="curve"/>
      <point x="389" y="558"/>
      <point x="380" y="537"/>
      <point x="375" y="532" type="curve"/>
      <point x="353" y="541"/>
      <point x="310" y="546"/>
      <point x="294" y="541" type="curve" smooth="yes"/>
      <point x="254" y="531"/>
      <point x="235" y="504"/>
      <point x="235" y="476" type="curve" smooth="yes"/>
      <point x="235" y="448"/>
      <point x="251" y="425"/>
      <point x="272" y="395" type="curve"/>
      <point x="279" y="383"/>
      <point x="370" y="261"/>
      <point x="434" y="195" type="curve"/>
      <point x="454" y="212"/>
      <point x="489" y="263"/>
      <point x="499" y="302" type="curve"/>
      <point x="530" y="306"/>
      <point x="567" y="313"/>
    </contour>
    <contour>
      <point x="197" y="310" type="curve"/>
      <point x="167" y="288"/>
      <point x="139" y="254"/>
      <point x="131" y="194" type="curve"/>
      <point x="120" y="125"/>
      <point x="163" y="74"/>
      <point x="224" y="74" type="curve" smooth="yes"/>
      <point x="266" y="74"/>
      <point x="297" y="84"/>
      <point x="350" y="126" type="curve"/>
      <point x="292" y="192"/>
      <point x="253" y="237"/>
    </contour>
  </outline>
</glyph>
<glyph name="parenleft" format="1">
  <advance width="244"/>
  <unicode hex="0028"/>
  <outline>
    <contour>
      <point x="177" y="-92" type="curve"/>
      <point x="111" y="3"/>
      <point x="42" y="132"/>
      <point x="43" y="271" type="curve" smooth="yes"/>
      <point x="44" y="400"/>
      <point x="113" y="511"/>
      <point x="181" y="605" type="curve"/>
      <point x="189" y="604"/>
      <point x="205" y="597"/>
      <point x="214" y="592" type="curve"/>
      <point x="181" y="521"/>
      <point x="148" y="410"/>
      <point x="148" y="273" type="curve" smooth="yes"/>
      <point x="148" y="163"/>
      <point x="161" y="51"/>
      <point x="211" y="-80" type="curve"/>
      <point x="201" y="-86"/>
      <point x="187" y="-91"/>
    </contour>
  </outline>
</glyph>
<glyph name="parenright" format="1">
  <advance width="244"/>
  <unicode hex="0029"/>
  <outline>
    <contour>
      <point x="33" y="588" type="curve"/>
      <point x="43" y="595"/>
      <point x="56" y="601"/>
      <point x="67" y="603" type="curve"/>
      <point x="137" y="516"/>
      <point x="201" y="428"/>
      <point x="201" y="278" type="curve" smooth="yes"/>
      <point x="201" y="150"/>
      <point x="151" y="27"/>
      <point x="63" y="-93" type="curve"/>
      <point x="50" y="-92"/>
      <point x="37" y="-82"/>
      <point x="29" y="-77" type="curve"/>
      <point x="79" y="30"/>
      <point x="96" y="141"/>
      <point x="96" y="278" type="curve" smooth="yes"/>
      <point x="96" y="388"/>
      <point x="83" y="481"/>
    </contour>
  </outline>
</glyph>
<glyph name="asterisk" format="1">
  <advance width="416"/>
  <unicode hex="002A"/>
  <outline>
    <contour>
      <point x="185" y="485" type="curve"/>
      <point x="186" y="486" type="line"/>
      <point x="187" y="516"/>
      <point x="190" y="584"/>
      <point x="190" y="600" type="curve"/>
      <point x="200" y="604"/>
      <point x="221" y="602"/>
      <point x="228" y="601" type="curve"/>
      <point x="227" y="584"/>
      <point x="230" y="509"/>
      <point x="232" y="486" type="curve"/>
      <point x="261" y="493"/>
      <point x="319" y="509"/>
      <point x="335" y="514" type="curve"/>
      <point x="341" y="506"/>
      <point x="345" y="485"/>
      <point x="347" y="478" type="curve"/>
      <point x="330" y="474"/>
      <point x="268" y="452"/>
      <point x="245" y="442" type="curve"/>
      <point x="261" y="417"/>
      <point x="308" y="358"/>
      <point x="318" y="345" type="curve"/>
      <point x="313" y="336"/>
      <point x="293" y="325"/>
      <point x="287" y="322" type="curve"/>
      <point x="278" y="335"/>
      <point x="226" y="396"/>
      <point x="208" y="414" type="curve"/>
      <point x="185" y="391"/>
      <point x="137" y="337"/>
      <point x="127" y="323" type="curve"/>
      <point x="117" y="326"/>
      <point x="100" y="341"/>
      <point x="95" y="345" type="curve"/>
      <point x="105" y="358"/>
      <point x="157" y="421"/>
      <point x="170" y="442" type="curve"/>
      <point x="142" y="453"/>
      <point x="86" y="474"/>
      <point x="69" y="478" type="curve"/>
      <point x="69" y="489"/>
      <point x="78" y="508"/>
      <point x="81" y="514" type="curve"/>
      <point x="97" y="509"/>
      <point x="162" y="491"/>
    </contour>
  </outline>
</glyph>
<glyph name="plus" format="1">
  <advance width="416"/>
  <unicode hex="002B"/>
  <outline>
    <contour>
      <point x="237" y="365" type="curve"/>
      <point x="235" y="315"/>
      <point x="235" y="273"/>
      <point x="235" y="223" type="curve"/>
      <point x="287" y="222"/>
      <point x="333" y="223"/>
      <point x="368" y="224" type="curve"/>
      <point x="369" y="213"/>
      <point x="367" y="187"/>
      <point x="362" y="177" type="curve"/>
      <point x="317" y="179"/>
      <point x="281" y="180"/>
      <point x="235" y="180" type="curve"/>
      <point x="235" y="129"/>
      <point x="235" y="85"/>
      <point x="236" y="35" type="curve"/>
      <point x="225" y="33"/>
      <point x="199" y="32"/>
      <point x="188" y="32" type="curve"/>
      <point x="189" y="83"/>
      <point x="190" y="128"/>
      <point x="190" y="180" type="curve"/>
      <point x="144" y="181"/>
      <point x="104" y="180"/>
      <point x="49" y="179" type="curve"/>
      <point x="46" y="188"/>
      <point x="50" y="220"/>
      <point x="52" y="226" type="curve"/>
      <point x="97" y="224"/>
      <point x="140" y="223"/>
      <point x="190" y="223" type="curve"/>
      <point x="191" y="273"/>
      <point x="190" y="315"/>
      <point x="189" y="364" type="curve"/>
      <point x="198" y="365"/>
      <point x="231" y="365"/>
    </contour>
  </outline>
</glyph>
<glyph name="comma" format="1">
  <advance width="181"/>
  <unicode hex="002C"/>
  <outline>
    <contour>
      <point x="99" y="96" type="curve" smooth="yes"/>
      <point x="122" y="96"/>
      <point x="154" y="79"/>
      <point x="154" y="30" type="curve" smooth="yes"/>
      <point x="154" y="-16"/>
      <point x="104" y="-122"/>
      <point x="64" y="-189" type="curve"/>
      <point x="52" y="-188"/>
      <point x="39" y="-183"/>
      <point x="30" y="-176" type="curve"/>
      <point x="53" y="-117"/>
      <point x="64" y="-76"/>
      <point x="63" y="-50" type="curve" smooth="yes"/>
      <point x="62" y="-18"/>
      <point x="36" y="11"/>
      <point x="36" y="40" type="curve" smooth="yes"/>
      <point x="36" y="68"/>
      <point x="58" y="96"/>
    </contour>
  </outline>
</glyph>
<glyph name="hyphen" format="1">
  <advance width="266"/>
  <unicode hex="002D"/>
  <outline>
    <contour>
      <point x="47" y="277" type="curve"/>
      <point x="81" y="279"/>
      <point x="195" y="290"/>
      <point x="216" y="297" type="curve"/>
      <point x="219" y="285"/>
      <point x="221" y="256"/>
      <point x="216" y="237" type="curve"/>
      <point x="192" y="236"/>
      <point x="77" y="223"/>
      <point x="49" y="217" type="curve"/>
      <point x="45" y="227"/>
      <point x="45" y="266"/>
    </contour>
  </outline>
</glyph>
<glyph name="period" format="1">
  <advance width="216"/>
  <unicode hex="002E"/>
  <outline>
    <contour>
      <point x="120" y="90" type="curve" smooth="yes"/>
      <point x="166" y="90"/>
      <point x="175" y="60"/>
      <point x="175" y="45" type="curve" smooth="yes"/>
      <point x="175" y="25"/>
      <point x="155" y="-10"/>
      <point x="99" y="-10" type="curve" smooth="yes"/>
      <point x="69" y="-10"/>
      <point x="45" y="5"/>
      <point x="45" y="35" type="curve" smooth="yes"/>
      <point x="45" y="59"/>
      <point x="73" y="90"/>
    </contour>
  </outline>
</glyph>
<glyph name="slash" format="1">
  <advance width="299"/>
  <unicode hex="002F"/>
  <outline>
    <contour>
      <point x="280" y="599" type="curve"/>
      <point x="67" y="-48" type="line"/>
      <point x="56" y="-48"/>
      <point x="31" y="-47"/>
      <point x="20" y="-42" type="curve"/>
      <point x="234" y="605" type="line"/>
      <point x="243" y="606"/>
      <point x="275" y="603"/>
    </contour>
  </outline>
</glyph>
<glyph name="zero" format="1">
  <advance width="452"/>
  <unicode hex="0030"/>
  <outline>
    <contour>
      <point x="207" y="-15" type="curve" smooth="yes"/>
      <point x="90" y="-15"/>
      <point x="37" y="126"/>
      <point x="37" y="295" type="curve" smooth="yes"/>
      <point x="37" y="364"/>
      <point x="56" y="445"/>
      <point x="88" y="498" type="curve" smooth="yes"/>
      <point x="115" y="541"/>
      <point x="191" y="595"/>
      <point x="240" y="595" type="curve" smooth="yes"/>
      <point x="379" y="595"/>
      <point x="416" y="470"/>
      <point x="414" y="314" type="curve"/>
      <point x="414" y="210"/>
      <point x="380" y="97"/>
      <point x="333" y="47" type="curve" smooth="yes"/>
      <point x="308" y="20"/>
      <point x="256" y="-15"/>
    </contour>
    <contour>
      <point x="221" y="534" type="curve" smooth="yes"/>
      <point x="169" y="534"/>
      <point x="150" y="422"/>
      <point x="150" y="322" type="curve"/>
      <point x="146" y="113"/>
      <point x="203" y="48"/>
      <point x="233" y="48" type="curve" smooth="yes"/>
      <point x="280" y="48"/>
      <point x="300" y="121"/>
      <point x="300" y="289" type="curve" smooth="yes"/>
      <point x="300" y="511"/>
      <point x="251" y="534"/>
    </contour>
  </outline>
</glyph>
<glyph name="one" format="1">
  <advance width="344"/>
  <unicode hex="0031"/>
  <outline>
    <contour>
      <point x="245" y="588" type="curve"/>
      <point x="253" y="585"/>
      <point x="259" y="583"/>
      <point x="265" y="578" type="curve"/>
      <point x="249" y="503"/>
      <point x="255" y="102"/>
      <point x="263" y="-3" type="curve"/>
      <point x="236" y="2"/>
      <point x="166" y="2"/>
      <point x="134" y="-2" type="curve"/>
      <point x="150" y="91"/>
      <point x="156" y="421"/>
      <point x="148" y="503" type="curve"/>
      <point x="103" y="501"/>
      <point x="73" y="496"/>
      <point x="33" y="487" type="curve"/>
      <point x="30" y="495"/>
      <point x="26" y="516"/>
      <point x="26" y="524" type="curve"/>
      <point x="101" y="542"/>
      <point x="188" y="565"/>
    </contour>
  </outline>
</glyph>
<glyph name="two" format="1">
  <advance width="422"/>
  <unicode hex="0032"/>
  <outline>
    <contour>
      <point x="60" y="528" type="curve"/>
      <point x="116" y="559"/>
      <point x="178" y="591"/>
      <point x="254" y="591" type="curve" smooth="yes"/>
      <point x="334" y="591"/>
      <point x="363" y="527"/>
      <point x="363" y="468" type="curve" smooth="yes"/>
      <point x="363" y="393"/>
      <point x="300" y="300"/>
      <point x="262" y="245" type="curve"/>
      <point x="233" y="206"/>
      <point x="224" y="190"/>
      <point x="149" y="103" type="curve"/>
      <point x="202" y="99"/>
      <point x="352" y="104"/>
      <point x="393" y="115" type="curve"/>
      <point x="376" y="72"/>
      <point x="370" y="27"/>
      <point x="367" y="-6" type="curve"/>
      <point x="270" y="5"/>
      <point x="130" y="3"/>
      <point x="37" y="-3" type="curve"/>
      <point x="30" y="6"/>
      <point x="28" y="19"/>
      <point x="26" y="27" type="curve"/>
      <point x="109" y="107"/>
      <point x="254" y="306"/>
      <point x="254" y="444" type="curve" smooth="yes"/>
      <point x="254" y="483"/>
      <point x="236" y="522"/>
      <point x="198" y="522" type="curve" smooth="yes"/>
      <point x="157" y="522"/>
      <point x="109" y="506"/>
      <point x="76" y="493" type="curve"/>
      <point x="67" y="501"/>
      <point x="62" y="517"/>
    </contour>
  </outline>
</glyph>
<glyph name="three" format="1">
  <advance width="370"/>
  <unicode hex="0033"/>
  <outline>
    <contour>
      <point x="35" y="554" type="curve"/>
      <point x="59" y="568"/>
      <point x="137" y="593"/>
      <point x="183" y="593" type="curve" smooth="yes"/>
      <point x="281" y="593"/>
      <point x="303" y="535"/>
      <point x="303" y="493" type="curve" smooth="yes"/>
      <point x="303" y="450"/>
      <point x="261" y="402"/>
      <point x="194" y="365" type="curve"/>
      <point x="285" y="366"/>
      <point x="341" y="310"/>
      <point x="341" y="226" type="curve" smooth="yes"/>
      <point x="341" y="57"/>
      <point x="154" y="-11"/>
      <point x="18" y="-8" type="curve"/>
      <point x="15" y="0"/>
      <point x="13" y="25"/>
      <point x="16" y="35" type="curve"/>
      <point x="176" y="29"/>
      <point x="224" y="149"/>
      <point x="224" y="223" type="curve" smooth="yes"/>
      <point x="224" y="286"/>
      <point x="194" y="322"/>
      <point x="151" y="322" type="curve" smooth="yes"/>
      <point x="136" y="322"/>
      <point x="112" y="320"/>
      <point x="99" y="315" type="curve"/>
      <point x="92" y="325"/>
      <point x="89" y="345"/>
      <point x="89" y="355" type="curve"/>
      <point x="156" y="377"/>
      <point x="196" y="415"/>
      <point x="196" y="471" type="curve" smooth="yes"/>
      <point x="196" y="509"/>
      <point x="175" y="532"/>
      <point x="133" y="532" type="curve" smooth="yes"/>
      <point x="104" y="532"/>
      <point x="67" y="524"/>
      <point x="48" y="516" type="curve"/>
      <point x="42" y="521"/>
      <point x="36" y="544"/>
    </contour>
  </outline>
</glyph>
<glyph name="four" format="1">
  <advance width="416"/>
  <unicode hex="0034"/>
  <outline>
    <contour>
      <point x="244" y="-2" type="curve"/>
      <point x="252" y="43"/>
      <point x="255" y="90"/>
      <point x="255" y="159" type="curve"/>
      <point x="252" y="159"/>
      <point x="96" y="161"/>
      <point x="38" y="158" type="curve"/>
      <point x="32" y="162"/>
      <point x="24" y="178"/>
      <point x="22" y="185" type="curve"/>
      <point x="117" y="323"/>
      <point x="209" y="461"/>
      <point x="300" y="599" type="curve"/>
      <point x="309" y="596"/>
      <point x="330" y="582"/>
      <point x="337" y="574" type="curve"/>
      <point x="268" y="471"/>
      <point x="165" y="315"/>
      <point x="102" y="208" type="curve"/>
      <point x="165" y="204"/>
      <point x="204" y="207"/>
      <point x="255" y="206" type="curve"/>
      <point x="255" y="234"/>
      <point x="256" y="268"/>
      <point x="253" y="351" type="curve"/>
      <point x="279" y="353"/>
      <point x="344" y="369"/>
      <point x="370" y="381" type="curve"/>
      <point x="362" y="319"/>
      <point x="360" y="300"/>
      <point x="360" y="207" type="curve"/>
      <point x="375" y="207"/>
      <point x="385" y="208"/>
      <point x="402" y="209" type="curve"/>
      <point x="404" y="193"/>
      <point x="404" y="171"/>
      <point x="401" y="157" type="curve"/>
      <point x="377" y="158"/>
      <point x="369" y="159"/>
      <point x="360" y="158" type="curve"/>
      <point x="359" y="124"/>
      <point x="362" y="50"/>
      <point x="370" y="-1" type="curve"/>
      <point x="345" y="4"/>
      <point x="279" y="5"/>
    </contour>
  </outline>
</glyph>
<glyph name="five" format="1">
  <advance width="350"/>
  <unicode hex="0035"/>
  <outline>
    <contour>
      <point x="306" y="586" type="curve"/>
      <point x="286" y="548"/>
      <point x="278" y="515"/>
      <point x="271" y="480" type="curve"/>
      <point x="231" y="486"/>
      <point x="150" y="486"/>
      <point x="117" y="482" type="curve"/>
      <point x="109" y="463"/>
      <point x="102" y="434"/>
      <point x="97" y="409" type="curve"/>
      <point x="221" y="420"/>
      <point x="314" y="385"/>
      <point x="314" y="248" type="curve" smooth="yes"/>
      <point x="314" y="154"/>
      <point x="240" y="50"/>
      <point x="112" y="-24" type="curve"/>
      <point x="102" y="-18"/>
      <point x="91" y="-5"/>
      <point x="87" y="9" type="curve"/>
      <point x="159" y="61"/>
      <point x="222" y="114"/>
      <point x="222" y="208" type="curve" smooth="yes"/>
      <point x="221" y="302"/>
      <point x="135" y="333"/>
      <point x="50" y="314" type="curve"/>
      <point x="45" y="315"/>
      <point x="31" y="330"/>
      <point x="31" y="330" type="curve"/>
      <point x="54" y="396"/>
      <point x="89" y="533"/>
      <point x="99" y="584" type="curve"/>
      <point x="149" y="580"/>
      <point x="259" y="578"/>
    </contour>
  </outline>
</glyph>
<glyph name="six" format="1">
  <advance width="438"/>
  <unicode hex="0036"/>
  <outline>
    <contour>
      <point x="261" y="602" type="curve"/>
      <point x="271" y="599"/>
      <point x="290" y="586"/>
      <point x="296" y="579" type="curve"/>
      <point x="189" y="444"/>
      <point x="142" y="322"/>
      <point x="142" y="214" type="curve" smooth="yes"/>
      <point x="142" y="74"/>
      <point x="176" y="40"/>
      <point x="214" y="40" type="curve" smooth="yes"/>
      <point x="255" y="40"/>
      <point x="295" y="64"/>
      <point x="295" y="140" type="curve" smooth="yes"/>
      <point x="295" y="213"/>
      <point x="267" y="238"/>
      <point x="238" y="238" type="curve" smooth="yes"/>
      <point x="225" y="238"/>
      <point x="213" y="236"/>
      <point x="198" y="230" type="curve"/>
      <point x="188" y="238"/>
      <point x="185" y="258"/>
      <point x="185" y="264" type="curve"/>
      <point x="215" y="281"/>
      <point x="258" y="294"/>
      <point x="283" y="294" type="curve" smooth="yes"/>
      <point x="383" y="295"/>
      <point x="409" y="223"/>
      <point x="409" y="164" type="curve" smooth="yes"/>
      <point x="409" y="70"/>
      <point x="320" y="-16"/>
      <point x="191" y="-16" type="curve" smooth="yes"/>
      <point x="44" y="-16"/>
      <point x="27" y="119"/>
      <point x="27" y="183" type="curve" smooth="yes"/>
      <point x="27" y="317"/>
      <point x="134" y="471"/>
    </contour>
  </outline>
</glyph>
<glyph name="seven" format="1">
  <advance width="419"/>
  <unicode hex="0037"/>
  <outline>
    <contour>
      <point x="67" y="-32" type="curve"/>
      <point x="102" y="104"/>
      <point x="174" y="276"/>
      <point x="305" y="478" type="curve"/>
      <point x="227" y="484"/>
      <point x="94" y="476"/>
      <point x="41" y="466" type="curve"/>
      <point x="55" y="509"/>
      <point x="62" y="550"/>
      <point x="65" y="590" type="curve"/>
      <point x="139" y="579"/>
      <point x="330" y="581"/>
      <point x="399" y="586" type="curve"/>
      <point x="407" y="581"/>
      <point x="415" y="569"/>
      <point x="418" y="559" type="curve"/>
      <point x="282" y="390"/>
      <point x="189" y="152"/>
      <point x="179" y="7" type="curve"/>
      <point x="143" y="0"/>
      <point x="106" y="-12"/>
    </contour>
  </outline>
</glyph>
<glyph name="eight" format="1">
  <advance width="415"/>
  <unicode hex="0038"/>
  <outline>
    <contour>
      <point x="276" y="582" type="curve"/>
      <point x="275" y="569"/>
      <point x="268" y="551"/>
      <point x="262" y="543" type="curve"/>
      <point x="253" y="546"/>
      <point x="233" y="551"/>
      <point x="217" y="551" type="curve" smooth="yes"/>
      <point x="164" y="551"/>
      <point x="141" y="516"/>
      <point x="141" y="494" type="curve" smooth="yes"/>
      <point x="141" y="459"/>
      <point x="189" y="427"/>
      <point x="224" y="405" type="curve"/>
      <point x="275" y="456"/>
      <point x="317" y="517"/>
      <point x="342" y="602" type="curve"/>
      <point x="351" y="603"/>
      <point x="370" y="599"/>
      <point x="377" y="596" type="curve"/>
      <point x="365" y="473"/>
      <point x="348" y="447"/>
      <point x="261" y="382" type="curve"/>
      <point x="272" y="374"/>
      <point x="282" y="367"/>
      <point x="294" y="360" type="curve" smooth="yes"/>
      <point x="366" y="313"/>
      <point x="394" y="258"/>
      <point x="393" y="184" type="curve" smooth="yes"/>
      <point x="392" y="74"/>
      <point x="290" y="-13"/>
      <point x="184" y="-13" type="curve" smooth="yes"/>
      <point x="64" y="-13"/>
      <point x="25" y="78"/>
      <point x="25" y="136" type="curve" smooth="yes"/>
      <point x="25" y="226"/>
      <point x="74" y="277"/>
      <point x="136" y="328" type="curve"/>
      <point x="110" y="346"/>
      <point x="97" y="360"/>
      <point x="82" y="377" type="curve" smooth="yes"/>
      <point x="45" y="422"/>
      <point x="41" y="486"/>
      <point x="93" y="546" type="curve" smooth="yes"/>
      <point x="117" y="574"/>
      <point x="149" y="593"/>
      <point x="220" y="593" type="curve" smooth="yes"/>
      <point x="237" y="593"/>
      <point x="262" y="589"/>
    </contour>
    <contour>
      <point x="174" y="304" type="curve"/>
      <point x="144" y="268"/>
      <point x="129" y="213"/>
      <point x="129" y="162" type="curve" smooth="yes"/>
      <point x="129" y="92"/>
      <point x="169" y="62"/>
      <point x="223" y="62" type="curve" smooth="yes"/>
      <point x="282" y="62"/>
      <point x="310" y="100"/>
      <point x="310" y="133" type="curve" smooth="yes"/>
      <point x="310" y="205"/>
      <point x="256" y="245"/>
    </contour>
  </outline>
</glyph>
<glyph name="nine" format="1">
  <advance width="424"/>
  <unicode hex="0039"/>
  <outline>
    <contour>
      <point x="157" y="-23" type="curve"/>
      <point x="141" y="-20"/>
      <point x="125" y="-7"/>
      <point x="118" y="4" type="curve"/>
      <point x="227" y="136"/>
      <point x="279" y="245"/>
      <point x="279" y="367" type="curve" smooth="yes"/>
      <point x="279" y="525"/>
      <point x="233" y="545"/>
      <point x="207" y="545" type="curve" smooth="yes"/>
      <point x="185" y="545"/>
      <point x="137" y="523"/>
      <point x="137" y="445" type="curve" smooth="yes"/>
      <point x="137" y="378"/>
      <point x="160" y="353"/>
      <point x="184" y="353" type="curve" smooth="yes"/>
      <point x="197" y="353"/>
      <point x="211" y="355"/>
      <point x="222" y="359" type="curve"/>
      <point x="229" y="350"/>
      <point x="232" y="329"/>
      <point x="233" y="322" type="curve"/>
      <point x="212" y="310"/>
      <point x="174" y="299"/>
      <point x="144" y="299" type="curve" smooth="yes"/>
      <point x="79" y="299"/>
      <point x="28" y="342"/>
      <point x="28" y="436" type="curve" smooth="yes"/>
      <point x="28" y="479"/>
      <point x="63" y="599"/>
      <point x="234" y="599" type="curve" smooth="yes"/>
      <point x="349" y="599"/>
      <point x="393" y="519"/>
      <point x="393" y="403" type="curve" smooth="yes"/>
      <point x="393" y="269"/>
      <point x="279" y="104"/>
    </contour>
  </outline>
</glyph>
<glyph name="colon" format="1">
  <advance width="162"/>
  <unicode hex="003A"/>
  <outline>
    <contour>
      <point x="107" y="90" type="curve" smooth="yes"/>
      <point x="153" y="90"/>
      <point x="162" y="60"/>
      <point x="162" y="45" type="curve" smooth="yes"/>
      <point x="162" y="25"/>
      <point x="142" y="-10"/>
      <point x="86" y="-10" type="curve" smooth="yes"/>
      <point x="56" y="-10"/>
      <point x="32" y="5"/>
      <point x="32" y="35" type="curve" smooth="yes"/>
      <point x="32" y="59"/>
      <point x="60" y="90"/>
    </contour>
    <contour>
      <point x="107" y="354" type="curve" smooth="yes"/>
      <point x="153" y="354"/>
      <point x="162" y="324"/>
      <point x="162" y="309" type="curve" smooth="yes"/>
      <point x="162" y="289"/>
      <point x="142" y="254"/>
      <point x="86" y="254" type="curve" smooth="yes"/>
      <point x="56" y="254"/>
      <point x="32" y="269"/>
      <point x="32" y="299" type="curve" smooth="yes"/>
      <point x="32" y="323"/>
      <point x="60" y="354"/>
    </contour>
  </outline>
</glyph>
<glyph name="semicolon" format="1">
  <advance width="184"/>
  <unicode hex="003B"/>
  <outline>
    <contour>
      <point x="99" y="96" type="curve" smooth="yes"/>
      <point x="122" y="96"/>
      <point x="154" y="79"/>
      <point x="154" y="30" type="curve" smooth="yes"/>
      <point x="154" y="-16"/>
      <point x="104" y="-122"/>
      <point x="64" y="-189" type="curve"/>
      <point x="52" y="-188"/>
      <point x="39" y="-183"/>
      <point x="30" y="-176" type="curve"/>
      <point x="53" y="-117"/>
      <point x="64" y="-76"/>
      <point x="63" y="-50" type="curve" smooth="yes"/>
      <point x="62" y="-18"/>
      <point x="36" y="11"/>
      <point x="36" y="40" type="curve" smooth="yes"/>
      <point x="36" y="68"/>
      <point x="58" y="96"/>
    </contour>
    <contour>
      <point x="105" y="354" type="curve" smooth="yes"/>
      <point x="151" y="354"/>
      <point x="160" y="324"/>
      <point x="160" y="309" type="curve" smooth="yes"/>
      <point x="160" y="289"/>
      <point x="140" y="254"/>
      <point x="84" y="254" type="curve" smooth="yes"/>
      <point x="54" y="254"/>
      <point x="30" y="269"/>
      <point x="30" y="299" type="curve" smooth="yes"/>
      <point x="30" y="323"/>
      <point x="58" y="354"/>
    </contour>
  </outline>
</glyph>
<glyph name="less" format="1">
  <advance width="416"/>
  <unicode hex="003C"/>
  <outline>
    <contour>
      <point x="53" y="211" type="curve"/>
      <point x="161" y="267"/>
      <point x="299" y="347"/>
      <point x="343" y="375" type="curve"/>
      <point x="353" y="365"/>
      <point x="364" y="337"/>
      <point x="365" y="327" type="curve"/>
      <point x="305" y="293"/>
      <point x="189" y="237"/>
      <point x="128" y="201" type="curve"/>
      <point x="361" y="65" type="line"/>
      <point x="359" y="54"/>
      <point x="350" y="27"/>
      <point x="337" y="20" type="curve"/>
      <point x="278" y="58"/>
      <point x="154" y="135"/>
      <point x="53" y="191" type="curve"/>
      <point x="52" y="197"/>
      <point x="52" y="205"/>
    </contour>
  </outline>
</glyph>
<glyph name="equal" format="1">
  <advance width="416"/>
  <unicode hex="003D"/>
  <outline>
    <contour>
      <point x="52" y="308" type="curve"/>
      <point x="153" y="306"/>
      <point x="293" y="306"/>
      <point x="368" y="307" type="curve"/>
      <point x="369" y="296"/>
      <point x="367" y="269"/>
      <point x="362" y="259" type="curve"/>
      <point x="266" y="261"/>
      <point x="174" y="262"/>
      <point x="49" y="261" type="curve"/>
      <point x="46" y="270"/>
      <point x="50" y="303"/>
    </contour>
    <contour>
      <point x="52" y="185" type="curve"/>
      <point x="153" y="182"/>
      <point x="293" y="182"/>
      <point x="368" y="183" type="curve"/>
      <point x="369" y="172"/>
      <point x="367" y="146"/>
      <point x="362" y="136" type="curve"/>
      <point x="266" y="139"/>
      <point x="174" y="139"/>
      <point x="49" y="139" type="curve"/>
      <point x="46" y="147"/>
      <point x="50" y="179"/>
    </contour>
  </outline>
</glyph>
<glyph name="greater" format="1">
  <advance width="416"/>
  <unicode hex="003E"/>
  <outline>
    <contour>
      <point x="364" y="184" type="curve"/>
      <point x="256" y="128"/>
      <point x="118" y="47"/>
      <point x="74" y="20" type="curve"/>
      <point x="64" y="29"/>
      <point x="53" y="57"/>
      <point x="52" y="68" type="curve"/>
      <point x="112" y="101"/>
      <point x="228" y="157"/>
      <point x="289" y="193" type="curve"/>
      <point x="56" y="329" type="line"/>
      <point x="58" y="341"/>
      <point x="67" y="367"/>
      <point x="79" y="375" type="curve"/>
      <point x="139" y="336"/>
      <point x="263" y="260"/>
      <point x="364" y="203" type="curve"/>
      <point x="365" y="197"/>
      <point x="365" y="189"/>
    </contour>
  </outline>
</glyph>
<glyph name="question" format="1">
  <advance width="262"/>
  <unicode hex="003F"/>
  <outline>
    <contour>
      <point x="98" y="150" type="curve"/>
      <point x="69" y="193"/>
      <point x="50" y="232"/>
      <point x="51" y="263" type="curve" smooth="yes"/>
      <point x="52" y="332"/>
      <point x="131" y="382"/>
      <point x="131" y="445" type="curve" smooth="yes"/>
      <point x="131" y="493"/>
      <point x="105" y="534"/>
      <point x="60" y="568" type="curve"/>
      <point x="66" y="578"/>
      <point x="77" y="593"/>
      <point x="86" y="601" type="curve"/>
      <point x="168" y="555"/>
      <point x="234" y="484"/>
      <point x="234" y="421" type="curve" smooth="yes"/>
      <point x="234" y="336"/>
      <point x="128" y="278"/>
      <point x="127" y="201" type="curve" smooth="yes"/>
      <point x="127" y="191"/>
      <point x="130" y="176"/>
      <point x="136" y="160" type="curve"/>
      <point x="126" y="156"/>
      <point x="108" y="151"/>
    </contour>
    <contour>
      <point x="125" y="90" type="curve" smooth="yes"/>
      <point x="171" y="90"/>
      <point x="181" y="60"/>
      <point x="181" y="45" type="curve" smooth="yes"/>
      <point x="181" y="25"/>
      <point x="160" y="-10"/>
      <point x="105" y="-10" type="curve" smooth="yes"/>
      <point x="74" y="-10"/>
      <point x="50" y="5"/>
      <point x="50" y="35" type="curve" smooth="yes"/>
      <point x="50" y="59"/>
      <point x="79" y="90"/>
    </contour>
  </outline>
</glyph>
<glyph name="at" format="1">
  <advance width="766"/>
  <unicode hex="0040"/>
  <outline>
    <contour>
      <point x="521" y="165" type="curve" smooth="yes"/>
      <point x="516" y="131"/>
      <point x="521" y="91"/>
      <point x="541" y="78" type="curve"/>
      <point x="637" y="126"/>
      <point x="688" y="215"/>
      <point x="688" y="344" type="curve" smooth="yes"/>
      <point x="688" y="477"/>
      <point x="576" y="518"/>
      <point x="481" y="518" type="curve" smooth="yes"/>
      <point x="275" y="518"/>
      <point x="82" y="341"/>
      <point x="82" y="117" type="curve" smooth="yes"/>
      <point x="82" y="-46"/>
      <point x="167" y="-136"/>
      <point x="313" y="-136" type="curve" smooth="yes"/>
      <point x="351" y="-136"/>
      <point x="422" y="-119"/>
      <point x="446" y="-111" type="curve"/>
      <point x="458" y="-146" type="line"/>
      <point x="422" y="-160"/>
      <point x="344" y="-180"/>
      <point x="306" y="-180" type="curve" smooth="yes"/>
      <point x="124" y="-180"/>
      <point x="32" y="-63"/>
      <point x="32" y="113" type="curve" smooth="yes"/>
      <point x="32" y="369"/>
      <point x="263" y="558"/>
      <point x="487" y="558" type="curve" smooth="yes"/>
      <point x="595" y="558"/>
      <point x="734" y="506"/>
      <point x="734" y="345" type="curve" smooth="yes"/>
      <point x="734" y="206"/>
      <point x="677" y="73"/>
      <point x="462" y="-14" type="curve"/>
      <point x="442" y="0"/>
      <point x="414" y="17"/>
      <point x="402" y="72" type="curve" smooth="yes"/>
      <point x="398" y="86"/>
      <point x="399" y="119"/>
      <point x="407" y="150" type="curve"/>
      <point x="345" y="96"/>
      <point x="309" y="56"/>
      <point x="227" y="-13" type="curve"/>
      <point x="193" y="11"/>
      <point x="174" y="72"/>
      <point x="174" y="119" type="curve" smooth="yes"/>
      <point x="174" y="216"/>
      <point x="242" y="386"/>
      <point x="426" y="391" type="curve" smooth="yes"/>
      <point x="469" y="392"/>
      <point x="553" y="391"/>
      <point x="588" y="388" type="curve"/>
      <point x="576" y="375"/>
      <point x="567" y="353"/>
      <point x="558" y="324" type="curve" smooth="yes"/>
      <point x="543" y="279"/>
      <point x="530" y="221"/>
    </contour>
    <contour>
      <point x="449" y="348" type="curve"/>
      <point x="441" y="349"/>
      <point x="434" y="349"/>
      <point x="427" y="349" type="curve" smooth="yes"/>
      <point x="322" y="348"/>
      <point x="284" y="251"/>
      <point x="284" y="172" type="curve" smooth="yes"/>
      <point x="284" y="146"/>
      <point x="288" y="121"/>
      <point x="298" y="107" type="curve"/>
      <point x="336" y="135"/>
      <point x="391" y="183"/>
      <point x="418" y="211" type="curve"/>
      <point x="427" y="237"/>
      <point x="447" y="316"/>
    </contour>
  </outline>
</glyph>
<glyph name="B" format="1">
  <advance width="504"/>
  <unicode hex="0042"/>
  <outline>
    <contour>
      <point x="55" y="582" type="curve"/>
      <point x="91" y="578"/>
      <point x="180" y="583"/>
      <point x="226" y="583" type="curve" smooth="yes"/>
      <point x="327" y="584"/>
      <point x="439" y="576"/>
      <point x="439" y="477" type="curve" smooth="yes"/>
      <point x="439" y="435"/>
      <point x="402" y="375"/>
      <point x="317" y="345" type="curve"/>
      <point x="318" y="341" type="line"/>
      <point x="400" y="341"/>
      <point x="479" y="305"/>
      <point x="479" y="219" type="curve" smooth="yes"/>
      <point x="479" y="124"/>
      <point x="376" y="0"/>
      <point x="188" y="-2" type="curve" smooth="yes"/>
      <point x="153" y="-2"/>
      <point x="87" y="-3"/>
      <point x="48" y="0" type="curve"/>
      <point x="57" y="205"/>
      <point x="59" y="470"/>
    </contour>
    <contour>
      <point x="172" y="541" type="curve"/>
      <point x="167" y="334"/>
      <point x="166" y="232"/>
      <point x="172" y="45" type="curve"/>
      <point x="183" y="42"/>
      <point x="189" y="42"/>
      <point x="201" y="42" type="curve" smooth="yes"/>
      <point x="291" y="43"/>
      <point x="363" y="104"/>
      <point x="360" y="210" type="curve"/>
      <point x="357" y="270"/>
      <point x="323" y="311"/>
      <point x="228" y="308" type="curve"/>
      <point x="223" y="313"/>
      <point x="221" y="330"/>
      <point x="222" y="340" type="curve"/>
      <point x="263" y="352"/>
      <point x="320" y="384"/>
      <point x="320" y="461" type="curve" smooth="yes"/>
      <point x="320" y="527"/>
      <point x="268" y="543"/>
      <point x="221" y="543" type="curve"/>
      <point x="200" y="544"/>
      <point x="187" y="543"/>
    </contour>
  </outline>
</glyph>
<glyph name="C" format="1">
  <advance width="548"/>
  <unicode hex="0043"/>
  <outline>
    <contour>
      <point x="293" y="-13" type="curve" smooth="yes"/>
      <point x="78" y="-10"/>
      <point x="33" y="170"/>
      <point x="33" y="245" type="curve" smooth="yes"/>
      <point x="33" y="400"/>
      <point x="141" y="595"/>
      <point x="372" y="595" type="curve" smooth="yes"/>
      <point x="400" y="595"/>
      <point x="458" y="580"/>
      <point x="497" y="561" type="curve"/>
      <point x="496" y="552"/>
      <point x="486" y="532"/>
      <point x="481" y="527" type="curve"/>
      <point x="447" y="540"/>
      <point x="392" y="550"/>
      <point x="362" y="550" type="curve" smooth="yes"/>
      <point x="269" y="550"/>
      <point x="156" y="469"/>
      <point x="156" y="261" type="curve" smooth="yes"/>
      <point x="156" y="97"/>
      <point x="253" y="47"/>
      <point x="325" y="46" type="curve" smooth="yes"/>
      <point x="376" y="46"/>
      <point x="443" y="64"/>
      <point x="503" y="89" type="curve"/>
      <point x="511" y="81"/>
      <point x="517" y="65"/>
      <point x="518" y="56" type="curve"/>
      <point x="462" y="24"/>
      <point x="361" y="-13"/>
    </contour>
  </outline>
</glyph>
<glyph name="E" format="1">
  <advance width="447"/>
  <unicode hex="0045"/>
  <outline>
    <contour>
      <point x="55" y="583" type="curve"/>
      <point x="140" y="580"/>
      <point x="298" y="581"/>
      <point x="413" y="583" type="curve"/>
      <point x="410" y="543" type="line"/>
      <point x="310" y="542"/>
      <point x="274" y="541"/>
      <point x="181" y="536" type="curve"/>
      <point x="177" y="496"/>
      <point x="176" y="372"/>
      <point x="176" y="348" type="curve"/>
      <point x="246" y="347"/>
      <point x="304" y="350"/>
      <point x="380" y="355" type="curve"/>
      <point x="382" y="315" type="line"/>
      <point x="318" y="312"/>
      <point x="242" y="307"/>
      <point x="176" y="300" type="curve"/>
      <point x="175" y="241"/>
      <point x="176" y="117"/>
      <point x="179" y="52" type="curve"/>
      <point x="254" y="47"/>
      <point x="313" y="42"/>
      <point x="430" y="43" type="curve"/>
      <point x="433" y="-2" type="line"/>
      <point x="198" y="2"/>
      <point x="162" y="2"/>
      <point x="48" y="-2" type="curve"/>
      <point x="61" y="84"/>
      <point x="64" y="531"/>
    </contour>
  </outline>
</glyph>
<glyph name="F" format="1">
  <advance width="435"/>
  <unicode hex="0046"/>
  <outline>
    <contour>
      <point x="432" y="582" type="curve"/>
      <point x="428" y="542" type="line"/>
      <point x="327" y="539"/>
      <point x="275" y="539"/>
      <point x="183" y="533" type="curve"/>
      <point x="181" y="509"/>
      <point x="175" y="419"/>
      <point x="176" y="345" type="curve"/>
      <point x="256" y="345"/>
      <point x="307" y="346"/>
      <point x="383" y="351" type="curve"/>
      <point x="384" y="310" type="line"/>
      <point x="360" y="309"/>
      <point x="243" y="301"/>
      <point x="176" y="294" type="curve"/>
      <point x="174" y="236"/>
      <point x="174" y="52"/>
      <point x="183" y="-2" type="curve"/>
      <point x="157" y="2"/>
      <point x="72" y="3"/>
      <point x="48" y="0" type="curve"/>
      <point x="60" y="117"/>
      <point x="62" y="424"/>
      <point x="57" y="583" type="curve"/>
      <point x="141" y="579"/>
      <point x="317" y="579"/>
    </contour>
  </outline>
</glyph>
<glyph name="H" format="1">
  <advance width="638"/>
  <unicode hex="0048"/>
  <outline>
    <contour>
      <point x="59" y="583" type="curve"/>
      <point x="77" y="582"/>
      <point x="166" y="580"/>
      <point x="188" y="583" type="curve"/>
      <point x="180" y="507"/>
      <point x="177" y="403"/>
      <point x="177" y="351" type="curve"/>
      <point x="253" y="351"/>
      <point x="383" y="357"/>
      <point x="464" y="365" type="curve"/>
      <point x="465" y="441"/>
      <point x="465" y="533"/>
      <point x="461" y="583" type="curve"/>
      <point x="487" y="580"/>
      <point x="565" y="579"/>
      <point x="589" y="583" type="curve"/>
      <point x="574" y="456"/>
      <point x="575" y="146"/>
      <point x="584" y="-2" type="curve"/>
      <point x="567" y="-1"/>
      <point x="477" y="1"/>
      <point x="455" y="-2" type="curve"/>
      <point x="462" y="69"/>
      <point x="464" y="258"/>
      <point x="464" y="327" type="curve"/>
      <point x="418" y="325"/>
      <point x="239" y="308"/>
      <point x="176" y="300" type="curve"/>
      <point x="174" y="242"/>
      <point x="171" y="62"/>
      <point x="176" y="-2" type="curve"/>
      <point x="151" y="1"/>
      <point x="72" y="3"/>
      <point x="48" y="0" type="curve"/>
      <point x="62" y="117"/>
      <point x="67" y="424"/>
    </contour>
  </outline>
</glyph>
<glyph name="I" format="1">
  <advance width="231"/>
  <unicode hex="0049"/>
  <outline>
    <contour>
      <point x="55" y="583" type="curve"/>
      <point x="72" y="579"/>
      <point x="161" y="581"/>
      <point x="182" y="583" type="curve"/>
      <point x="167" y="387"/>
      <point x="169" y="146"/>
      <point x="176" y="-2" type="curve"/>
      <point x="151" y="1"/>
      <point x="72" y="3"/>
      <point x="48" y="0" type="curve"/>
      <point x="61" y="133"/>
      <point x="62" y="424"/>
    </contour>
  </outline>
</glyph>
<glyph name="J" format="1">
  <advance width="231"/>
  <unicode hex="004A"/>
  <outline>
    <contour>
      <point x="57" y="583" type="curve"/>
      <point x="74" y="579"/>
      <point x="161" y="581"/>
      <point x="182" y="583" type="curve"/>
      <point x="171" y="441"/>
      <point x="174" y="295"/>
      <point x="174" y="150" type="curve" smooth="yes"/>
      <point x="174" y="-11"/>
      <point x="134" y="-109"/>
      <point x="50" y="-186" type="curve" smooth="yes"/>
      <point x="-16" y="-246"/>
      <point x="-96" y="-254"/>
      <point x="-142" y="-225" type="curve"/>
      <point x="-140" y="-214"/>
      <point x="-136" y="-195"/>
      <point x="-129" y="-184" type="curve"/>
      <point x="-111" y="-189"/>
      <point x="-94" y="-193"/>
      <point x="-72" y="-192" type="curve" smooth="yes"/>
      <point x="-13" y="-190"/>
      <point x="60" y="-145"/>
      <point x="62" y="133" type="curve" smooth="yes"/>
      <point x="62" y="254"/>
      <point x="61" y="473"/>
    </contour>
  </outline>
</glyph>
<glyph name="K" format="1">
  <advance width="613"/>
  <unicode hex="004B"/>
  <outline>
    <contour>
      <point x="181" y="583" type="curve"/>
      <point x="176" y="517"/>
      <point x="173" y="445"/>
      <point x="173" y="392" type="curve"/>
      <point x="288" y="442"/>
      <point x="469" y="531"/>
      <point x="574" y="601" type="curve"/>
      <point x="559" y="567"/>
      <point x="548" y="521"/>
      <point x="542" y="494" type="curve"/>
      <point x="480" y="471"/>
      <point x="390" y="436"/>
      <point x="351" y="417" type="curve"/>
      <point x="424" y="281"/>
      <point x="529" y="102"/>
      <point x="609" y="-1" type="curve"/>
      <point x="568" y="2"/>
      <point x="482" y="3"/>
      <point x="449" y="-2" type="curve"/>
      <point x="395" y="122"/>
      <point x="313" y="281"/>
      <point x="254" y="380" type="curve"/>
      <point x="218" y="365"/>
      <point x="198" y="357"/>
      <point x="171" y="344" type="curve"/>
      <point x="168" y="212"/>
      <point x="171" y="91"/>
      <point x="176" y="-2" type="curve"/>
      <point x="150" y="1"/>
      <point x="72" y="3"/>
      <point x="48" y="0" type="curve"/>
      <point x="61" y="133"/>
      <point x="62" y="424"/>
      <point x="55" y="583" type="curve"/>
      <point x="72" y="579"/>
      <point x="160" y="581"/>
    </contour>
  </outline>
</glyph>
<glyph name="L" format="1">
  <advance width="427"/>
  <unicode hex="004C"/>
  <outline>
    <contour>
      <point x="57" y="583" type="curve"/>
      <point x="75" y="579"/>
      <point x="161" y="581"/>
      <point x="183" y="583" type="curve"/>
      <point x="171" y="410"/>
      <point x="170" y="230"/>
      <point x="175" y="55" type="curve"/>
      <point x="250" y="45"/>
      <point x="303" y="44"/>
      <point x="420" y="41" type="curve"/>
      <point x="416" y="-2" type="line"/>
      <point x="181" y="1"/>
      <point x="162" y="1"/>
      <point x="48" y="-2" type="curve"/>
      <point x="60" y="104"/>
      <point x="65" y="451"/>
    </contour>
  </outline>
</glyph>
<glyph name="M" format="1">
  <advance width="859"/>
  <unicode hex="004D"/>
  <outline>
    <contour>
      <point x="603" y="402" type="curve"/>
      <point x="593" y="377"/>
      <point x="584" y="353"/>
      <point x="573" y="328" type="curve" smooth="yes"/>
      <point x="529" y="228"/>
      <point x="485" y="128"/>
      <point x="446" y="5" type="curve"/>
      <point x="422" y="-10"/>
      <point x="400" y="-16"/>
      <point x="383" y="-19" type="curve"/>
      <point x="360" y="73"/>
      <point x="302" y="209"/>
      <point x="252" y="331" type="curve" smooth="yes"/>
      <point x="245" y="349"/>
      <point x="234" y="378"/>
      <point x="228" y="400" type="curve"/>
      <point x="178" y="264"/>
      <point x="141" y="134"/>
      <point x="117" y="3" type="curve"/>
      <point x="97" y="4"/>
      <point x="35" y="0"/>
      <point x="10" y="-6" type="curve"/>
      <point x="92" y="151"/>
      <point x="129" y="259"/>
      <point x="182" y="418" type="curve" smooth="yes"/>
      <point x="206" y="490"/>
      <point x="215" y="539"/>
      <point x="225" y="581" type="curve"/>
      <point x="236" y="585"/>
      <point x="259" y="591"/>
      <point x="271" y="593" type="curve"/>
      <point x="320" y="436"/>
      <point x="382" y="283"/>
      <point x="442" y="147" type="curve"/>
      <point x="449" y="161"/>
      <point x="456" y="179"/>
      <point x="463" y="193" type="curve" smooth="yes"/>
      <point x="499" y="271"/>
      <point x="530" y="342"/>
      <point x="570" y="441" type="curve"/>
      <point x="598" y="513"/>
      <point x="606" y="539"/>
      <point x="616" y="581" type="curve"/>
      <point x="627" y="585"/>
      <point x="654" y="590"/>
      <point x="666" y="591" type="curve"/>
      <point x="707" y="403"/>
      <point x="780" y="143"/>
      <point x="839" y="-2" type="curve"/>
      <point x="797" y="3"/>
      <point x="717" y="1"/>
      <point x="694" y="-2" type="curve"/>
      <point x="670" y="133"/>
      <point x="651" y="213"/>
      <point x="620" y="330" type="curve" smooth="yes"/>
      <point x="615" y="348"/>
      <point x="608" y="380"/>
    </contour>
  </outline>
</glyph>
<glyph name="O" format="1">
  <advance width="662"/>
  <unicode hex="004F"/>
  <outline>
    <contour>
      <point x="357" y="594" type="curve" smooth="yes"/>
      <point x="511" y="594"/>
      <point x="625" y="482"/>
      <point x="626" y="315" type="curve" smooth="yes"/>
      <point x="626" y="211"/>
      <point x="580" y="114"/>
      <point x="496" y="48" type="curve" smooth="yes"/>
      <point x="457" y="18"/>
      <point x="367" y="-17"/>
      <point x="304" y="-17" type="curve" smooth="yes"/>
      <point x="73" y="-17"/>
      <point x="35" y="187"/>
      <point x="35" y="276" type="curve"/>
      <point x="37" y="359"/>
      <point x="79" y="480"/>
      <point x="181" y="543" type="curve" smooth="yes"/>
      <point x="219" y="566"/>
      <point x="300" y="594"/>
    </contour>
    <contour>
      <point x="326" y="539" type="curve" smooth="yes"/>
      <point x="253" y="539"/>
      <point x="157" y="484"/>
      <point x="157" y="278" type="curve" smooth="yes"/>
      <point x="157" y="182"/>
      <point x="203" y="40"/>
      <point x="336" y="40" type="curve" smooth="yes"/>
      <point x="410" y="40"/>
      <point x="505" y="106"/>
      <point x="505" y="311" type="curve" smooth="yes"/>
      <point x="505" y="489"/>
      <point x="392" y="539"/>
    </contour>
  </outline>
</glyph>
<glyph name="P" format="1">
  <advance width="493"/>
  <unicode hex="0050"/>
  <outline>
    <contour>
      <point x="48" y="-1" type="curve"/>
      <point x="62" y="83"/>
      <point x="61" y="505"/>
      <point x="52" y="583" type="curve"/>
      <point x="90" y="579"/>
      <point x="172" y="583"/>
      <point x="251" y="583" type="curve" smooth="yes"/>
      <point x="375" y="583"/>
      <point x="468" y="561"/>
      <point x="468" y="447" type="curve" smooth="yes"/>
      <point x="468" y="376"/>
      <point x="415" y="305"/>
      <point x="228" y="263" type="curve"/>
      <point x="223" y="271"/>
      <point x="218" y="294"/>
      <point x="218" y="300" type="curve"/>
      <point x="298" y="323"/>
      <point x="345" y="364"/>
      <point x="345" y="444" type="curve" smooth="yes"/>
      <point x="345" y="502"/>
      <point x="308" y="536"/>
      <point x="247" y="536" type="curve" smooth="yes"/>
      <point x="215" y="536"/>
      <point x="188" y="535"/>
      <point x="171" y="533" type="curve"/>
      <point x="163" y="422"/>
      <point x="176" y="54"/>
      <point x="181" y="-1" type="curve"/>
      <point x="161" y="2"/>
      <point x="72" y="2"/>
    </contour>
  </outline>
</glyph>
<glyph name="Q" format="1">
  <advance width="662"/>
  <unicode hex="0051"/>
  <outline>
    <contour>
      <point x="357" y="594" type="curve" smooth="yes"/>
      <point x="511" y="594"/>
      <point x="625" y="482"/>
      <point x="626" y="315" type="curve" smooth="yes"/>
      <point x="626" y="211"/>
      <point x="580" y="114"/>
      <point x="496" y="48" type="curve"/>
      <point x="471" y="30"/>
      <point x="427" y="8"/>
      <point x="382" y="-5" type="curve"/>
      <point x="470" y="-54"/>
      <point x="588" y="-104"/>
      <point x="675" y="-124" type="curve"/>
      <point x="626" y="-144"/>
      <point x="573" y="-180"/>
      <point x="544" y="-199" type="curve"/>
      <point x="465" y="-130"/>
      <point x="394" y="-74"/>
      <point x="311" y="-17" type="curve"/>
      <point x="304" y="-17" type="line" smooth="yes"/>
      <point x="73" y="-17"/>
      <point x="35" y="187"/>
      <point x="35" y="276" type="curve"/>
      <point x="37" y="359"/>
      <point x="79" y="480"/>
      <point x="181" y="543" type="curve" smooth="yes"/>
      <point x="219" y="566"/>
      <point x="300" y="594"/>
    </contour>
    <contour>
      <point x="326" y="538" type="curve" smooth="yes"/>
      <point x="253" y="538"/>
      <point x="157" y="484"/>
      <point x="157" y="278" type="curve" smooth="yes"/>
      <point x="157" y="182"/>
      <point x="203" y="42"/>
      <point x="336" y="42" type="curve" smooth="yes"/>
      <point x="410" y="42"/>
      <point x="505" y="106"/>
      <point x="505" y="311" type="curve" smooth="yes"/>
      <point x="505" y="489"/>
      <point x="392" y="538"/>
    </contour>
  </outline>
</glyph>
<glyph name="S" format="1">
  <advance width="327"/>
  <unicode hex="0053"/>
  <outline>
    <contour>
      <point x="25" y="0" type="curve"/>
      <point x="25" y="12"/>
      <point x="29" y="32"/>
      <point x="34" y="43" type="curve"/>
      <point x="135" y="25"/>
      <point x="184" y="60"/>
      <point x="184" y="129" type="curve" smooth="yes"/>
      <point x="184" y="181"/>
      <point x="157" y="222"/>
      <point x="107" y="286" type="curve" smooth="yes"/>
      <point x="72" y="331"/>
      <point x="52" y="367"/>
      <point x="52" y="414" type="curve" smooth="yes"/>
      <point x="52" y="475"/>
      <point x="105" y="551"/>
      <point x="212" y="602" type="curve"/>
      <point x="221" y="595"/>
      <point x="231" y="577"/>
      <point x="231" y="567" type="curve"/>
      <point x="171" y="529"/>
      <point x="146" y="489"/>
      <point x="146" y="454" type="curve" smooth="yes"/>
      <point x="146" y="419"/>
      <point x="168" y="385"/>
      <point x="211" y="339" type="curve" smooth="yes"/>
      <point x="263" y="283"/>
      <point x="290" y="218"/>
      <point x="290" y="156" type="curve" smooth="yes"/>
      <point x="290" y="100"/>
      <point x="256" y="-9"/>
      <point x="96" y="-9" type="curve" smooth="yes"/>
      <point x="81" y="-9"/>
      <point x="40" y="-5"/>
    </contour>
  </outline>
</glyph>
<glyph name="T" format="1">
  <advance width="462"/>
  <unicode hex="0054"/>
  <outline>
    <contour>
      <point x="6" y="583" type="curve"/>
      <point x="199" y="578"/>
      <point x="284" y="579"/>
      <point x="457" y="583" type="curve"/>
      <point x="459" y="575"/>
      <point x="458" y="552"/>
      <point x="457" y="541" type="curve"/>
      <point x="389" y="537"/>
      <point x="340" y="533"/>
      <point x="292" y="526" type="curve"/>
      <point x="288" y="433"/>
      <point x="286" y="201"/>
      <point x="298" y="-2" type="curve"/>
      <point x="271" y="2"/>
      <point x="203" y="2"/>
      <point x="167" y="-1" type="curve"/>
      <point x="174" y="46"/>
      <point x="179" y="476"/>
      <point x="175" y="528" type="curve"/>
      <point x="129" y="536"/>
      <point x="87" y="537"/>
      <point x="5" y="541" type="curve"/>
      <point x="4" y="549"/>
      <point x="3" y="571"/>
    </contour>
  </outline>
</glyph>
<glyph name="V" format="1">
  <advance width="549"/>
  <unicode hex="0056"/>
  <outline>
    <contour>
      <point x="26" y="584" type="curve"/>
      <point x="64" y="579"/>
      <point x="128" y="580"/>
      <point x="167" y="585" type="curve"/>
      <point x="191" y="458"/>
      <point x="224" y="355"/>
      <point x="274" y="213" type="curve" smooth="yes"/>
      <point x="280" y="194"/>
      <point x="290" y="171"/>
      <point x="295" y="147" type="curve"/>
      <point x="352" y="272"/>
      <point x="420" y="456"/>
      <point x="454" y="575" type="curve"/>
      <point x="479" y="576"/>
      <point x="530" y="581"/>
      <point x="556" y="592" type="curve"/>
      <point x="519" y="540"/>
      <point x="371" y="203"/>
      <point x="354" y="163" type="curve" smooth="yes"/>
      <point x="336" y="120"/>
      <point x="309" y="59"/>
      <point x="298" y="16" type="curve"/>
      <point x="280" y="0"/>
      <point x="259" y="-10"/>
      <point x="231" y="-18" type="curve"/>
      <point x="172" y="185"/>
      <point x="108" y="385"/>
    </contour>
  </outline>
</glyph>
<glyph name="X" format="1">
  <advance width="622"/>
  <unicode hex="0058"/>
  <outline>
    <contour>
      <point x="333" y="385" type="curve"/>
      <point x="395" y="462"/>
      <point x="430" y="518"/>
      <point x="456" y="575" type="curve"/>
      <point x="479" y="576"/>
      <point x="532" y="582"/>
      <point x="571" y="592" type="curve"/>
      <point x="512" y="539"/>
      <point x="410" y="414"/>
      <point x="360" y="347" type="curve"/>
      <point x="429" y="238"/>
      <point x="495" y="114"/>
      <point x="593" y="-1" type="curve"/>
      <point x="567" y="2"/>
      <point x="452" y="2"/>
      <point x="425" y="-1" type="curve"/>
      <point x="390" y="93"/>
      <point x="319" y="213"/>
      <point x="282" y="271" type="curve"/>
      <point x="231" y="200"/>
      <point x="153" y="81"/>
      <point x="119" y="8" type="curve"/>
      <point x="80" y="2"/>
      <point x="35" y="-2"/>
      <point x="-15" y="-17" type="curve"/>
      <point x="78" y="74"/>
      <point x="190" y="223"/>
      <point x="255" y="311" type="curve"/>
      <point x="211" y="385"/>
      <point x="72" y="573"/>
      <point x="57" y="583" type="curve"/>
      <point x="80" y="580"/>
      <point x="185" y="577"/>
      <point x="224" y="583" type="curve"/>
      <point x="265" y="501"/>
      <point x="298" y="444"/>
    </contour>
  </outline>
</glyph>
<glyph name="Y" format="1">
  <advance width="506"/>
  <unicode hex="0059"/>
  <outline>
    <contour>
      <point x="5" y="583" type="curve"/>
      <point x="54" y="579"/>
      <point x="122" y="580"/>
      <point x="163" y="583" type="curve"/>
      <point x="193" y="502"/>
      <point x="233" y="427"/>
      <point x="284" y="355" type="curve"/>
      <point x="345" y="434"/>
      <point x="386" y="502"/>
      <point x="422" y="577" type="curve"/>
      <point x="448" y="579"/>
      <point x="491" y="580"/>
      <point x="527" y="588" type="curve"/>
      <point x="431" y="480"/>
      <point x="391" y="426"/>
      <point x="303" y="301" type="curve"/>
      <point x="300" y="161"/>
      <point x="302" y="72"/>
      <point x="313" y="-1" type="curve"/>
      <point x="276" y="2"/>
      <point x="212" y="3"/>
      <point x="182" y="-1" type="curve"/>
      <point x="189" y="62"/>
      <point x="194" y="218"/>
      <point x="189" y="302" type="curve"/>
      <point x="149" y="381"/>
      <point x="48" y="533"/>
    </contour>
  </outline>
</glyph>
<glyph name="Z" format="1">
  <advance width="527"/>
  <unicode hex="005A"/>
  <outline>
    <contour>
      <point x="79" y="587" type="curve"/>
      <point x="202" y="578"/>
      <point x="419" y="578"/>
      <point x="462" y="587" type="curve"/>
      <point x="470" y="579"/>
      <point x="472" y="567"/>
      <point x="473" y="558" type="curve"/>
      <point x="453" y="542"/>
      <point x="431" y="517"/>
      <point x="412" y="492" type="curve" smooth="yes"/>
      <point x="319" y="364"/>
      <point x="232" y="228"/>
      <point x="151" y="99" type="curve"/>
      <point x="210" y="95"/>
      <point x="417" y="95"/>
      <point x="496" y="111" type="curve"/>
      <point x="486" y="80"/>
      <point x="475" y="24"/>
      <point x="471" y="-6" type="curve"/>
      <point x="276" y="7"/>
      <point x="79" y="3"/>
      <point x="23" y="-6" type="curve"/>
      <point x="18" y="-1"/>
      <point x="14" y="20"/>
      <point x="15" y="26" type="curve"/>
      <point x="36" y="40"/>
      <point x="67" y="69"/>
      <point x="85" y="94" type="curve"/>
      <point x="184" y="221"/>
      <point x="282" y="373"/>
      <point x="350" y="486" type="curve"/>
      <point x="243" y="489"/>
      <point x="124" y="485"/>
      <point x="60" y="473" type="curve"/>
      <point x="71" y="509"/>
      <point x="78" y="559"/>
    </contour>
  </outline>
</glyph>
<glyph name="bracketleft" format="1">
  <advance width="241"/>
  <unicode hex="005B"/>
  <outline>
    <contour>
      <point x="228" y="-22" type="curve"/>
      <point x="232" y="-30"/>
      <point x="233" y="-54"/>
      <point x="231" y="-64" type="curve"/>
      <point x="163" y="-68"/>
      <point x="96" y="-74"/>
      <point x="27" y="-86" type="curve"/>
      <point x="42" y="33"/>
      <point x="41" y="470"/>
      <point x="33" y="583" type="curve"/>
      <point x="72" y="580"/>
      <point x="189" y="581"/>
      <point x="230" y="583" type="curve"/>
      <point x="232" y="575"/>
      <point x="231" y="549"/>
      <point x="228" y="543" type="curve"/>
      <point x="207" y="542"/>
      <point x="172" y="540"/>
      <point x="151" y="537" type="curve"/>
      <point x="141" y="382"/>
      <point x="141" y="183"/>
      <point x="146" y="-23" type="curve"/>
      <point x="182" y="-25"/>
      <point x="201" y="-24"/>
    </contour>
  </outline>
</glyph>
<glyph name="backslash" format="1">
  <advance width="299"/>
  <unicode hex="005C"/>
  <outline>
    <contour>
      <point x="22" y="600" type="curve"/>
      <point x="27" y="604"/>
      <point x="65" y="606"/>
      <point x="74" y="605" type="curve"/>
      <point x="141" y="390"/>
      <point x="211" y="174"/>
      <point x="284" y="-42" type="curve"/>
      <point x="273" y="-47"/>
      <point x="241" y="-47"/>
      <point x="231" y="-46" type="curve"/>
      <point x="164" y="169"/>
      <point x="93" y="385"/>
    </contour>
  </outline>
</glyph>
<glyph name="bracketright" format="1">
  <advance width="242"/>
  <unicode hex="005D"/>
  <outline>
    <contour>
      <point x="215" y="583" type="curve"/>
      <point x="201" y="459"/>
      <point x="200" y="42"/>
      <point x="209" y="-66" type="curve"/>
      <point x="160" y="-68"/>
      <point x="62" y="-78"/>
      <point x="13" y="-88" type="curve"/>
      <point x="10" y="-81"/>
      <point x="8" y="-59"/>
      <point x="9" y="-49" type="curve"/>
      <point x="41" y="-42"/>
      <point x="61" y="-40"/>
      <point x="91" y="-28" type="curve"/>
      <point x="100" y="131"/>
      <point x="95" y="375"/>
      <point x="95" y="539" type="curve"/>
      <point x="75" y="541"/>
      <point x="34" y="541"/>
      <point x="14" y="541" type="curve"/>
      <point x="12" y="551"/>
      <point x="12" y="572"/>
      <point x="13" y="582" type="curve"/>
      <point x="67" y="579"/>
      <point x="159" y="580"/>
    </contour>
  </outline>
</glyph>
<glyph name="grave" format="1">
  <advance width="416"/>
  <unicode hex="0060"/>
  <outline>
    <contour>
      <point x="143" y="586" type="curve"/>
      <point x="182" y="556"/>
      <point x="252" y="515"/>
      <point x="311" y="485" type="curve"/>
      <point x="310" y="477"/>
      <point x="303" y="459"/>
      <point x="297" y="450" type="curve"/>
      <point x="228" y="470"/>
      <point x="172" y="482"/>
      <point x="103" y="494" type="curve"/>
      <point x="119" y="522"/>
      <point x="138" y="566"/>
    </contour>
  </outline>
</glyph>
<glyph name="b" format="1">
  <advance width="511"/>
  <unicode hex="0062"/>
  <outline>
    <contour>
      <point x="50" y="685" type="curve"/>
      <point x="81" y="687"/>
      <point x="163" y="703"/>
      <point x="189" y="713" type="curve"/>
      <point x="175" y="606"/>
      <point x="176" y="493"/>
      <point x="174" y="374" type="curve"/>
      <point x="228" y="395"/>
      <point x="270" y="409"/>
      <point x="313" y="409" type="curve" smooth="yes"/>
      <point x="400" y="409"/>
      <point x="468" y="359"/>
      <point x="472" y="257" type="curve"/>
      <point x="478" y="140"/>
      <point x="388" y="-11"/>
      <point x="216" y="-11" type="curve" smooth="yes"/>
      <point x="148" y="-11"/>
      <point x="66" y="17"/>
      <point x="49" y="35" type="curve"/>
      <point x="68" y="150"/>
      <point x="70" y="615"/>
    </contour>
    <contour>
      <point x="174" y="46" type="curve"/>
      <point x="190" y="36"/>
      <point x="206" y="34"/>
      <point x="224" y="34" type="curve" smooth="yes"/>
      <point x="291" y="34"/>
      <point x="358" y="84"/>
      <point x="356" y="238" type="curve" smooth="yes"/>
      <point x="355" y="298"/>
      <point x="318" y="344"/>
      <point x="264" y="344" type="curve" smooth="yes"/>
      <point x="230" y="344"/>
      <point x="202" y="337"/>
      <point x="173" y="329" type="curve"/>
      <point x="171" y="274"/>
      <point x="171" y="84"/>
    </contour>
  </outline>
</glyph>
<glyph name="c" format="1">
  <advance width="411"/>
  <unicode hex="0063"/>
  <outline>
    <contour>
      <point x="365" y="390" type="curve"/>
      <point x="362" y="375"/>
      <point x="356" y="361"/>
      <point x="350" y="351" type="curve"/>
      <point x="330" y="356"/>
      <point x="290" y="364"/>
      <point x="263" y="364" type="curve" smooth="yes"/>
      <point x="233" y="364"/>
      <point x="151" y="344"/>
      <point x="151" y="180" type="curve" smooth="yes"/>
      <point x="151" y="82"/>
      <point x="203" y="47"/>
      <point x="252" y="47" type="curve" smooth="yes"/>
      <point x="280" y="47"/>
      <point x="328" y="57"/>
      <point x="366" y="67" type="curve"/>
      <point x="372" y="59"/>
      <point x="377" y="42"/>
      <point x="378" y="31" type="curve"/>
      <point x="316" y="10"/>
      <point x="258" y="-8"/>
      <point x="208" y="-8" type="curve" smooth="yes"/>
      <point x="68" y="-8"/>
      <point x="36" y="104"/>
      <point x="36" y="172" type="curve" smooth="yes"/>
      <point x="36" y="296"/>
      <point x="130" y="409"/>
      <point x="271" y="409" type="curve" smooth="yes"/>
      <point x="291" y="409"/>
      <point x="342" y="398"/>
    </contour>
  </outline>
</glyph>
<glyph name="d" format="1">
  <advance width="516"/>
  <unicode hex="0064"/>
  <outline>
    <contour>
      <point x="257" y="410" type="curve" smooth="yes"/>
      <point x="295" y="410"/>
      <point x="316" y="406"/>
      <point x="344" y="401" type="curve"/>
      <point x="345" y="482"/>
      <point x="339" y="643"/>
      <point x="329" y="687" type="curve"/>
      <point x="375" y="690"/>
      <point x="429" y="698"/>
      <point x="468" y="715" type="curve"/>
      <point x="452" y="644"/>
      <point x="445" y="137"/>
      <point x="464" y="41" type="curve"/>
      <point x="402" y="21"/>
      <point x="308" y="-13"/>
      <point x="228" y="-13" type="curve" smooth="yes"/>
      <point x="115" y="-13"/>
      <point x="35" y="44"/>
      <point x="38" y="174" type="curve" smooth="yes"/>
      <point x="41" y="312"/>
      <point x="139" y="410"/>
    </contour>
    <contour>
      <point x="260" y="361" type="curve" smooth="yes"/>
      <point x="218" y="361"/>
      <point x="158" y="315"/>
      <point x="154" y="177" type="curve" smooth="yes"/>
      <point x="150" y="70"/>
      <point x="205" y="39"/>
      <point x="247" y="39" type="curve" smooth="yes"/>
      <point x="285" y="39"/>
      <point x="315" y="45"/>
      <point x="340" y="55" type="curve"/>
      <point x="344" y="143"/>
      <point x="344" y="289"/>
      <point x="343" y="353" type="curve"/>
      <point x="316" y="360"/>
      <point x="290" y="361"/>
    </contour>
  </outline>
</glyph>
<glyph name="f" format="1">
  <advance width="281"/>
  <unicode hex="0066"/>
  <outline>
    <contour>
      <point x="40" y="403" type="curve"/>
      <point x="73" y="403" type="line"/>
      <point x="74" y="430"/>
      <point x="72" y="473"/>
      <point x="74" y="519" type="curve" smooth="yes"/>
      <point x="77" y="617"/>
      <point x="172" y="702"/>
      <point x="243" y="708" type="curve" smooth="yes"/>
      <point x="260" y="709"/>
      <point x="297" y="700"/>
      <point x="316" y="692" type="curve"/>
      <point x="314" y="680"/>
      <point x="307" y="662"/>
      <point x="301" y="653" type="curve"/>
      <point x="284" y="657"/>
      <point x="266" y="661"/>
      <point x="245" y="661" type="curve" smooth="yes"/>
      <point x="223" y="661"/>
      <point x="200" y="632"/>
      <point x="190" y="606" type="curve" smooth="yes"/>
      <point x="176" y="569"/>
      <point x="179" y="549"/>
      <point x="180" y="403" type="curve"/>
      <point x="224" y="402"/>
      <point x="259" y="404"/>
      <point x="290" y="406" type="curve"/>
      <point x="290" y="392"/>
      <point x="287" y="373"/>
      <point x="282" y="357" type="curve"/>
      <point x="248" y="360"/>
      <point x="227" y="361"/>
      <point x="181" y="361" type="curve"/>
      <point x="180" y="290"/>
      <point x="182" y="54"/>
      <point x="196" y="-2" type="curve"/>
      <point x="171" y="2"/>
      <point x="86" y="1"/>
      <point x="63" y="-2" type="curve"/>
      <point x="74" y="123"/>
      <point x="73" y="241"/>
      <point x="73" y="360" type="curve"/>
      <point x="66" y="360"/>
      <point x="52" y="361"/>
      <point x="39" y="360" type="curve"/>
      <point x="39" y="372"/>
      <point x="39" y="390"/>
    </contour>
  </outline>
</glyph>
<glyph name="h" format="1">
  <advance width="527"/>
  <unicode hex="0068"/>
  <outline>
    <contour>
      <point x="52" y="687" type="curve"/>
      <point x="98" y="691"/>
      <point x="150" y="701"/>
      <point x="192" y="718" type="curve"/>
      <point x="174" y="638"/>
      <point x="172" y="455"/>
      <point x="173" y="377" type="curve"/>
      <point x="214" y="393"/>
      <point x="284" y="413"/>
      <point x="304" y="413" type="curve" smooth="yes"/>
      <point x="425" y="413"/>
      <point x="454" y="336"/>
      <point x="461" y="273" type="curve" smooth="yes"/>
      <point x="465" y="236"/>
      <point x="474" y="35"/>
      <point x="481" y="-1" type="curve"/>
      <point x="444" y="1"/>
      <point x="385" y="4"/>
      <point x="354" y="-2" type="curve"/>
      <point x="363" y="68"/>
      <point x="356" y="211"/>
      <point x="350" y="262" type="curve"/>
      <point x="340" y="334"/>
      <point x="307" y="349"/>
      <point x="273" y="350" type="curve" smooth="yes"/>
      <point x="244" y="350"/>
      <point x="201" y="340"/>
      <point x="173" y="330" type="curve"/>
      <point x="173" y="236"/>
      <point x="174" y="114"/>
      <point x="180" y="-2" type="curve"/>
      <point x="151" y="2"/>
      <point x="111" y="4"/>
      <point x="50" y="-2" type="curve"/>
      <point x="67" y="106"/>
      <point x="69" y="540"/>
    </contour>
  </outline>
</glyph>
<glyph name="i" format="1">
  <advance width="232"/>
  <unicode hex="0069"/>
  <outline>
    <contour>
      <point x="128" y="612" type="curve" smooth="yes"/>
      <point x="171" y="612"/>
      <point x="181" y="584"/>
      <point x="181" y="570" type="curve" smooth="yes"/>
      <point x="181" y="546"/>
      <point x="148" y="519"/>
      <point x="107" y="519" type="curve" smooth="yes"/>
      <point x="77" y="519"/>
      <point x="56" y="532"/>
      <point x="56" y="561" type="curve" smooth="yes"/>
      <point x="56" y="582"/>
      <point x="82" y="612"/>
    </contour>
    <contour>
      <point x="51" y="-1" type="curve"/>
      <point x="62" y="94"/>
      <point x="61" y="307"/>
      <point x="50" y="391" type="curve"/>
      <point x="80" y="391"/>
      <point x="144" y="398"/>
      <point x="174" y="407" type="curve"/>
      <point x="164" y="341"/>
      <point x="168" y="77"/>
      <point x="182" y="-2" type="curve"/>
      <point x="146" y="5"/>
      <point x="80" y="3"/>
    </contour>
  </outline>
</glyph>
<glyph name="j" format="1">
  <advance width="232"/>
  <unicode hex="006A"/>
  <outline>
    <contour>
      <point x="174" y="407" type="curve"/>
      <point x="168" y="353"/>
      <point x="165" y="137"/>
      <point x="169" y="47" type="curve" smooth="yes"/>
      <point x="174" y="-103"/>
      <point x="124" y="-177"/>
      <point x="35" y="-249" type="curve" smooth="yes"/>
      <point x="-12" y="-288"/>
      <point x="-77" y="-290"/>
      <point x="-107" y="-271" type="curve"/>
      <point x="-107" y="-261"/>
      <point x="-102" y="-245"/>
      <point x="-97" y="-236" type="curve"/>
      <point x="43" y="-264"/>
      <point x="57" y="-103"/>
      <point x="60" y="-21" type="curve"/>
      <point x="62" y="72"/>
      <point x="60" y="320"/>
      <point x="50" y="391" type="curve"/>
      <point x="81" y="391"/>
      <point x="145" y="400"/>
    </contour>
    <contour>
      <point x="129" y="612" type="curve" smooth="yes"/>
      <point x="172" y="612"/>
      <point x="182" y="584"/>
      <point x="182" y="570" type="curve" smooth="yes"/>
      <point x="182" y="546"/>
      <point x="149" y="519"/>
      <point x="109" y="519" type="curve" smooth="yes"/>
      <point x="78" y="519"/>
      <point x="57" y="532"/>
      <point x="57" y="561" type="curve" smooth="yes"/>
      <point x="57" y="582"/>
      <point x="83" y="612"/>
    </contour>
  </outline>
</glyph>
<glyph name="l" format="1">
  <advance width="239"/>
  <unicode hex="006C"/>
  <outline>
    <contour>
      <point x="57" y="-3" type="curve"/>
      <point x="69" y="93"/>
      <point x="65" y="621"/>
      <point x="50" y="689" type="curve"/>
      <point x="82" y="691"/>
      <point x="145" y="702"/>
      <point x="181" y="716" type="curve"/>
      <point x="164" y="534"/>
      <point x="174" y="65"/>
      <point x="189" y="-2" type="curve"/>
      <point x="154" y="2"/>
      <point x="100" y="3"/>
    </contour>
  </outline>
</glyph>
<glyph name="m" format="1">
  <advance width="752"/>
  <unicode hex="006D"/>
  <outline>
    <contour>
      <point x="581" y="-2" type="curve"/>
      <point x="582" y="65"/>
      <point x="576" y="217"/>
      <point x="573" y="244" type="curve" smooth="yes"/>
      <point x="561" y="339"/>
      <point x="532" y="343"/>
      <point x="505" y="343" type="curve" smooth="yes"/>
      <point x="481" y="343"/>
      <point x="454" y="333"/>
      <point x="422" y="319" type="curve"/>
      <point x="428" y="299"/>
      <point x="431" y="253"/>
      <point x="431" y="227" type="curve" smooth="yes"/>
      <point x="432" y="189"/>
      <point x="435" y="92"/>
      <point x="444" y="-1" type="curve"/>
      <point x="415" y="3"/>
      <point x="346" y="2"/>
      <point x="318" y="-1" type="curve"/>
      <point x="322" y="98"/>
      <point x="320" y="232"/>
      <point x="316" y="280" type="curve" smooth="yes"/>
      <point x="311" y="339"/>
      <point x="279" y="345"/>
      <point x="251" y="345" type="curve" smooth="yes"/>
      <point x="228" y="345"/>
      <point x="200" y="337"/>
      <point x="173" y="325" type="curve"/>
      <point x="169" y="247"/>
      <point x="171" y="134"/>
      <point x="178" y="-2" type="curve"/>
      <point x="150" y="2"/>
      <point x="82" y="5"/>
      <point x="50" y="-2" type="curve"/>
      <point x="63" y="124"/>
      <point x="60" y="306"/>
      <point x="52" y="401" type="curve"/>
      <point x="81" y="401"/>
      <point x="144" y="407"/>
      <point x="177" y="415" type="curve"/>
      <point x="174" y="398"/>
      <point x="173" y="387"/>
      <point x="172" y="374" type="curve"/>
      <point x="211" y="391"/>
      <point x="253" y="410"/>
      <point x="294" y="410" type="curve" smooth="yes"/>
      <point x="344" y="410"/>
      <point x="378" y="400"/>
      <point x="403" y="362" type="curve"/>
      <point x="446" y="387"/>
      <point x="496" y="411"/>
      <point x="536" y="411" type="curve" smooth="yes"/>
      <point x="603" y="411"/>
      <point x="682" y="390"/>
      <point x="691" y="204" type="curve"/>
      <point x="693" y="133"/>
      <point x="700" y="27"/>
      <point x="706" y="-1" type="curve"/>
      <point x="676" y="2"/>
      <point x="612" y="4"/>
    </contour>
  </outline>
</glyph>
<glyph name="o" format="1">
  <advance width="491"/>
  <unicode hex="006F"/>
  <outline>
    <contour>
      <point x="252" y="405" type="curve" smooth="yes"/>
      <point x="383" y="405"/>
      <point x="450" y="324"/>
      <point x="450" y="209" type="curve" smooth="yes"/>
      <point x="450" y="128"/>
      <point x="404" y="65"/>
      <point x="364" y="35" type="curve"/>
      <point x="333" y="10"/>
      <point x="260" y="-10"/>
      <point x="217" y="-10" type="curve" smooth="yes"/>
      <point x="71" y="-10"/>
      <point x="29" y="113"/>
      <point x="31" y="179" type="curve"/>
      <point x="31" y="251"/>
      <point x="66" y="322"/>
      <point x="112" y="356" type="curve" smooth="yes"/>
      <point x="139" y="377"/>
      <point x="217" y="405"/>
    </contour>
    <contour>
      <point x="229" y="351" type="curve" smooth="yes"/>
      <point x="204" y="351"/>
      <point x="144" y="322"/>
      <point x="144" y="187" type="curve" smooth="yes"/>
      <point x="144" y="114"/>
      <point x="182" y="42"/>
      <point x="249" y="42" type="curve" smooth="yes"/>
      <point x="300" y="42"/>
      <point x="341" y="102"/>
      <point x="337" y="207" type="curve" smooth="yes"/>
      <point x="334" y="299"/>
      <point x="287" y="351"/>
    </contour>
  </outline>
</glyph>
<glyph name="p" format="1">
  <advance width="496"/>
  <unicode hex="0070"/>
  <outline>
    <contour>
      <point x="47" y="-281" type="curve"/>
      <point x="63" y="-145"/>
      <point x="69" y="298"/>
      <point x="55" y="393" type="curve"/>
      <point x="97" y="395"/>
      <point x="136" y="401"/>
      <point x="173" y="412" type="curve"/>
      <point x="172" y="400"/>
      <point x="172" y="392"/>
      <point x="172" y="380" type="curve"/>
      <point x="206" y="395"/>
      <point x="236" y="409"/>
      <point x="278" y="409" type="curve" smooth="yes"/>
      <point x="407" y="409"/>
      <point x="461" y="331"/>
      <point x="458" y="231" type="curve" smooth="yes"/>
      <point x="453" y="85"/>
      <point x="348" y="-8"/>
      <point x="218" y="-8" type="curve" smooth="yes"/>
      <point x="194" y="-8"/>
      <point x="184" y="-5"/>
      <point x="170" y="0" type="curve"/>
      <point x="173" y="-140"/>
      <point x="176" y="-219"/>
      <point x="190" y="-269" type="curve"/>
      <point x="160" y="-270"/>
      <point x="67" y="-278"/>
    </contour>
    <contour>
      <point x="171" y="47" type="curve"/>
      <point x="186" y="44"/>
      <point x="195" y="40"/>
      <point x="217" y="40" type="curve" smooth="yes"/>
      <point x="279" y="40"/>
      <point x="342" y="78"/>
      <point x="342" y="229" type="curve" smooth="yes"/>
      <point x="342" y="315"/>
      <point x="296" y="352"/>
      <point x="247" y="352" type="curve" smooth="yes"/>
      <point x="222" y="352"/>
      <point x="201" y="346"/>
      <point x="172" y="335" type="curve"/>
      <point x="168" y="262"/>
      <point x="171" y="90"/>
    </contour>
  </outline>
</glyph>
<glyph name="q" format="1">
  <advance width="496"/>
  <unicode hex="0071"/>
  <outline>
    <contour>
      <point x="310" y="-282" type="curve"/>
      <point x="321" y="-246"/>
      <point x="322" y="-4"/>
      <point x="321" y="25" type="curve"/>
      <point x="281" y="4"/>
      <point x="248" y="-6"/>
      <point x="209" y="-6" type="curve" smooth="yes"/>
      <point x="59" y="-6"/>
      <point x="37" y="112"/>
      <point x="37" y="151" type="curve" smooth="yes"/>
      <point x="37" y="331"/>
      <point x="169" y="409"/>
      <point x="263" y="409" type="curve" smooth="yes"/>
      <point x="281" y="409"/>
      <point x="295" y="403"/>
      <point x="318" y="395" type="curve"/>
      <point x="340" y="395"/>
      <point x="409" y="408"/>
      <point x="430" y="414" type="curve"/>
      <point x="427" y="380"/>
      <point x="428" y="223"/>
      <point x="429" y="64" type="curve"/>
      <point x="429" y="-147"/>
      <point x="437" y="-235"/>
      <point x="454" y="-270" type="curve"/>
      <point x="438" y="-270"/>
      <point x="343" y="-277"/>
    </contour>
    <contour>
      <point x="318" y="349" type="curve"/>
      <point x="286" y="358"/>
      <point x="280" y="359"/>
      <point x="256" y="358" type="curve" smooth="yes"/>
      <point x="229" y="357"/>
      <point x="147" y="334"/>
      <point x="147" y="168" type="curve" smooth="yes"/>
      <point x="147" y="108"/>
      <point x="170" y="52"/>
      <point x="242" y="52" type="curve" smooth="yes"/>
      <point x="269" y="52"/>
      <point x="294" y="59"/>
      <point x="321" y="72" type="curve"/>
      <point x="323" y="139"/>
      <point x="319" y="323"/>
    </contour>
  </outline>
</glyph>
<glyph name="v" format="1">
  <advance width="447"/>
  <unicode hex="0076"/>
  <outline>
    <contour>
      <point x="165" y="406" type="curve"/>
      <point x="168" y="357"/>
      <point x="202" y="248"/>
      <point x="228" y="169" type="curve" smooth="yes"/>
      <point x="232" y="156"/>
      <point x="237" y="142"/>
      <point x="239" y="129" type="curve"/>
      <point x="298" y="248"/>
      <point x="337" y="349"/>
      <point x="346" y="395" type="curve"/>
      <point x="368" y="396"/>
      <point x="417" y="402"/>
      <point x="447" y="415" type="curve"/>
      <point x="377" y="303"/>
      <point x="323" y="204"/>
      <point x="276" y="105" type="curve"/>
      <point x="262" y="73"/>
      <point x="241" y="29"/>
      <point x="233" y="2" type="curve"/>
      <point x="221" y="-6"/>
      <point x="191" y="-12"/>
      <point x="176" y="-14" type="curve"/>
      <point x="138" y="134"/>
      <point x="58" y="334"/>
      <point x="21" y="405" type="curve"/>
      <point x="46" y="400"/>
      <point x="146" y="403"/>
    </contour>
  </outline>
</glyph>
<glyph name="w" format="1">
  <advance width="685"/>
  <unicode hex="0077"/>
  <outline>
    <contour>
      <point x="411" y="413" type="curve"/>
      <point x="417" y="367"/>
      <point x="451" y="253"/>
      <point x="478" y="171" type="curve" smooth="yes"/>
      <point x="482" y="159"/>
      <point x="487" y="142"/>
      <point x="489" y="129" type="curve"/>
      <point x="543" y="248"/>
      <point x="575" y="349"/>
      <point x="581" y="395" type="curve"/>
      <point x="602" y="396"/>
      <point x="654" y="402"/>
      <point x="685" y="415" type="curve"/>
      <point x="615" y="303"/>
      <point x="571" y="204"/>
      <point x="527" y="105" type="curve" smooth="yes"/>
      <point x="513" y="73"/>
      <point x="493" y="29"/>
      <point x="486" y="2" type="curve"/>
      <point x="473" y="-6"/>
      <point x="442" y="-12"/>
      <point x="426" y="-14" type="curve"/>
      <point x="398" y="81"/>
      <point x="375" y="149"/>
      <point x="352" y="211" type="curve" smooth="yes"/>
      <point x="346" y="226"/>
      <point x="341" y="243"/>
      <point x="337" y="263" type="curve"/>
      <point x="262" y="104" type="line" smooth="yes"/>
      <point x="247" y="72"/>
      <point x="229" y="29"/>
      <point x="221" y="2" type="curve"/>
      <point x="208" y="-6"/>
      <point x="178" y="-12"/>
      <point x="163" y="-14" type="curve"/>
      <point x="125" y="134"/>
      <point x="58" y="334"/>
      <point x="21" y="405" type="curve"/>
      <point x="46" y="400"/>
      <point x="146" y="403"/>
      <point x="165" y="406" type="curve"/>
      <point x="168" y="357"/>
      <point x="190" y="255"/>
      <point x="213" y="175" type="curve"/>
      <point x="218" y="162"/>
      <point x="223" y="145"/>
      <point x="225" y="133" type="curve"/>
      <point x="284" y="251"/>
      <point x="327" y="355"/>
      <point x="335" y="400" type="curve"/>
      <point x="357" y="409"/>
      <point x="380" y="413"/>
    </contour>
  </outline>
</glyph>
<glyph name="x" format="1">
  <advance width="483"/>
  <unicode hex="0078"/>
  <outline>
    <contour>
      <point x="460" y="411" type="curve"/>
      <point x="461" y="407" type="line"/>
      <point x="398" y="355"/>
      <point x="336" y="284"/>
      <point x="296" y="238" type="curve"/>
      <point x="348" y="147"/>
      <point x="380" y="97"/>
      <point x="466" y="-2" type="curve"/>
      <point x="438" y="2"/>
      <point x="326" y="2"/>
      <point x="305" y="-1" type="curve"/>
      <point x="268" y="75"/>
      <point x="246" y="122"/>
      <point x="216" y="169" type="curve"/>
      <point x="164" y="97"/>
      <point x="144" y="71"/>
      <point x="111" y="2" type="curve"/>
      <point x="81" y="-2"/>
      <point x="31" y="-4"/>
      <point x="1" y="-11" type="curve"/>
      <point x="0" y="-8" type="line"/>
      <point x="59" y="47"/>
      <point x="136" y="138"/>
      <point x="193" y="210" type="curve"/>
      <point x="147" y="288"/>
      <point x="110" y="344"/>
      <point x="56" y="404" type="curve"/>
      <point x="96" y="400"/>
      <point x="186" y="398"/>
      <point x="222" y="404" type="curve"/>
      <point x="231" y="359"/>
      <point x="255" y="308"/>
      <point x="273" y="276" type="curve"/>
      <point x="312" y="320"/>
      <point x="340" y="360"/>
      <point x="358" y="398" type="curve"/>
      <point x="387" y="400"/>
      <point x="437" y="405"/>
    </contour>
  </outline>
</glyph>
<glyph name="y" format="1">
  <advance width="499"/>
  <unicode hex="0079"/>
  <outline>
    <contour>
      <point x="496" y="409" type="curve"/>
      <point x="499" y="404" type="line"/>
      <point x="429" y="294"/>
      <point x="353" y="155"/>
      <point x="297" y="29" type="curve"/>
      <point x="264" y="-42"/>
      <point x="268" y="-31"/>
      <point x="235" y="-111" type="curve" smooth="yes"/>
      <point x="198" y="-199"/>
      <point x="149" y="-257"/>
      <point x="35" y="-284" type="curve"/>
      <point x="26" y="-275"/>
      <point x="20" y="-261"/>
      <point x="19" y="-250" type="curve"/>
      <point x="110" y="-191"/>
      <point x="162" y="-141"/>
      <point x="219" y="-17" type="curve"/>
      <point x="174" y="90"/>
      <point x="84" y="300"/>
      <point x="8" y="404" type="curve"/>
      <point x="41" y="395"/>
      <point x="139" y="403"/>
      <point x="164" y="407" type="curve"/>
      <point x="174" y="352"/>
      <point x="233" y="198"/>
      <point x="282" y="111" type="curve"/>
      <point x="334" y="215"/>
      <point x="386" y="343"/>
      <point x="392" y="398" type="curve"/>
      <point x="412" y="397"/>
      <point x="460" y="401"/>
    </contour>
  </outline>
</glyph>
<glyph name="z" format="1">
  <advance width="425"/>
  <unicode hex="007A"/>
  <outline>
    <contour>
      <point x="65" y="405" type="curve"/>
      <point x="149" y="400"/>
      <point x="264" y="399"/>
      <point x="364" y="406" type="curve"/>
      <point x="370" y="400"/>
      <point x="373" y="388"/>
      <point x="375" y="378" type="curve"/>
      <point x="351" y="359"/>
      <point x="328" y="335"/>
      <point x="310" y="313" type="curve" smooth="yes"/>
      <point x="248" y="236"/>
      <point x="181" y="142"/>
      <point x="150" y="99" type="curve"/>
      <point x="217" y="95"/>
      <point x="325" y="100"/>
      <point x="393" y="111" type="curve"/>
      <point x="381" y="74"/>
      <point x="371" y="30"/>
      <point x="367" y="-5" type="curve"/>
      <point x="264" y="6"/>
      <point x="70" y="2"/>
      <point x="25" y="-2" type="curve"/>
      <point x="21" y="2"/>
      <point x="16" y="17"/>
      <point x="15" y="28" type="curve"/>
      <point x="37" y="42"/>
      <point x="65" y="67"/>
      <point x="84" y="89" type="curve" smooth="yes"/>
      <point x="161" y="182"/>
      <point x="204" y="247"/>
      <point x="248" y="307" type="curve"/>
      <point x="176" y="310"/>
      <point x="102" y="305"/>
      <point x="44" y="295" type="curve"/>
      <point x="51" y="317"/>
      <point x="62" y="377"/>
    </contour>
  </outline>
</glyph>
<glyph name="braceleft" format="1">
  <advance width="287"/>
  <unicode hex="007B"/>
  <outline>
    <contour>
      <point x="247" y="-87" type="curve"/>
      <point x="166" y="-24"/>
      <point x="103" y="7"/>
      <point x="102" y="100" type="curve" smooth="yes"/>
      <point x="101" y="141"/>
      <point x="102" y="151"/>
      <point x="99" y="178" type="curve" smooth="yes"/>
      <point x="93" y="235"/>
      <point x="85" y="263"/>
      <point x="40" y="283" type="curve"/>
      <point x="39" y="293"/>
      <point x="39" y="308"/>
      <point x="43" y="318" type="curve"/>
      <point x="82" y="330"/>
      <point x="99" y="360"/>
      <point x="105" y="420" type="curve" smooth="yes"/>
      <point x="107" y="436"/>
      <point x="108" y="465"/>
      <point x="109" y="485" type="curve" smooth="yes"/>
      <point x="113" y="550"/>
      <point x="178" y="578"/>
      <point x="246" y="622" type="curve"/>
      <point x="253" y="616"/>
      <point x="264" y="592"/>
      <point x="265" y="583" type="curve"/>
      <point x="244" y="562"/>
      <point x="218" y="544"/>
      <point x="210" y="498" type="curve" smooth="yes"/>
      <point x="207" y="481"/>
      <point x="206" y="454"/>
      <point x="199" y="421" type="curve" smooth="yes"/>
      <point x="186" y="360"/>
      <point x="161" y="346"/>
      <point x="97" y="301" type="curve"/>
      <point x="149" y="268"/>
      <point x="183" y="248"/>
      <point x="196" y="163" type="curve"/>
      <point x="203" y="101" type="line"/>
      <point x="214" y="17"/>
      <point x="230" y="-6"/>
      <point x="270" y="-50" type="curve"/>
      <point x="268" y="-66"/>
      <point x="256" y="-81"/>
    </contour>
  </outline>
</glyph>
<glyph name="bar" format="1">
  <advance width="248"/>
  <unicode hex="007C"/>
  <outline>
    <contour>
      <point x="151" y="602" type="curve"/>
      <point x="148" y="376"/>
      <point x="148" y="140"/>
      <point x="149" y="-85" type="curve"/>
      <point x="138" y="-88"/>
      <point x="109" y="-94"/>
      <point x="98" y="-92" type="curve"/>
      <point x="99" y="134"/>
      <point x="101" y="376"/>
      <point x="100" y="601" type="curve"/>
      <point x="109" y="604"/>
      <point x="145" y="604"/>
    </contour>
  </outline>
</glyph>
<glyph name="braceright" format="1">
  <advance width="296"/>
  <unicode hex="007D"/>
  <outline>
    <contour>
      <point x="35" y="590" type="curve"/>
      <point x="37" y="599"/>
      <point x="51" y="619"/>
      <point x="58" y="623" type="curve"/>
      <point x="130" y="575"/>
      <point x="193" y="548"/>
      <point x="193" y="479" type="curve" smooth="yes"/>
      <point x="193" y="459"/>
      <point x="194" y="427"/>
      <point x="197" y="409" type="curve" smooth="yes"/>
      <point x="206" y="361"/>
      <point x="213" y="336"/>
      <point x="256" y="316" type="curve"/>
      <point x="257" y="310"/>
      <point x="257" y="295"/>
      <point x="255" y="285" type="curve"/>
      <point x="214" y="261"/>
      <point x="198" y="228"/>
      <point x="192" y="167" type="curve" smooth="yes"/>
      <point x="191" y="156"/>
      <point x="190" y="119"/>
      <point x="188" y="93" type="curve" smooth="yes"/>
      <point x="183" y="7"/>
      <point x="118" y="-31"/>
      <point x="48" y="-83" type="curve"/>
      <point x="40" y="-79"/>
      <point x="28" y="-62"/>
      <point x="25" y="-54" type="curve"/>
      <point x="48" y="-31"/>
      <point x="74" y="0"/>
      <point x="82" y="50" type="curve" smooth="yes"/>
      <point x="86" y="76"/>
      <point x="92" y="133"/>
      <point x="96" y="158" type="curve" smooth="yes"/>
      <point x="108" y="240"/>
      <point x="149" y="267"/>
      <point x="201" y="300" type="curve"/>
      <point x="132" y="344"/>
      <point x="109" y="355"/>
      <point x="97" y="426" type="curve" smooth="yes"/>
      <point x="93" y="445"/>
      <point x="91" y="474"/>
      <point x="89" y="492" type="curve" smooth="yes"/>
      <point x="83" y="548"/>
      <point x="68" y="560"/>
    </contour>
  </outline>
</glyph>
<glyph name="exclamdown" format="1">
  <advance width="195"/>
  <unicode hex="00A1"/>
  <outline>
    <contour>
      <point x="73" y="220" type="curve"/>
      <point x="116" y="221" type="line"/>
      <point x="123" y="84"/>
      <point x="144" y="-142"/>
      <point x="155" y="-198" type="curve"/>
      <point x="120" y="-199"/>
      <point x="72" y="-201"/>
      <point x="27" y="-208" type="curve"/>
      <point x="43" y="-122"/>
      <point x="67" y="126"/>
    </contour>
    <contour>
      <point x="88" y="290" type="curve" smooth="yes"/>
      <point x="42" y="290"/>
      <point x="33" y="320"/>
      <point x="33" y="335" type="curve" smooth="yes"/>
      <point x="33" y="355"/>
      <point x="53" y="390"/>
      <point x="109" y="390" type="curve" smooth="yes"/>
      <point x="139" y="390"/>
      <point x="163" y="375"/>
      <point x="163" y="345" type="curve" smooth="yes"/>
      <point x="163" y="321"/>
      <point x="135" y="290"/>
    </contour>
  </outline>
</glyph>
<glyph name="cent" format="1">
  <advance width="390"/>
  <unicode hex="00A2"/>
  <outline>
    <contour>
      <point x="197" y="-8" type="curve"/>
      <point x="96" y="-4"/>
      <point x="36" y="70"/>
      <point x="36" y="172" type="curve" smooth="yes"/>
      <point x="36" y="279"/>
      <point x="101" y="377"/>
      <point x="211" y="402" type="curve"/>
      <point x="213" y="432"/>
      <point x="216" y="491"/>
      <point x="216" y="508" type="curve"/>
      <point x="226" y="511"/>
      <point x="254" y="510"/>
      <point x="261" y="509" type="curve"/>
      <point x="260" y="492"/>
      <point x="262" y="432"/>
      <point x="263" y="408" type="curve"/>
      <point x="293" y="408"/>
      <point x="321" y="404"/>
      <point x="352" y="392" type="curve"/>
      <point x="349" y="380"/>
      <point x="344" y="361"/>
      <point x="337" y="354" type="curve"/>
      <point x="323" y="358"/>
      <point x="298" y="362"/>
      <point x="272" y="362" type="curve" smooth="yes"/>
      <point x="237" y="362"/>
      <point x="151" y="337"/>
      <point x="151" y="180" type="curve" smooth="yes"/>
      <point x="151" y="86"/>
      <point x="211" y="46"/>
      <point x="257" y="46" type="curve" smooth="yes"/>
      <point x="289" y="46"/>
      <point x="323" y="50"/>
      <point x="362" y="63" type="curve"/>
      <point x="368" y="54"/>
      <point x="373" y="36"/>
      <point x="375" y="26" type="curve"/>
      <point x="326" y="10"/>
      <point x="291" y="-1"/>
      <point x="250" y="-5" type="curve"/>
      <point x="247" y="-34"/>
      <point x="245" y="-99"/>
      <point x="245" y="-114" type="curve"/>
      <point x="238" y="-117"/>
      <point x="210" y="-118"/>
      <point x="201" y="-115" type="curve"/>
      <point x="201" y="-84"/>
      <point x="198" y="-26"/>
    </contour>
  </outline>
</glyph>
<glyph name="sterling" format="1">
  <advance width="400"/>
  <unicode hex="00A3"/>
  <outline>
    <contour>
      <point x="328" y="560" type="curve"/>
      <point x="325" y="550"/>
      <point x="316" y="533"/>
      <point x="311" y="527" type="curve"/>
      <point x="302" y="532"/>
      <point x="264" y="544"/>
      <point x="238" y="544" type="curve" smooth="yes"/>
      <point x="193" y="544"/>
      <point x="174" y="503"/>
      <point x="175" y="444" type="curve" smooth="yes"/>
      <point x="176" y="409"/>
      <point x="189" y="382"/>
      <point x="199" y="346" type="curve"/>
      <point x="232" y="346"/>
      <point x="277" y="346"/>
      <point x="320" y="349" type="curve"/>
      <point x="320" y="335"/>
      <point x="317" y="316"/>
      <point x="312" y="304" type="curve"/>
      <point x="280" y="305"/>
      <point x="246" y="307"/>
      <point x="208" y="306" type="curve"/>
      <point x="218" y="231"/>
      <point x="177" y="162"/>
      <point x="139" y="101" type="curve"/>
      <point x="218" y="101"/>
      <point x="296" y="101"/>
      <point x="381" y="111" type="curve"/>
      <point x="370" y="81"/>
      <point x="365" y="34"/>
      <point x="361" y="-2" type="curve"/>
      <point x="330" y="2"/>
      <point x="84" y="4"/>
      <point x="16" y="-5" type="curve"/>
      <point x="27" y="25"/>
      <point x="41" y="87"/>
      <point x="42" y="105" type="curve"/>
      <point x="88" y="103"/>
      <point x="79" y="102"/>
      <point x="99" y="102" type="curve"/>
      <point x="140" y="198"/>
      <point x="124" y="251"/>
      <point x="102" y="306" type="curve"/>
      <point x="84" y="306"/>
      <point x="64" y="305"/>
      <point x="48" y="304" type="curve"/>
      <point x="46" y="316"/>
      <point x="47" y="336"/>
      <point x="50" y="347" type="curve"/>
      <point x="67" y="346"/>
      <point x="76" y="345"/>
      <point x="88" y="346" type="curve"/>
      <point x="72" y="386"/>
      <point x="64" y="416"/>
      <point x="64" y="449" type="curve" smooth="yes"/>
      <point x="64" y="525"/>
      <point x="125" y="592"/>
      <point x="224" y="592" type="curve" smooth="yes"/>
      <point x="245" y="592"/>
      <point x="298" y="579"/>
    </contour>
  </outline>
</glyph>
<glyph name="currency" format="1">
  <advance width="416"/>
  <unicode hex="00A4"/>
  <outline>
    <contour>
      <point x="71" y="477" type="curve" smooth="yes"/>
      <point x="71" y="499"/>
      <point x="78" y="517"/>
      <point x="89" y="536" type="curve"/>
      <point x="77" y="551"/>
      <point x="62" y="562"/>
      <point x="47" y="576" type="curve"/>
      <point x="50" y="585"/>
      <point x="72" y="607"/>
      <point x="82" y="612" type="curve"/>
      <point x="97" y="599"/>
      <point x="111" y="585"/>
      <point x="127" y="575" type="curve"/>
      <point x="146" y="586"/>
      <point x="162" y="590"/>
      <point x="186" y="590" type="curve" smooth="yes"/>
      <point x="211" y="590"/>
      <point x="231" y="587"/>
      <point x="250" y="572" type="curve"/>
      <point x="267" y="583"/>
      <point x="280" y="595"/>
      <point x="295" y="610" type="curve"/>
      <point x="304" y="605"/>
      <point x="324" y="586"/>
      <point x="328" y="576" type="curve"/>
      <point x="314" y="561"/>
      <point x="299" y="546"/>
      <point x="286" y="531" type="curve"/>
      <point x="295" y="514"/>
      <point x="299" y="500"/>
      <point x="299" y="477" type="curve" smooth="yes"/>
      <point x="299" y="453"/>
      <point x="293" y="435"/>
      <point x="280" y="417" type="curve"/>
      <point x="291" y="401"/>
      <point x="305" y="390"/>
      <point x="320" y="376" type="curve"/>
      <point x="316" y="367"/>
      <point x="293" y="345"/>
      <point x="283" y="340" type="curve"/>
      <point x="268" y="352"/>
      <point x="253" y="367"/>
      <point x="237" y="377" type="curve"/>
      <point x="221" y="368"/>
      <point x="205" y="363"/>
      <point x="184" y="363" type="curve" smooth="yes"/>
      <point x="159" y="363"/>
      <point x="141" y="369"/>
      <point x="124" y="379" type="curve"/>
      <point x="109" y="367"/>
      <point x="96" y="352"/>
      <point x="82" y="337" type="curve"/>
      <point x="73" y="341"/>
      <point x="51" y="360"/>
      <point x="46" y="370" type="curve"/>
      <point x="59" y="385"/>
      <point x="77" y="400"/>
      <point x="87" y="415" type="curve"/>
      <point x="79" y="432"/>
      <point x="71" y="450"/>
    </contour>
    <contour>
      <point x="121" y="475" type="curve" smooth="yes"/>
      <point x="121" y="439"/>
      <point x="145" y="409"/>
      <point x="184" y="409" type="curve" smooth="yes"/>
      <point x="220" y="409"/>
      <point x="249" y="439"/>
      <point x="249" y="475" type="curve" smooth="yes"/>
      <point x="249" y="514"/>
      <point x="220" y="541"/>
      <point x="184" y="541" type="curve" smooth="yes"/>
      <point x="148" y="541"/>
      <point x="121" y="511"/>
    </contour>
  </outline>
</glyph>
<glyph name="yen" format="1">
  <advance width="506"/>
  <unicode hex="00A5"/>
  <outline>
    <contour>
      <point x="5" y="583" type="curve"/>
      <point x="54" y="579"/>
      <point x="122" y="580"/>
      <point x="163" y="583" type="curve"/>
      <point x="193" y="502"/>
      <point x="233" y="427"/>
      <point x="284" y="355" type="curve"/>
      <point x="345" y="434"/>
      <point x="386" y="502"/>
      <point x="422" y="577" type="curve"/>
      <point x="448" y="579"/>
      <point x="491" y="580"/>
      <point x="527" y="588" type="curve"/>
      <point x="431" y="481"/>
      <point x="391" y="427"/>
      <point x="305" y="304" type="curve"/>
      <point x="357" y="304"/>
      <point x="400" y="305"/>
      <point x="412" y="305" type="curve"/>
      <point x="413" y="294"/>
      <point x="412" y="270"/>
      <point x="407" y="260" type="curve"/>
      <point x="303" y="262" type="line"/>
      <point x="302" y="243"/>
      <point x="302" y="225"/>
      <point x="302" y="208" type="curve"/>
      <point x="355" y="208"/>
      <point x="400" y="208"/>
      <point x="412" y="209" type="curve"/>
      <point x="413" y="198"/>
      <point x="412" y="174"/>
      <point x="407" y="164" type="curve"/>
      <point x="302" y="166" type="line"/>
      <point x="303" y="98"/>
      <point x="305" y="45"/>
      <point x="313" y="-1" type="curve"/>
      <point x="276" y="2"/>
      <point x="212" y="3"/>
      <point x="182" y="-1" type="curve"/>
      <point x="186" y="35"/>
      <point x="189" y="101"/>
      <point x="190" y="166" type="curve"/>
      <point x="145" y="167"/>
      <point x="106" y="167"/>
      <point x="85" y="166" type="curve"/>
      <point x="82" y="175"/>
      <point x="86" y="205"/>
      <point x="89" y="211" type="curve"/>
      <point x="106" y="209"/>
      <point x="145" y="208"/>
      <point x="191" y="208" type="curve"/>
      <point x="191" y="227"/>
      <point x="191" y="246"/>
      <point x="190" y="263" type="curve"/>
      <point x="85" y="263" type="line"/>
      <point x="82" y="271"/>
      <point x="86" y="301"/>
      <point x="89" y="307" type="curve"/>
      <point x="105" y="305"/>
      <point x="143" y="304"/>
      <point x="188" y="304" type="curve"/>
      <point x="147" y="383"/>
      <point x="48" y="533"/>
    </contour>
  </outline>
</glyph>
<glyph name="brokenbar" format="1">
  <advance width="248"/>
  <unicode hex="00A6"/>
  <outline>
    <contour>
      <point x="151" y="603" type="curve"/>
      <point x="148" y="494"/>
      <point x="149" y="404"/>
      <point x="150" y="295" type="curve"/>
      <point x="139" y="294"/>
      <point x="110" y="294"/>
      <point x="99" y="295" type="curve"/>
      <point x="100" y="404"/>
      <point x="101" y="494"/>
      <point x="100" y="603" type="curve"/>
      <point x="109" y="604"/>
      <point x="145" y="603"/>
    </contour>
    <contour>
      <point x="150" y="228" type="curve"/>
      <point x="147" y="119"/>
      <point x="148" y="24"/>
      <point x="149" y="-85" type="curve"/>
      <point x="138" y="-89"/>
      <point x="109" y="-92"/>
      <point x="98" y="-90" type="curve"/>
      <point x="99" y="19"/>
      <point x="100" y="120"/>
      <point x="99" y="228" type="curve"/>
      <point x="108" y="230"/>
      <point x="135" y="230"/>
    </contour>
  </outline>
</glyph>
<glyph name="section" format="1">
  <advance width="409"/>
  <unicode hex="00A7"/>
  <outline>
    <contour>
      <point x="57" y="-267" type="curve"/>
      <point x="55" y="-257"/>
      <point x="58" y="-226"/>
      <point x="63" y="-214" type="curve"/>
      <point x="72" y="-217"/>
      <point x="89" y="-218"/>
      <point x="103" y="-218" type="curve" smooth="yes"/>
      <point x="164" y="-218"/>
      <point x="211" y="-174"/>
      <point x="211" y="-110" type="curve" smooth="yes"/>
      <point x="211" y="-50"/>
      <point x="158" y="12"/>
      <point x="104" y="74" type="curve" smooth="yes"/>
      <point x="51" y="136"/>
      <point x="34" y="181"/>
      <point x="33" y="229" type="curve" smooth="yes"/>
      <point x="33" y="271"/>
      <point x="47" y="318"/>
      <point x="77" y="367" type="curve"/>
      <point x="121" y="443"/>
      <point x="174" y="517"/>
      <point x="245" y="601" type="curve"/>
      <point x="258" y="594"/>
      <point x="276" y="578"/>
      <point x="282" y="569" type="curve"/>
      <point x="232" y="512"/>
      <point x="204" y="466"/>
      <point x="205" y="435" type="curve"/>
      <point x="205" y="388"/>
      <point x="241" y="351"/>
      <point x="273" y="319" type="curve" smooth="yes"/>
      <point x="353" y="238"/>
      <point x="373" y="189"/>
      <point x="373" y="108" type="curve" smooth="yes"/>
      <point x="373" y="64"/>
      <point x="359" y="-3"/>
      <point x="304" y="-104" type="curve" smooth="yes"/>
      <point x="221" y="-258"/>
      <point x="154" y="-271"/>
      <point x="98" y="-271" type="curve" smooth="yes"/>
      <point x="88" y="-271"/>
      <point x="69" y="-270"/>
    </contour>
    <contour>
      <point x="305" y="67" type="curve" smooth="yes"/>
      <point x="305" y="132"/>
      <point x="251" y="187"/>
      <point x="193" y="249" type="curve" smooth="yes"/>
      <point x="163" y="281"/>
      <point x="136" y="316"/>
      <point x="135" y="362" type="curve"/>
      <point x="114" y="328"/>
      <point x="107" y="307"/>
      <point x="107" y="273" type="curve" smooth="yes"/>
      <point x="107" y="230"/>
      <point x="143" y="187"/>
      <point x="183" y="143" type="curve" smooth="yes"/>
      <point x="238" y="83"/>
      <point x="274" y="37"/>
      <point x="282" y="-27" type="curve"/>
      <point x="298" y="6"/>
      <point x="305" y="29"/>
    </contour>
  </outline>
</glyph>
<glyph name="dieresis" format="1">
  <advance width="416"/>
  <unicode hex="00A8"/>
  <outline>
    <contour>
      <point x="142" y="542" type="curve" smooth="yes"/>
      <point x="174" y="542"/>
      <point x="190" y="526"/>
      <point x="190" y="505" type="curve" smooth="yes"/>
      <point x="190" y="477"/>
      <point x="158" y="461"/>
      <point x="126" y="461" type="curve" smooth="yes"/>
      <point x="104" y="461"/>
      <point x="85" y="474"/>
      <point x="85" y="494" type="curve" smooth="yes"/>
      <point x="85" y="519"/>
      <point x="114" y="542"/>
    </contour>
    <contour>
      <point x="297" y="542" type="curve" smooth="yes"/>
      <point x="328" y="542"/>
      <point x="344" y="526"/>
      <point x="344" y="505" type="curve" smooth="yes"/>
      <point x="344" y="477"/>
      <point x="313" y="461"/>
      <point x="280" y="461" type="curve" smooth="yes"/>
      <point x="259" y="461"/>
      <point x="239" y="474"/>
      <point x="239" y="494" type="curve" smooth="yes"/>
      <point x="239" y="519"/>
      <point x="269" y="542"/>
    </contour>
  </outline>
</glyph>
<glyph name="copyright" format="1">
  <advance width="712"/>
  <unicode hex="00A9"/>
  <outline>
    <contour>
      <point x="23" y="269" type="curve" smooth="yes"/>
      <point x="23" y="453"/>
      <point x="172" y="602"/>
      <point x="356" y="602" type="curve" smooth="yes"/>
      <point x="540" y="602"/>
      <point x="689" y="453"/>
      <point x="689" y="269" type="curve" smooth="yes"/>
      <point x="689" y="85"/>
      <point x="540" y="-64"/>
      <point x="356" y="-64" type="curve" smooth="yes"/>
      <point x="172" y="-64"/>
      <point x="23" y="85"/>
    </contour>
    <contour>
      <point x="67" y="268" type="curve" smooth="yes"/>
      <point x="67" y="110"/>
      <point x="198" y="-24"/>
      <point x="356" y="-24" type="curve" smooth="yes"/>
      <point x="522" y="-24"/>
      <point x="648" y="110"/>
      <point x="648" y="268" type="curve" smooth="yes"/>
      <point x="648" y="429"/>
      <point x="517" y="563"/>
      <point x="356" y="563" type="curve" smooth="yes"/>
      <point x="198" y="563"/>
      <point x="67" y="429"/>
    </contour>
    <contour>
      <point x="348" y="37" type="curve"/>
      <point x="205" y="40"/>
      <point x="149" y="143"/>
      <point x="149" y="236" type="curve" smooth="yes"/>
      <point x="149" y="363"/>
      <point x="239" y="504"/>
      <point x="407" y="504" type="curve" smooth="yes"/>
      <point x="429" y="504"/>
      <point x="469" y="492"/>
      <point x="494" y="475" type="curve" smooth="yes"/>
      <point x="494" y="474"/>
      <point x="482" y="437"/>
      <point x="478" y="437" type="curve"/>
      <point x="458" y="446"/>
      <point x="428" y="453"/>
      <point x="402" y="453" type="curve" smooth="yes"/>
      <point x="303" y="453"/>
      <point x="252" y="358"/>
      <point x="252" y="239" type="curve" smooth="yes"/>
      <point x="252" y="153"/>
      <point x="294" y="99"/>
      <point x="367" y="97" type="curve" smooth="yes"/>
      <point x="402" y="96"/>
      <point x="450" y="106"/>
      <point x="496" y="129" type="curve"/>
      <point x="501" y="125"/>
      <point x="509" y="101"/>
      <point x="511" y="90" type="curve"/>
      <point x="469" y="67"/>
      <point x="400" y="37"/>
    </contour>
  </outline>
</glyph>
<glyph name="ordfeminine" format="1">
  <advance width="395"/>
  <unicode hex="00AA"/>
  <outline>
    <contour>
      <point x="59" y="565" type="curve"/>
      <point x="115" y="583"/>
      <point x="176" y="592"/>
      <point x="216" y="592" type="curve" smooth="yes"/>
      <point x="263" y="592"/>
      <point x="340" y="581"/>
      <point x="338" y="514" type="curve" smooth="yes"/>
      <point x="337" y="468"/>
      <point x="336" y="347"/>
      <point x="339" y="298" type="curve" smooth="yes"/>
      <point x="340" y="284"/>
      <point x="340" y="259"/>
      <point x="345" y="238" type="curve"/>
      <point x="314" y="241"/>
      <point x="267" y="241"/>
      <point x="235" y="236" type="curve"/>
      <point x="233" y="246"/>
      <point x="233" y="263"/>
      <point x="233" y="271" type="curve"/>
      <point x="191" y="250"/>
      <point x="135" y="231"/>
      <point x="110" y="231" type="curve" smooth="yes"/>
      <point x="77" y="231"/>
      <point x="57" y="237"/>
      <point x="41" y="269" type="curve" smooth="yes"/>
      <point x="32" y="287"/>
      <point x="29" y="315"/>
      <point x="32" y="340" type="curve" smooth="yes"/>
      <point x="37" y="388"/>
      <point x="100" y="419"/>
      <point x="137" y="428" type="curve" smooth="yes"/>
      <point x="166" y="435"/>
      <point x="196" y="442"/>
      <point x="233" y="447" type="curve"/>
      <point x="236" y="467"/>
      <point x="236" y="494"/>
      <point x="233" y="511" type="curve" smooth="yes"/>
      <point x="228" y="541"/>
      <point x="194" y="540"/>
      <point x="159" y="540" type="curve" smooth="yes"/>
      <point x="136" y="540"/>
      <point x="88" y="532"/>
      <point x="67" y="526" type="curve"/>
      <point x="64" y="531"/>
      <point x="59" y="553"/>
    </contour>
    <contour>
      <point x="182" y="300" type="curve" smooth="yes"/>
      <point x="196" y="301"/>
      <point x="211" y="304"/>
      <point x="233" y="311" type="curve"/>
      <point x="232" y="345"/>
      <point x="233" y="375"/>
      <point x="233" y="404" type="curve"/>
      <point x="213" y="402"/>
      <point x="190" y="396"/>
      <point x="181" y="392" type="curve" smooth="yes"/>
      <point x="150" y="381"/>
      <point x="134" y="361"/>
      <point x="138" y="327" type="curve" smooth="yes"/>
      <point x="141" y="300"/>
      <point x="159" y="297"/>
    </contour>
  </outline>
</glyph>
<glyph name="guillemotleft" format="1">
  <advance width="359"/>
  <unicode hex="00AB"/>
  <outline>
    <contour>
      <point x="176" y="62" type="curve"/>
      <point x="172" y="57"/>
      <point x="148" y="48"/>
      <point x="135" y="47" type="curve"/>
      <point x="112" y="91"/>
      <point x="76" y="144"/>
      <point x="33" y="199" type="curve"/>
      <point x="66" y="241"/>
      <point x="114" y="310"/>
      <point x="139" y="355" type="curve"/>
      <point x="147" y="355"/>
      <point x="174" y="347"/>
      <point x="180" y="340" type="curve"/>
      <point x="159" y="288"/>
      <point x="146" y="244"/>
      <point x="134" y="200" type="curve"/>
      <point x="144" y="157"/>
      <point x="154" y="117"/>
    </contour>
    <contour>
      <point x="315" y="62" type="curve"/>
      <point x="311" y="57"/>
      <point x="287" y="48"/>
      <point x="274" y="47" type="curve"/>
      <point x="251" y="91"/>
      <point x="215" y="144"/>
      <point x="172" y="199" type="curve"/>
      <point x="205" y="241"/>
      <point x="253" y="310"/>
      <point x="278" y="355" type="curve"/>
      <point x="286" y="355"/>
      <point x="313" y="347"/>
      <point x="319" y="340" type="curve"/>
      <point x="298" y="288"/>
      <point x="285" y="244"/>
      <point x="273" y="200" type="curve"/>
      <point x="283" y="157"/>
      <point x="293" y="117"/>
    </contour>
  </outline>
</glyph>
<glyph name="logicalnot" format="1">
  <advance width="416"/>
  <unicode hex="00AC"/>
  <outline>
    <contour>
      <point x="38" y="282" type="curve"/>
      <point x="139" y="279"/>
      <point x="280" y="280"/>
      <point x="355" y="281" type="curve"/>
      <point x="353" y="229"/>
      <point x="353" y="174"/>
      <point x="354" y="124" type="curve"/>
      <point x="343" y="120"/>
      <point x="318" y="120"/>
      <point x="306" y="120" type="curve"/>
      <point x="307" y="160"/>
      <point x="308" y="195"/>
      <point x="308" y="233" type="curve"/>
      <point x="220" y="235"/>
      <point x="149" y="236"/>
      <point x="35" y="235" type="curve"/>
      <point x="32" y="243"/>
      <point x="36" y="276"/>
    </contour>
  </outline>
</glyph>
<glyph name="registered" format="1">
  <advance width="712"/>
  <unicode hex="00AE"/>
  <outline>
    <contour>
      <point x="23" y="269" type="curve" smooth="yes"/>
      <point x="23" y="453"/>
      <point x="172" y="602"/>
      <point x="356" y="602" type="curve" smooth="yes"/>
      <point x="540" y="602"/>
      <point x="689" y="453"/>
      <point x="689" y="269" type="curve" smooth="yes"/>
      <point x="689" y="85"/>
      <point x="540" y="-64"/>
      <point x="356" y="-64" type="curve" smooth="yes"/>
      <point x="172" y="-64"/>
      <point x="23" y="85"/>
    </contour>
    <contour>
      <point x="67" y="268" type="curve" smooth="yes"/>
      <point x="67" y="110"/>
      <point x="198" y="-24"/>
      <point x="356" y="-24" type="curve" smooth="yes"/>
      <point x="429" y="-24"/>
      <point x="495" y="3"/>
      <point x="546" y="47" type="curve"/>
      <point x="514" y="48"/>
      <point x="457" y="51"/>
      <point x="439" y="44" type="curve"/>
      <point x="411" y="117"/>
      <point x="360" y="233"/>
      <point x="317" y="305" type="curve"/>
      <point x="320" y="313"/>
      <point x="328" y="321"/>
      <point x="334" y="327" type="curve"/>
      <point x="402" y="333"/>
      <point x="427" y="364"/>
      <point x="427" y="403" type="curve" smooth="yes"/>
      <point x="427" y="440"/>
      <point x="389" y="447"/>
      <point x="340" y="448" type="curve"/>
      <point x="300" y="448" type="line"/>
      <point x="294" y="373"/>
      <point x="296" y="191"/>
      <point x="302" y="48" type="curve"/>
      <point x="279" y="51"/>
      <point x="218" y="52"/>
      <point x="195" y="42" type="curve"/>
      <point x="207" y="128"/>
      <point x="202" y="436"/>
      <point x="198" y="492" type="curve"/>
      <point x="218" y="489"/>
      <point x="316" y="491"/>
      <point x="342" y="491" type="curve" smooth="yes"/>
      <point x="402" y="491"/>
      <point x="531" y="494"/>
      <point x="531" y="414" type="curve"/>
      <point x="530" y="377"/>
      <point x="500" y="334"/>
      <point x="419" y="312" type="curve"/>
      <point x="452" y="236"/>
      <point x="493" y="151"/>
      <point x="559" y="59" type="curve"/>
      <point x="614" y="112"/>
      <point x="648" y="187"/>
      <point x="648" y="268" type="curve" smooth="yes"/>
      <point x="648" y="429"/>
      <point x="517" y="563"/>
      <point x="356" y="563" type="curve" smooth="yes"/>
      <point x="198" y="563"/>
      <point x="67" y="429"/>
    </contour>
  </outline>
</glyph>
<glyph name="macron" format="1">
  <advance width="416"/>
  <unicode hex="00AF"/>
  <outline>
    <contour>
      <point x="92" y="520" type="curve"/>
      <point x="193" y="517"/>
      <point x="250" y="517"/>
      <point x="325" y="518" type="curve"/>
      <point x="325" y="507"/>
      <point x="324" y="482"/>
      <point x="319" y="472" type="curve"/>
      <point x="222" y="474"/>
      <point x="214" y="475"/>
      <point x="89" y="474" type="curve"/>
      <point x="86" y="483"/>
      <point x="90" y="514"/>
    </contour>
  </outline>
</glyph>
<glyph name="degree" format="1">
  <advance width="329"/>
  <unicode hex="00B0"/>
  <outline>
    <contour>
      <point x="45" y="477" type="curve" smooth="yes"/>
      <point x="45" y="539"/>
      <point x="102" y="597"/>
      <point x="165" y="597" type="curve" smooth="yes"/>
      <point x="231" y="597"/>
      <point x="284" y="553"/>
      <point x="284" y="477" type="curve" smooth="yes"/>
      <point x="284" y="414"/>
      <point x="227" y="358"/>
      <point x="164" y="358" type="curve" smooth="yes"/>
      <point x="98" y="358"/>
      <point x="45" y="403"/>
    </contour>
    <contour>
      <point x="95" y="476" type="curve" smooth="yes"/>
      <point x="95" y="437"/>
      <point x="122" y="406"/>
      <point x="164" y="406" type="curve" smooth="yes"/>
      <point x="202" y="406"/>
      <point x="233" y="437"/>
      <point x="233" y="476" type="curve" smooth="yes"/>
      <point x="233" y="518"/>
      <point x="202" y="547"/>
      <point x="164" y="547" type="curve" smooth="yes"/>
      <point x="125" y="547"/>
      <point x="95" y="516"/>
    </contour>
  </outline>
</glyph>
<glyph name="plusminus" format="1">
  <advance width="416"/>
  <unicode hex="00B1"/>
  <outline>
    <contour>
      <point x="38" y="77" type="curve"/>
      <point x="82" y="75"/>
      <point x="122" y="75"/>
      <point x="172" y="74" type="curve"/>
      <point x="173" y="117"/>
      <point x="174" y="148"/>
      <point x="174" y="191" type="curve"/>
      <point x="128" y="192"/>
      <point x="90" y="192"/>
      <point x="35" y="191" type="curve"/>
      <point x="32" y="200"/>
      <point x="36" y="233"/>
      <point x="38" y="238" type="curve"/>
      <point x="82" y="237"/>
      <point x="124" y="236"/>
      <point x="174" y="236" type="curve"/>
      <point x="174" y="365" type="line"/>
      <point x="182" y="367"/>
      <point x="218" y="367"/>
      <point x="223" y="366" type="curve"/>
      <point x="222" y="317"/>
      <point x="222" y="286"/>
      <point x="222" y="236" type="curve"/>
      <point x="274" y="235"/>
      <point x="319" y="235"/>
      <point x="354" y="237" type="curve"/>
      <point x="355" y="226"/>
      <point x="353" y="199"/>
      <point x="348" y="189" type="curve"/>
      <point x="303" y="191"/>
      <point x="268" y="191"/>
      <point x="222" y="191" type="curve"/>
      <point x="222" y="74" type="line"/>
      <point x="275" y="74"/>
      <point x="319" y="74"/>
      <point x="354" y="75" type="curve"/>
      <point x="355" y="65"/>
      <point x="353" y="37"/>
      <point x="348" y="27" type="curve"/>
      <point x="251" y="29"/>
      <point x="160" y="30"/>
      <point x="35" y="29" type="curve"/>
      <point x="32" y="37"/>
      <point x="36" y="71"/>
    </contour>
  </outline>
</glyph>
<glyph name="twosuperior" format="1">
  <advance width="285"/>
  <unicode hex="00B2"/>
  <outline>
    <contour>
      <point x="34" y="553" type="curve"/>
      <point x="65" y="571"/>
      <point x="123" y="591"/>
      <point x="167" y="591" type="curve" smooth="yes"/>
      <point x="230" y="591"/>
      <point x="242" y="550"/>
      <point x="242" y="518" type="curve" smooth="yes"/>
      <point x="242" y="450"/>
      <point x="171" y="368"/>
      <point x="118" y="315" type="curve"/>
      <point x="150" y="309"/>
      <point x="256" y="313"/>
      <point x="265" y="315" type="curve"/>
      <point x="256" y="293"/>
      <point x="246" y="258"/>
      <point x="241" y="235" type="curve"/>
      <point x="201" y="239"/>
      <point x="99" y="242"/>
      <point x="33" y="237" type="curve"/>
      <point x="29" y="243"/>
      <point x="25" y="254"/>
      <point x="25" y="262" type="curve"/>
      <point x="94" y="334"/>
      <point x="149" y="415"/>
      <point x="149" y="495" type="curve" smooth="yes"/>
      <point x="149" y="521"/>
      <point x="136" y="533"/>
      <point x="113" y="533" type="curve" smooth="yes"/>
      <point x="94" y="533"/>
      <point x="66" y="527"/>
      <point x="45" y="520" type="curve"/>
      <point x="40" y="527"/>
      <point x="35" y="546"/>
    </contour>
  </outline>
</glyph>
<glyph name="threesuperior" format="1">
  <advance width="260"/>
  <unicode hex="00B3"/>
  <outline>
    <contour>
      <point x="156" y="450" type="curve"/>
      <point x="157" y="447" type="line"/>
      <point x="211" y="445"/>
      <point x="247" y="419"/>
      <point x="247" y="367" type="curve" smooth="yes"/>
      <point x="247" y="263"/>
      <point x="108" y="212"/>
      <point x="26" y="221" type="curve"/>
      <point x="26" y="230"/>
      <point x="29" y="255"/>
      <point x="31" y="261" type="curve"/>
      <point x="97" y="261"/>
      <point x="151" y="286"/>
      <point x="151" y="365" type="curve" smooth="yes"/>
      <point x="151" y="409"/>
      <point x="126" y="417"/>
      <point x="83" y="411" type="curve"/>
      <point x="77" y="418"/>
      <point x="74" y="436"/>
      <point x="74" y="446" type="curve"/>
      <point x="101" y="454"/>
      <point x="134" y="469"/>
      <point x="134" y="512" type="curve" smooth="yes"/>
      <point x="134" y="538"/>
      <point x="114" y="543"/>
      <point x="97" y="543" type="curve" smooth="yes"/>
      <point x="75" y="543"/>
      <point x="58" y="539"/>
      <point x="44" y="536" type="curve"/>
      <point x="40" y="543"/>
      <point x="35" y="560"/>
      <point x="35" y="569" type="curve"/>
      <point x="50" y="576"/>
      <point x="111" y="593"/>
      <point x="139" y="593" type="curve" smooth="yes"/>
      <point x="198" y="593"/>
      <point x="219" y="562"/>
      <point x="219" y="531" type="curve" smooth="yes"/>
      <point x="219" y="506"/>
      <point x="203" y="471"/>
    </contour>
  </outline>
</glyph>
<glyph name="acute" format="1">
  <advance width="416"/>
  <unicode hex="00B4"/>
  <outline>
    <contour>
      <point x="315" y="597" type="curve"/>
      <point x="319" y="576"/>
      <point x="336" y="533"/>
      <point x="352" y="504" type="curve"/>
      <point x="283" y="493"/>
      <point x="229" y="480"/>
      <point x="160" y="461" type="curve"/>
      <point x="154" y="469"/>
      <point x="146" y="486"/>
      <point x="146" y="494" type="curve"/>
      <point x="205" y="524"/>
      <point x="275" y="566"/>
    </contour>
  </outline>
</glyph>
<glyph name="mu" format="1">
  <advance width="476"/>
  <unicode hex="00B5"/>
  <unicode hex="03bc"/>
  <outline>
    <contour>
      <point x="173" y="410" type="curve"/>
      <point x="164" y="339"/>
      <point x="160" y="268"/>
      <point x="161" y="195" type="curve" smooth="yes"/>
      <point x="163" y="84"/>
      <point x="181" y="65"/>
      <point x="228" y="65" type="curve" smooth="yes"/>
      <point x="258" y="65"/>
      <point x="293" y="72"/>
      <point x="331" y="83" type="curve"/>
      <point x="335" y="122"/>
      <point x="335" y="325"/>
      <point x="325" y="396" type="curve"/>
      <point x="344" y="396"/>
      <point x="424" y="404"/>
      <point x="452" y="410" type="curve"/>
      <point x="439" y="318"/>
      <point x="442" y="43"/>
      <point x="456" y="3" type="curve"/>
      <point x="426" y="3"/>
      <point x="367" y="0"/>
      <point x="334" y="-5" type="curve"/>
      <point x="331" y="11"/>
      <point x="332" y="22"/>
      <point x="332" y="37" type="curve"/>
      <point x="283" y="15"/>
      <point x="230" y="-7"/>
      <point x="164" y="-7" type="curve" smooth="yes"/>
      <point x="136" y="-7"/>
      <point x="114" y="-1"/>
      <point x="97" y="11" type="curve"/>
      <point x="104" y="-98"/>
      <point x="127" y="-225"/>
      <point x="136" y="-265" type="curve"/>
      <point x="101" y="-265"/>
      <point x="52" y="-267"/>
      <point x="7" y="-275" type="curve"/>
      <point x="24" y="-191"/>
      <point x="47" y="44"/>
      <point x="50" y="159" type="curve" smooth="yes"/>
      <point x="52" y="266"/>
      <point x="50" y="365"/>
      <point x="45" y="399" type="curve"/>
      <point x="77" y="400"/>
      <point x="148" y="404"/>
    </contour>
  </outline>
</glyph>
<glyph name="paragraph" format="1">
  <advance width="543"/>
  <unicode hex="00B6"/>
  <outline>
    <contour>
      <point x="226" y="336" type="curve"/>
      <point x="231" y="330"/>
      <point x="231" y="306"/>
      <point x="232" y="296" type="curve"/>
      <point x="200" y="287"/>
      <point x="169" y="283"/>
      <point x="150" y="283" type="curve" smooth="yes"/>
      <point x="60" y="283"/>
      <point x="25" y="330"/>
      <point x="25" y="395" type="curve" smooth="yes"/>
      <point x="25" y="457"/>
      <point x="96" y="585"/>
      <point x="318" y="584" type="curve" smooth="yes"/>
      <point x="351" y="584"/>
      <point x="426" y="584"/>
      <point x="494" y="578" type="curve"/>
      <point x="478" y="509"/>
      <point x="479" y="146"/>
      <point x="484" y="-2" type="curve"/>
      <point x="458" y="1"/>
      <point x="391" y="3"/>
      <point x="367" y="0" type="curve"/>
      <point x="374" y="123"/>
      <point x="375" y="374"/>
      <point x="373" y="537" type="curve"/>
      <point x="357" y="539"/>
      <point x="345" y="538"/>
      <point x="329" y="538" type="curve"/>
      <point x="324" y="339"/>
      <point x="322" y="103"/>
      <point x="324" y="-2" type="curve"/>
      <point x="298" y="2"/>
      <point x="297" y="2"/>
      <point x="271" y="-1" type="curve"/>
      <point x="280" y="205"/>
      <point x="283" y="351"/>
      <point x="277" y="538" type="curve"/>
      <point x="179" y="536"/>
      <point x="141" y="476"/>
      <point x="141" y="397" type="curve" smooth="yes"/>
      <point x="141" y="360"/>
      <point x="163" y="333"/>
      <point x="184" y="333" type="curve" smooth="yes"/>
      <point x="199" y="333"/>
      <point x="211" y="333"/>
    </contour>
  </outline>
</glyph>
<glyph name="periodcentered" format="1">
  <advance width="176"/>
  <unicode hex="00B7"/>
  <outline>
    <contour>
      <point x="98" y="342" type="curve" smooth="yes"/>
      <point x="144" y="342"/>
      <point x="153" y="311"/>
      <point x="153" y="296" type="curve" smooth="yes"/>
      <point x="153" y="276"/>
      <point x="133" y="241"/>
      <point x="77" y="241" type="curve" smooth="yes"/>
      <point x="47" y="241"/>
      <point x="23" y="256"/>
      <point x="23" y="287" type="curve" smooth="yes"/>
      <point x="23" y="310"/>
      <point x="51" y="342"/>
    </contour>
  </outline>
</glyph>
<glyph name="cedilla" format="1">
  <advance width="416"/>
  <unicode hex="00B8"/>
  <outline>
    <contour>
      <point x="121" y="-117" type="curve"/>
      <point x="138" y="-88"/>
      <point x="166" y="-21"/>
      <point x="179" y="12" type="curve"/>
      <point x="224" y="2" type="line"/>
      <point x="214" y="-19"/>
      <point x="208" y="-35"/>
      <point x="200" y="-58" type="curve"/>
      <point x="227" y="-74"/>
      <point x="248" y="-89"/>
      <point x="248" y="-138" type="curve" smooth="yes"/>
      <point x="248" y="-158"/>
      <point x="219" y="-218"/>
      <point x="176" y="-266" type="curve"/>
      <point x="165" y="-264"/>
      <point x="150" y="-255"/>
      <point x="141" y="-248" type="curve"/>
      <point x="159" y="-221"/>
      <point x="168" y="-198"/>
      <point x="168" y="-170" type="curve" smooth="yes"/>
      <point x="168" y="-154"/>
      <point x="153" y="-136"/>
    </contour>
  </outline>
</glyph>
<glyph name="onesuperior" format="1">
  <advance width="258"/>
  <unicode hex="00B9"/>
  <outline>
    <contour>
      <point x="190" y="591" type="curve"/>
      <point x="208" y="584" type="line"/>
      <point x="200" y="537"/>
      <point x="204" y="296"/>
      <point x="208" y="233" type="curve"/>
      <point x="192" y="236"/>
      <point x="117" y="236"/>
      <point x="98" y="234" type="curve"/>
      <point x="108" y="290"/>
      <point x="111" y="467"/>
      <point x="105" y="516" type="curve"/>
      <point x="77" y="514"/>
      <point x="61" y="511"/>
      <point x="34" y="505" type="curve"/>
      <point x="32" y="508"/>
      <point x="27" y="527"/>
      <point x="26" y="537" type="curve"/>
      <point x="82" y="550"/>
      <point x="153" y="577"/>
    </contour>
  </outline>
</glyph>
<glyph name="ordmasculine" format="1">
  <advance width="435"/>
  <unicode hex="00BA"/>
  <outline>
    <contour>
      <point x="229" y="593" type="curve" smooth="yes"/>
      <point x="338" y="593"/>
      <point x="400" y="525"/>
      <point x="400" y="421" type="curve" smooth="yes"/>
      <point x="400" y="349"/>
      <point x="364" y="295"/>
      <point x="327" y="268" type="curve" smooth="yes"/>
      <point x="295" y="245"/>
      <point x="231" y="228"/>
      <point x="198" y="228" type="curve" smooth="yes"/>
      <point x="72" y="228"/>
      <point x="35" y="332"/>
      <point x="36" y="394" type="curve"/>
      <point x="36" y="457"/>
      <point x="66" y="520"/>
      <point x="107" y="550" type="curve" smooth="yes"/>
      <point x="130" y="568"/>
      <point x="198" y="593"/>
    </contour>
    <contour>
      <point x="206" y="537" type="curve" smooth="yes"/>
      <point x="177" y="537"/>
      <point x="142" y="495"/>
      <point x="142" y="402" type="curve" smooth="yes"/>
      <point x="142" y="327"/>
      <point x="174" y="287"/>
      <point x="226" y="287" type="curve" smooth="yes"/>
      <point x="268" y="287"/>
      <point x="295" y="341"/>
      <point x="293" y="419" type="curve" smooth="yes"/>
      <point x="290" y="509"/>
      <point x="249" y="537"/>
    </contour>
  </outline>
</glyph>
<glyph name="guillemotright" format="1">
  <advance width="359"/>
  <unicode hex="00BB"/>
  <outline>
    <contour>
      <point x="44" y="340" type="curve"/>
      <point x="48" y="345"/>
      <point x="72" y="354"/>
      <point x="85" y="355" type="curve"/>
      <point x="108" y="311"/>
      <point x="144" y="258"/>
      <point x="187" y="203" type="curve"/>
      <point x="154" y="161"/>
      <point x="106" y="92"/>
      <point x="81" y="47" type="curve"/>
      <point x="73" y="47"/>
      <point x="46" y="55"/>
      <point x="40" y="62" type="curve"/>
      <point x="61" y="114"/>
      <point x="74" y="158"/>
      <point x="86" y="202" type="curve"/>
      <point x="76" y="245"/>
      <point x="66" y="285"/>
    </contour>
    <contour>
      <point x="183" y="340" type="curve"/>
      <point x="187" y="345"/>
      <point x="211" y="354"/>
      <point x="224" y="355" type="curve"/>
      <point x="247" y="311"/>
      <point x="283" y="258"/>
      <point x="326" y="203" type="curve"/>
      <point x="293" y="161"/>
      <point x="245" y="92"/>
      <point x="220" y="47" type="curve"/>
      <point x="212" y="47"/>
      <point x="185" y="55"/>
      <point x="179" y="62" type="curve"/>
      <point x="200" y="114"/>
      <point x="213" y="158"/>
      <point x="225" y="202" type="curve"/>
      <point x="215" y="245"/>
      <point x="205" y="285"/>
    </contour>
  </outline>
</glyph>
<glyph name="onequarter" format="1">
  <advance width="650"/>
  <unicode hex="00BC"/>
  <outline>
    <contour>
      <point x="486" y="-1" type="curve"/>
      <point x="492" y="27"/>
      <point x="494" y="44"/>
      <point x="493" y="87" type="curve"/>
      <point x="491" y="87"/>
      <point x="388" y="88"/>
      <point x="354" y="87" type="curve"/>
      <point x="350" y="89"/>
      <point x="340" y="116"/>
      <point x="340" y="125" type="curve"/>
      <point x="392" y="189"/>
      <point x="493" y="332"/>
      <point x="526" y="382" type="curve"/>
      <point x="529" y="380"/>
      <point x="555" y="363"/>
      <point x="559" y="356" type="curve"/>
      <point x="511" y="293"/>
      <point x="442" y="192"/>
      <point x="401" y="127" type="curve"/>
      <point x="440" y="126"/>
      <point x="462" y="127"/>
      <point x="493" y="126" type="curve"/>
      <point x="494" y="143"/>
      <point x="494" y="161"/>
      <point x="497" y="207" type="curve"/>
      <point x="519" y="213"/>
      <point x="571" y="233"/>
      <point x="586" y="246" type="curve"/>
      <point x="583" y="206"/>
      <point x="581" y="186"/>
      <point x="581" y="127" type="curve"/>
      <point x="607" y="127" type="line"/>
      <point x="608" y="118"/>
      <point x="608" y="94"/>
      <point x="606" y="86" type="curve"/>
      <point x="592" y="86"/>
      <point x="587" y="87"/>
      <point x="581" y="86" type="curve"/>
      <point x="581" y="66"/>
      <point x="583" y="30"/>
      <point x="588" y="0" type="curve"/>
      <point x="573" y="2"/>
      <point x="504" y="2"/>
    </contour>
    <contour>
      <point x="190" y="591" type="curve"/>
      <point x="208" y="584" type="line"/>
      <point x="200" y="537"/>
      <point x="204" y="296"/>
      <point x="208" y="233" type="curve"/>
      <point x="192" y="236"/>
      <point x="117" y="236"/>
      <point x="98" y="234" type="curve"/>
      <point x="108" y="290"/>
      <point x="111" y="467"/>
      <point x="105" y="516" type="curve"/>
      <point x="77" y="514"/>
      <point x="61" y="511"/>
      <point x="34" y="505" type="curve"/>
      <point x="32" y="508"/>
      <point x="27" y="527"/>
      <point x="26" y="537" type="curve"/>
      <point x="82" y="550"/>
      <point x="153" y="577"/>
    </contour>
    <contour>
      <point x="549" y="582" type="curve"/>
      <point x="400" y="382"/>
      <point x="256" y="180"/>
      <point x="118" y="-20" type="curve"/>
      <point x="107" y="-17"/>
      <point x="88" y="-4"/>
      <point x="79" y="5" type="curve"/>
      <point x="227" y="206"/>
      <point x="371" y="407"/>
      <point x="510" y="608" type="curve"/>
      <point x="520" y="606"/>
      <point x="545" y="588"/>
    </contour>
  </outline>
</glyph>
<glyph name="onehalf" format="1">
  <advance width="585"/>
  <unicode hex="00BD"/>
  <outline>
    <contour>
      <point x="412" y="313" type="curve"/>
      <point x="443" y="331"/>
      <point x="502" y="351"/>
      <point x="546" y="351" type="curve" smooth="yes"/>
      <point x="609" y="351"/>
      <point x="621" y="310"/>
      <point x="621" y="278" type="curve" smooth="yes"/>
      <point x="621" y="211"/>
      <point x="549" y="129"/>
      <point x="496" y="75" type="curve"/>
      <point x="529" y="69"/>
      <point x="635" y="73"/>
      <point x="644" y="75" type="curve"/>
      <point x="634" y="53"/>
      <point x="624" y="18"/>
      <point x="620" y="-5" type="curve"/>
      <point x="580" y="0"/>
      <point x="478" y="2"/>
      <point x="412" y="-2" type="curve"/>
      <point x="408" y="4"/>
      <point x="404" y="14"/>
      <point x="403" y="22" type="curve"/>
      <point x="473" y="94"/>
      <point x="528" y="175"/>
      <point x="528" y="255" type="curve" smooth="yes"/>
      <point x="528" y="282"/>
      <point x="514" y="294"/>
      <point x="491" y="294" type="curve" smooth="yes"/>
      <point x="472" y="294"/>
      <point x="445" y="287"/>
      <point x="424" y="280" type="curve"/>
      <point x="418" y="287"/>
      <point x="413" y="306"/>
    </contour>
    <contour>
      <point x="190" y="591" type="curve"/>
      <point x="208" y="584" type="line"/>
      <point x="200" y="537"/>
      <point x="204" y="296"/>
      <point x="208" y="233" type="curve"/>
      <point x="192" y="236"/>
      <point x="117" y="236"/>
      <point x="98" y="234" type="curve"/>
      <point x="108" y="290"/>
      <point x="111" y="467"/>
      <point x="105" y="516" type="curve"/>
      <point x="77" y="514"/>
      <point x="61" y="511"/>
      <point x="34" y="505" type="curve"/>
      <point x="32" y="508"/>
      <point x="27" y="527"/>
      <point x="26" y="537" type="curve"/>
      <point x="82" y="550"/>
      <point x="153" y="577"/>
    </contour>
    <contour>
      <point x="549" y="582" type="curve"/>
      <point x="400" y="382"/>
      <point x="256" y="180"/>
      <point x="118" y="-20" type="curve"/>
      <point x="107" y="-17"/>
      <point x="88" y="-4"/>
      <point x="79" y="5" type="curve"/>
      <point x="227" y="206"/>
      <point x="371" y="407"/>
      <point x="510" y="608" type="curve"/>
      <point x="520" y="606"/>
      <point x="545" y="588"/>
    </contour>
  </outline>
</glyph>
<glyph name="threequarters" format="1">
  <advance width="670"/>
  <unicode hex="00BE"/>
  <outline>
    <contour>
      <point x="156" y="450" type="curve"/>
      <point x="157" y="447" type="line"/>
      <point x="211" y="445"/>
      <point x="247" y="419"/>
      <point x="247" y="367" type="curve" smooth="yes"/>
      <point x="247" y="263"/>
      <point x="108" y="212"/>
      <point x="26" y="221" type="curve"/>
      <point x="26" y="230"/>
      <point x="29" y="255"/>
      <point x="31" y="261" type="curve"/>
      <point x="97" y="261"/>
      <point x="151" y="286"/>
      <point x="151" y="365" type="curve" smooth="yes"/>
      <point x="151" y="409"/>
      <point x="126" y="417"/>
      <point x="83" y="411" type="curve"/>
      <point x="77" y="418"/>
      <point x="74" y="436"/>
      <point x="74" y="446" type="curve"/>
      <point x="101" y="454"/>
      <point x="134" y="469"/>
      <point x="134" y="512" type="curve" smooth="yes"/>
      <point x="134" y="538"/>
      <point x="114" y="543"/>
      <point x="97" y="543" type="curve" smooth="yes"/>
      <point x="75" y="543"/>
      <point x="58" y="539"/>
      <point x="44" y="536" type="curve"/>
      <point x="40" y="543"/>
      <point x="35" y="560"/>
      <point x="35" y="569" type="curve"/>
      <point x="50" y="576"/>
      <point x="111" y="593"/>
      <point x="139" y="593" type="curve" smooth="yes"/>
      <point x="198" y="593"/>
      <point x="219" y="562"/>
      <point x="219" y="531" type="curve" smooth="yes"/>
      <point x="219" y="506"/>
      <point x="203" y="471"/>
    </contour>
    <contour>
      <point x="507" y="-1" type="curve"/>
      <point x="513" y="27"/>
      <point x="514" y="44"/>
      <point x="514" y="87" type="curve"/>
      <point x="512" y="87"/>
      <point x="409" y="88"/>
      <point x="375" y="87" type="curve"/>
      <point x="370" y="89"/>
      <point x="361" y="116"/>
      <point x="360" y="125" type="curve"/>
      <point x="413" y="189"/>
      <point x="514" y="332"/>
      <point x="547" y="382" type="curve"/>
      <point x="550" y="380"/>
      <point x="576" y="363"/>
      <point x="580" y="356" type="curve"/>
      <point x="532" y="293"/>
      <point x="462" y="192"/>
      <point x="422" y="127" type="curve"/>
      <point x="461" y="126"/>
      <point x="483" y="127"/>
      <point x="514" y="126" type="curve"/>
      <point x="514" y="143"/>
      <point x="515" y="161"/>
      <point x="518" y="207" type="curve"/>
      <point x="540" y="213"/>
      <point x="591" y="233"/>
      <point x="607" y="246" type="curve"/>
      <point x="603" y="206"/>
      <point x="602" y="186"/>
      <point x="602" y="127" type="curve"/>
      <point x="628" y="127" type="line"/>
      <point x="629" y="118"/>
      <point x="629" y="94"/>
      <point x="627" y="86" type="curve"/>
      <point x="613" y="86"/>
      <point x="608" y="87"/>
      <point x="602" y="86" type="curve"/>
      <point x="602" y="66"/>
      <point x="603" y="30"/>
      <point x="608" y="0" type="curve"/>
      <point x="593" y="2"/>
      <point x="525" y="2"/>
    </contour>
    <contour>
      <point x="570" y="582" type="curve"/>
      <point x="421" y="382"/>
      <point x="277" y="180"/>
      <point x="139" y="-20" type="curve"/>
      <point x="127" y="-17"/>
      <point x="109" y="-4"/>
      <point x="100" y="5" type="curve"/>
      <point x="248" y="206"/>
      <point x="392" y="407"/>
      <point x="531" y="608" type="curve"/>
      <point x="541" y="606"/>
      <point x="566" y="588"/>
    </contour>
  </outline>
</glyph>
<glyph name="questiondown" format="1">
  <advance width="262"/>
  <unicode hex="00BF"/>
  <outline>
    <contour>
      <point x="162" y="233" type="curve"/>
      <point x="191" y="190"/>
      <point x="210" y="151"/>
      <point x="209" y="120" type="curve" smooth="yes"/>
      <point x="208" y="51"/>
      <point x="129" y="1"/>
      <point x="129" y="-62" type="curve" smooth="yes"/>
      <point x="129" y="-110"/>
      <point x="155" y="-151"/>
      <point x="200" y="-185" type="curve"/>
      <point x="194" y="-195"/>
      <point x="183" y="-210"/>
      <point x="174" y="-218" type="curve"/>
      <point x="92" y="-172"/>
      <point x="26" y="-101"/>
      <point x="26" y="-38" type="curve" smooth="yes"/>
      <point x="26" y="47"/>
      <point x="132" y="105"/>
      <point x="133" y="182" type="curve" smooth="yes"/>
      <point x="133" y="192"/>
      <point x="130" y="207"/>
      <point x="124" y="223" type="curve"/>
      <point x="134" y="227"/>
      <point x="152" y="232"/>
    </contour>
    <contour>
      <point x="135" y="293" type="curve" smooth="yes"/>
      <point x="89" y="293"/>
      <point x="79" y="323"/>
      <point x="79" y="338" type="curve" smooth="yes"/>
      <point x="79" y="358"/>
      <point x="100" y="393"/>
      <point x="155" y="393" type="curve" smooth="yes"/>
      <point x="186" y="393"/>
      <point x="210" y="378"/>
      <point x="210" y="348" type="curve" smooth="yes"/>
      <point x="210" y="324"/>
      <point x="181" y="293"/>
    </contour>
  </outline>
</glyph>
<glyph name="Aacute" format="1">
  <advance width="585"/>
  <unicode hex="00C1"/>
  <outline>
    <contour>
      <point x="395" y="-2" type="curve"/>
      <point x="384" y="53"/>
      <point x="365" y="127"/>
      <point x="344" y="199" type="curve"/>
      <point x="173" y="180" type="line"/>
      <point x="148" y="119"/>
      <point x="127" y="58"/>
      <point x="113" y="2" type="curve"/>
      <point x="93" y="3"/>
      <point x="25" y="-1"/>
      <point x="0" y="-7" type="curve"/>
      <point x="81" y="108"/>
      <point x="169" y="271"/>
      <point x="238" y="441" type="curve"/>
      <point x="266" y="513"/>
      <point x="271" y="540"/>
      <point x="277" y="578" type="curve"/>
      <point x="289" y="583"/>
      <point x="320" y="590"/>
      <point x="343" y="592" type="curve"/>
      <point x="382" y="434"/>
      <point x="477" y="139"/>
      <point x="556" y="-2" type="curve"/>
      <point x="514" y="3"/>
      <point x="418" y="1"/>
    </contour>
    <contour>
      <point x="279" y="431" type="curve"/>
      <point x="271" y="414"/>
      <point x="264" y="394"/>
      <point x="256" y="376" type="curve" smooth="yes"/>
      <point x="235" y="326"/>
      <point x="212" y="275"/>
      <point x="190" y="224" type="curve"/>
      <point x="234" y="225"/>
      <point x="292" y="230"/>
      <point x="334" y="233" type="curve"/>
      <point x="297" y="358" type="line" smooth="yes"/>
      <point x="292" y="376"/>
      <point x="283" y="409"/>
    </contour>
    <contour>
      <point x="386" y="776" type="curve"/>
      <point x="390" y="755"/>
      <point x="407" y="712"/>
      <point x="423" y="683" type="curve"/>
      <point x="354" y="672"/>
      <point x="300" y="659"/>
      <point x="231" y="640" type="curve"/>
      <point x="225" y="648"/>
      <point x="217" y="665"/>
      <point x="217" y="673" type="curve"/>
      <point x="276" y="703"/>
      <point x="346" y="745"/>
    </contour>
  </outline>
</glyph>
<glyph name="Atilde" format="1">
  <advance width="585"/>
  <unicode hex="00C3"/>
  <outline>
    <contour>
      <point x="395" y="-2" type="curve"/>
      <point x="384" y="53"/>
      <point x="365" y="127"/>
      <point x="344" y="199" type="curve"/>
      <point x="173" y="180" type="line"/>
      <point x="148" y="119"/>
      <point x="127" y="58"/>
      <point x="113" y="2" type="curve"/>
      <point x="93" y="3"/>
      <point x="25" y="-1"/>
      <point x="0" y="-7" type="curve"/>
      <point x="81" y="108"/>
      <point x="169" y="271"/>
      <point x="238" y="441" type="curve"/>
      <point x="266" y="513"/>
      <point x="271" y="540"/>
      <point x="277" y="578" type="curve"/>
      <point x="289" y="583"/>
      <point x="320" y="590"/>
      <point x="343" y="592" type="curve"/>
      <point x="382" y="434"/>
      <point x="477" y="139"/>
      <point x="556" y="-2" type="curve"/>
      <point x="514" y="3"/>
      <point x="418" y="1"/>
    </contour>
    <contour>
      <point x="279" y="431" type="curve"/>
      <point x="271" y="414"/>
      <point x="264" y="394"/>
      <point x="256" y="376" type="curve" smooth="yes"/>
      <point x="235" y="326"/>
      <point x="212" y="275"/>
      <point x="190" y="224" type="curve"/>
      <point x="234" y="225"/>
      <point x="292" y="230"/>
      <point x="334" y="233" type="curve"/>
      <point x="297" y="358" type="line" smooth="yes"/>
      <point x="292" y="376"/>
      <point x="283" y="409"/>
    </contour>
    <contour>
      <point x="344" y="635" type="curve" smooth="yes"/>
      <point x="308" y="637"/>
      <point x="285" y="654"/>
      <point x="257" y="655" type="curve"/>
      <point x="244" y="657"/>
      <point x="225" y="646"/>
      <point x="205" y="628" type="curve"/>
      <point x="193" y="632"/>
      <point x="184" y="641"/>
      <point x="176" y="649" type="curve"/>
      <point x="201" y="689"/>
      <point x="245" y="744"/>
      <point x="272" y="742" type="curve" smooth="yes"/>
      <point x="303" y="739"/>
      <point x="321" y="724"/>
      <point x="358" y="722" type="curve" smooth="yes"/>
      <point x="386" y="720"/>
      <point x="403" y="734"/>
      <point x="419" y="749" type="curve"/>
      <point x="432" y="744"/>
      <point x="442" y="738"/>
      <point x="451" y="729" type="curve"/>
      <point x="414" y="668"/>
      <point x="370" y="633"/>
    </contour>
  </outline>
</glyph>
<glyph name="Adieresis" format="1">
  <advance width="585"/>
  <unicode hex="00C4"/>
  <outline>
    <contour>
      <point x="395" y="-2" type="curve"/>
      <point x="384" y="53"/>
      <point x="365" y="127"/>
      <point x="344" y="199" type="curve"/>
      <point x="173" y="180" type="line"/>
      <point x="148" y="119"/>
      <point x="127" y="58"/>
      <point x="113" y="2" type="curve"/>
      <point x="93" y="3"/>
      <point x="25" y="-1"/>
      <point x="0" y="-7" type="curve"/>
      <point x="81" y="108"/>
      <point x="169" y="271"/>
      <point x="238" y="441" type="curve"/>
      <point x="266" y="513"/>
      <point x="271" y="540"/>
      <point x="277" y="578" type="curve"/>
      <point x="289" y="583"/>
      <point x="320" y="590"/>
      <point x="343" y="592" type="curve"/>
      <point x="382" y="434"/>
      <point x="477" y="139"/>
      <point x="556" y="-2" type="curve"/>
      <point x="514" y="3"/>
      <point x="418" y="1"/>
    </contour>
    <contour>
      <point x="279" y="431" type="curve"/>
      <point x="271" y="414"/>
      <point x="264" y="394"/>
      <point x="256" y="376" type="curve" smooth="yes"/>
      <point x="235" y="326"/>
      <point x="212" y="275"/>
      <point x="190" y="224" type="curve"/>
      <point x="234" y="225"/>
      <point x="292" y="230"/>
      <point x="334" y="233" type="curve"/>
      <point x="297" y="358" type="line" smooth="yes"/>
      <point x="292" y="376"/>
      <point x="283" y="409"/>
    </contour>
    <contour>
      <point x="235" y="710" type="curve" smooth="yes"/>
      <point x="267" y="710"/>
      <point x="283" y="694"/>
      <point x="283" y="673" type="curve" smooth="yes"/>
      <point x="283" y="645"/>
      <point x="251" y="629"/>
      <point x="219" y="629" type="curve" smooth="yes"/>
      <point x="197" y="629"/>
      <point x="178" y="642"/>
      <point x="178" y="662" type="curve" smooth="yes"/>
      <point x="178" y="687"/>
      <point x="207" y="710"/>
    </contour>
    <contour>
      <point x="390" y="710" type="curve" smooth="yes"/>
      <point x="421" y="710"/>
      <point x="437" y="694"/>
      <point x="437" y="673" type="curve" smooth="yes"/>
      <point x="437" y="645"/>
      <point x="406" y="629"/>
      <point x="373" y="629" type="curve" smooth="yes"/>
      <point x="352" y="629"/>
      <point x="332" y="642"/>
      <point x="332" y="662" type="curve" smooth="yes"/>
      <point x="332" y="687"/>
      <point x="362" y="710"/>
    </contour>
  </outline>
</glyph>
<glyph name="Aring" format="1">
  <advance width="585"/>
  <unicode hex="00C5"/>
  <outline>
    <contour>
      <point x="395" y="-2" type="curve"/>
      <point x="384" y="53"/>
      <point x="365" y="127"/>
      <point x="344" y="199" type="curve"/>
      <point x="173" y="180" type="line"/>
      <point x="148" y="119"/>
      <point x="127" y="58"/>
      <point x="113" y="2" type="curve"/>
      <point x="93" y="3"/>
      <point x="25" y="-1"/>
      <point x="0" y="-7" type="curve"/>
      <point x="81" y="108"/>
      <point x="169" y="271"/>
      <point x="238" y="441" type="curve"/>
      <point x="266" y="513"/>
      <point x="271" y="540"/>
      <point x="277" y="578" type="curve"/>
      <point x="289" y="583"/>
      <point x="320" y="590"/>
      <point x="343" y="592" type="curve"/>
      <point x="382" y="434"/>
      <point x="477" y="139"/>
      <point x="556" y="-2" type="curve"/>
      <point x="514" y="3"/>
      <point x="418" y="1"/>
    </contour>
    <contour>
      <point x="325" y="750" type="curve" smooth="yes"/>
      <point x="369" y="750"/>
      <point x="413" y="730"/>
      <point x="413" y="693" type="curve" smooth="yes"/>
      <point x="413" y="641"/>
      <point x="353" y="615"/>
      <point x="305" y="616" type="curve" smooth="yes"/>
      <point x="251" y="618"/>
      <point x="225" y="648"/>
      <point x="225" y="678" type="curve" smooth="yes"/>
      <point x="225" y="718"/>
      <point x="272" y="750"/>
    </contour>
    <contour>
      <point x="279" y="431" type="curve"/>
      <point x="271" y="414"/>
      <point x="264" y="394"/>
      <point x="256" y="376" type="curve" smooth="yes"/>
      <point x="235" y="326"/>
      <point x="212" y="275"/>
      <point x="190" y="224" type="curve"/>
      <point x="234" y="225"/>
      <point x="292" y="230"/>
      <point x="334" y="233" type="curve"/>
      <point x="297" y="358" type="line" smooth="yes"/>
      <point x="292" y="376"/>
      <point x="283" y="409"/>
    </contour>
    <contour>
      <point x="321" y="715" type="curve" smooth="yes"/>
      <point x="301" y="715"/>
      <point x="286" y="700"/>
      <point x="286" y="682" type="curve" smooth="yes"/>
      <point x="286" y="671"/>
      <point x="294" y="653"/>
      <point x="315" y="653" type="curve" smooth="yes"/>
      <point x="337" y="653"/>
      <point x="352" y="666"/>
      <point x="352" y="688" type="curve" smooth="yes"/>
      <point x="352" y="703"/>
      <point x="338" y="715"/>
    </contour>
  </outline>
</glyph>
<glyph name="AE" format="1">
  <advance width="801"/>
  <unicode hex="00C6"/>
  <outline>
    <contour>
      <point x="384" y="583" type="curve"/>
      <point x="526" y="580"/>
      <point x="663" y="581"/>
      <point x="767" y="583" type="curve"/>
      <point x="765" y="543" type="line"/>
      <point x="664" y="541"/>
      <point x="628" y="541"/>
      <point x="536" y="536" type="curve"/>
      <point x="532" y="496"/>
      <point x="531" y="373"/>
      <point x="531" y="350" type="curve"/>
      <point x="600" y="348"/>
      <point x="653" y="351"/>
      <point x="730" y="356" type="curve"/>
      <point x="731" y="315" type="line"/>
      <point x="667" y="312"/>
      <point x="597" y="307"/>
      <point x="530" y="300" type="curve"/>
      <point x="529" y="241"/>
      <point x="531" y="117"/>
      <point x="533" y="52" type="curve"/>
      <point x="608" y="48"/>
      <point x="667" y="45"/>
      <point x="785" y="44" type="curve"/>
      <point x="787" y="-2" type="line"/>
      <point x="553" y="2"/>
      <point x="517" y="2"/>
      <point x="403" y="-2" type="curve"/>
      <point x="407" y="29"/>
      <point x="410" y="103"/>
      <point x="412" y="192" type="curve"/>
      <point x="355" y="187"/>
      <point x="247" y="178"/>
      <point x="203" y="173" type="curve"/>
      <point x="165" y="106"/>
      <point x="142" y="59"/>
      <point x="118" y="2" type="curve"/>
      <point x="98" y="3"/>
      <point x="22" y="-1"/>
      <point x="-4" y="-7" type="curve"/>
      <point x="111" y="136"/>
      <point x="205" y="281"/>
      <point x="306" y="441" type="curve"/>
      <point x="349" y="513"/>
      <point x="366" y="540"/>
    </contour>
    <contour>
      <point x="232" y="226" type="curve"/>
      <point x="282" y="226"/>
      <point x="365" y="231"/>
      <point x="413" y="236" type="curve"/>
      <point x="415" y="340"/>
      <point x="412" y="446"/>
      <point x="410" y="515" type="curve"/>
      <point x="345" y="419"/>
      <point x="274" y="294"/>
    </contour>
  </outline>
</glyph>
<glyph name="Ccedilla" format="1">
  <advance width="548"/>
  <unicode hex="00C7"/>
  <outline>
    <contour>
      <point x="219" y="-117" type="curve"/>
      <point x="233" y="-94"/>
      <point x="253" y="-47"/>
      <point x="268" y="-12" type="curve"/>
      <point x="74" y="4"/>
      <point x="33" y="173"/>
      <point x="33" y="245" type="curve" smooth="yes"/>
      <point x="33" y="400"/>
      <point x="141" y="595"/>
      <point x="372" y="595" type="curve" smooth="yes"/>
      <point x="400" y="595"/>
      <point x="458" y="580"/>
      <point x="497" y="561" type="curve"/>
      <point x="496" y="552"/>
      <point x="486" y="532"/>
      <point x="481" y="527" type="curve"/>
      <point x="447" y="540"/>
      <point x="392" y="550"/>
      <point x="362" y="550" type="curve" smooth="yes"/>
      <point x="269" y="550"/>
      <point x="156" y="469"/>
      <point x="156" y="261" type="curve" smooth="yes"/>
      <point x="156" y="97"/>
      <point x="253" y="47"/>
      <point x="325" y="46" type="curve" smooth="yes"/>
      <point x="376" y="46"/>
      <point x="443" y="64"/>
      <point x="503" y="89" type="curve"/>
      <point x="511" y="81"/>
      <point x="517" y="65"/>
      <point x="518" y="56" type="curve"/>
      <point x="467" y="27"/>
      <point x="382" y="-5"/>
      <point x="316" y="-12" type="curve"/>
      <point x="310" y="-26"/>
      <point x="304" y="-40"/>
      <point x="298" y="-58" type="curve"/>
      <point x="325" y="-74"/>
      <point x="346" y="-89"/>
      <point x="346" y="-138" type="curve" smooth="yes"/>
      <point x="346" y="-158"/>
      <point x="317" y="-218"/>
      <point x="275" y="-266" type="curve"/>
      <point x="263" y="-264"/>
      <point x="248" y="-255"/>
      <point x="240" y="-248" type="curve"/>
      <point x="257" y="-221"/>
      <point x="266" y="-198"/>
      <point x="266" y="-170" type="curve" smooth="yes"/>
      <point x="266" y="-154"/>
      <point x="251" y="-136"/>
    </contour>
  </outline>
</glyph>
<glyph name="Egrave" format="1">
  <advance width="447"/>
  <unicode hex="00C8"/>
  <outline>
    <contour>
      <point x="55" y="583" type="curve"/>
      <point x="140" y="580"/>
      <point x="298" y="581"/>
      <point x="413" y="583" type="curve"/>
      <point x="410" y="543" type="line"/>
      <point x="310" y="542"/>
      <point x="274" y="541"/>
      <point x="181" y="536" type="curve"/>
      <point x="177" y="496"/>
      <point x="176" y="372"/>
      <point x="176" y="348" type="curve"/>
      <point x="246" y="347"/>
      <point x="304" y="350"/>
      <point x="380" y="355" type="curve"/>
      <point x="382" y="315" type="line"/>
      <point x="318" y="312"/>
      <point x="242" y="307"/>
      <point x="176" y="300" type="curve"/>
      <point x="175" y="241"/>
      <point x="176" y="117"/>
      <point x="179" y="52" type="curve"/>
      <point x="254" y="47"/>
      <point x="313" y="42"/>
      <point x="430" y="43" type="curve"/>
      <point x="433" y="-2" type="line"/>
      <point x="198" y="2"/>
      <point x="162" y="2"/>
      <point x="48" y="-2" type="curve"/>
      <point x="61" y="84"/>
      <point x="64" y="531"/>
    </contour>
    <contour>
      <point x="177" y="765" type="curve"/>
      <point x="216" y="735"/>
      <point x="286" y="694"/>
      <point x="345" y="664" type="curve"/>
      <point x="344" y="656"/>
      <point x="337" y="638"/>
      <point x="331" y="629" type="curve"/>
      <point x="262" y="649"/>
      <point x="206" y="661"/>
      <point x="137" y="673" type="curve"/>
      <point x="153" y="701"/>
      <point x="172" y="745"/>
    </contour>
  </outline>
</glyph>
<glyph name="Ecircumflex" format="1">
  <advance width="447"/>
  <unicode hex="00CA"/>
  <outline>
    <contour>
      <point x="55" y="583" type="curve"/>
      <point x="140" y="580"/>
      <point x="298" y="581"/>
      <point x="413" y="583" type="curve"/>
      <point x="410" y="543" type="line"/>
      <point x="310" y="542"/>
      <point x="274" y="541"/>
      <point x="181" y="536" type="curve"/>
      <point x="177" y="496"/>
      <point x="176" y="372"/>
      <point x="176" y="348" type="curve"/>
      <point x="246" y="347"/>
      <point x="304" y="350"/>
      <point x="380" y="355" type="curve"/>
      <point x="382" y="315" type="line"/>
      <point x="318" y="312"/>
      <point x="242" y="307"/>
      <point x="176" y="300" type="curve"/>
      <point x="175" y="241"/>
      <point x="176" y="117"/>
      <point x="179" y="52" type="curve"/>
      <point x="254" y="47"/>
      <point x="313" y="42"/>
      <point x="430" y="43" type="curve"/>
      <point x="433" y="-2" type="line"/>
      <point x="198" y="2"/>
      <point x="162" y="2"/>
      <point x="48" y="-2" type="curve"/>
      <point x="61" y="84"/>
      <point x="64" y="531"/>
    </contour>
    <contour>
      <point x="142" y="627" type="curve"/>
      <point x="136" y="632"/>
      <point x="126" y="649"/>
      <point x="124" y="659" type="curve"/>
      <point x="157" y="681"/>
      <point x="203" y="711"/>
      <point x="246" y="745" type="curve"/>
      <point x="278" y="717"/>
      <point x="324" y="685"/>
      <point x="358" y="663" type="curve"/>
      <point x="355" y="654"/>
      <point x="345" y="635"/>
      <point x="339" y="629" type="curve"/>
      <point x="301" y="644"/>
      <point x="277" y="651"/>
      <point x="245" y="660" type="curve"/>
      <point x="211" y="652"/>
      <point x="171" y="639"/>
    </contour>
  </outline>
</glyph>
<glyph name="Igrave" format="1">
  <advance width="231"/>
  <unicode hex="00CC"/>
  <outline>
    <contour>
      <point x="55" y="583" type="curve"/>
      <point x="72" y="579"/>
      <point x="161" y="581"/>
      <point x="182" y="583" type="curve"/>
      <point x="167" y="387"/>
      <point x="169" y="146"/>
      <point x="176" y="-2" type="curve"/>
      <point x="151" y="1"/>
      <point x="72" y="3"/>
      <point x="48" y="0" type="curve"/>
      <point x="61" y="133"/>
      <point x="62" y="424"/>
    </contour>
    <contour>
      <point x="13" y="765" type="curve"/>
      <point x="52" y="735"/>
      <point x="122" y="694"/>
      <point x="181" y="664" type="curve"/>
      <point x="180" y="656"/>
      <point x="173" y="638"/>
      <point x="167" y="629" type="curve"/>
      <point x="98" y="649"/>
      <point x="42" y="661"/>
      <point x="-27" y="673" type="curve"/>
      <point x="-11" y="701"/>
      <point x="8" y="745"/>
    </contour>
  </outline>
</glyph>
<glyph name="Iacute" format="1">
  <advance width="231"/>
  <unicode hex="00CD"/>
  <outline>
    <contour>
      <point x="55" y="583" type="curve"/>
      <point x="72" y="579"/>
      <point x="161" y="581"/>
      <point x="182" y="583" type="curve"/>
      <point x="167" y="387"/>
      <point x="169" y="146"/>
      <point x="176" y="-2" type="curve"/>
      <point x="151" y="1"/>
      <point x="72" y="3"/>
      <point x="48" y="0" type="curve"/>
      <point x="61" y="133"/>
      <point x="62" y="424"/>
    </contour>
    <contour>
      <point x="178" y="776" type="curve"/>
      <point x="182" y="755"/>
      <point x="199" y="712"/>
      <point x="215" y="683" type="curve"/>
      <point x="146" y="672"/>
      <point x="92" y="659"/>
      <point x="23" y="640" type="curve"/>
      <point x="17" y="648"/>
      <point x="9" y="665"/>
      <point x="9" y="673" type="curve"/>
      <point x="68" y="703"/>
      <point x="138" y="745"/>
    </contour>
  </outline>
</glyph>
<glyph name="Icircumflex" format="1">
  <advance width="231"/>
  <unicode hex="00CE"/>
  <outline>
    <contour>
      <point x="55" y="583" type="curve"/>
      <point x="72" y="579"/>
      <point x="161" y="581"/>
      <point x="182" y="583" type="curve"/>
      <point x="167" y="387"/>
      <point x="169" y="146"/>
      <point x="176" y="-2" type="curve"/>
      <point x="151" y="1"/>
      <point x="72" y="3"/>
      <point x="48" y="0" type="curve"/>
      <point x="61" y="133"/>
      <point x="62" y="424"/>
    </contour>
    <contour>
      <point x="21" y="627" type="curve"/>
      <point x="15" y="632"/>
      <point x="5" y="649"/>
      <point x="3" y="659" type="curve"/>
      <point x="36" y="681"/>
      <point x="82" y="711"/>
      <point x="125" y="745" type="curve"/>
      <point x="157" y="717"/>
      <point x="203" y="685"/>
      <point x="237" y="663" type="curve"/>
      <point x="234" y="654"/>
      <point x="224" y="635"/>
      <point x="218" y="629" type="curve"/>
      <point x="180" y="644"/>
      <point x="156" y="651"/>
      <point x="124" y="660" type="curve"/>
      <point x="90" y="652"/>
      <point x="50" y="639"/>
    </contour>
  </outline>
</glyph>
<glyph name="Idieresis" format="1">
  <advance width="231"/>
  <unicode hex="00CF"/>
  <outline>
    <contour>
      <point x="47" y="710" type="curve" smooth="yes"/>
      <point x="79" y="710"/>
      <point x="95" y="695"/>
      <point x="95" y="673" type="curve" smooth="yes"/>
      <point x="95" y="646"/>
      <point x="63" y="629"/>
      <point x="31" y="629" type="curve" smooth="yes"/>
      <point x="10" y="629"/>
      <point x="-10" y="643"/>
      <point x="-10" y="662" type="curve" smooth="yes"/>
      <point x="-10" y="688"/>
      <point x="20" y="710"/>
    </contour>
    <contour>
      <point x="199" y="710" type="curve" smooth="yes"/>
      <point x="231" y="710"/>
      <point x="246" y="695"/>
      <point x="246" y="673" type="curve" smooth="yes"/>
      <point x="246" y="646"/>
      <point x="215" y="629"/>
      <point x="182" y="629" type="curve" smooth="yes"/>
      <point x="161" y="629"/>
      <point x="141" y="643"/>
      <point x="141" y="662" type="curve" smooth="yes"/>
      <point x="141" y="688"/>
      <point x="171" y="710"/>
    </contour>
    <contour>
      <point x="55" y="583" type="curve"/>
      <point x="72" y="579"/>
      <point x="161" y="581"/>
      <point x="182" y="583" type="curve"/>
      <point x="167" y="387"/>
      <point x="169" y="146"/>
      <point x="176" y="-2" type="curve"/>
      <point x="151" y="1"/>
      <point x="72" y="3"/>
      <point x="48" y="0" type="curve"/>
      <point x="61" y="133"/>
      <point x="62" y="424"/>
    </contour>
  </outline>
</glyph>
<glyph name="Eth" format="1">
  <advance width="579"/>
  <unicode hex="00D0"/>
  <outline>
    <contour>
      <point x="278" y="582" type="curve" smooth="yes"/>
      <point x="455" y="579"/>
      <point x="560" y="514"/>
      <point x="560" y="372" type="curve" smooth="yes"/>
      <point x="560" y="159"/>
      <point x="379" y="4"/>
      <point x="185" y="0" type="curve" smooth="yes"/>
      <point x="147" y="-1"/>
      <point x="99" y="-1"/>
      <point x="48" y="3" type="curve"/>
      <point x="56" y="36"/>
      <point x="62" y="159"/>
      <point x="65" y="294" type="curve"/>
      <point x="12" y="293" type="line"/>
      <point x="10" y="303"/>
      <point x="13" y="330"/>
      <point x="16" y="336" type="curve"/>
      <point x="32" y="335"/>
      <point x="48" y="335"/>
      <point x="65" y="335" type="curve"/>
      <point x="67" y="423"/>
      <point x="67" y="513"/>
      <point x="64" y="583" type="curve"/>
      <point x="106" y="581"/>
      <point x="251" y="582"/>
    </contour>
    <contour>
      <point x="184" y="540" type="curve"/>
      <point x="181" y="475"/>
      <point x="179" y="405"/>
      <point x="178" y="333" type="curve"/>
      <point x="223" y="333"/>
      <point x="266" y="334"/>
      <point x="297" y="335" type="curve"/>
      <point x="298" y="325"/>
      <point x="296" y="301"/>
      <point x="291" y="291" type="curve"/>
      <point x="253" y="293"/>
      <point x="216" y="293"/>
      <point x="178" y="294" type="curve"/>
      <point x="177" y="211"/>
      <point x="178" y="127"/>
      <point x="181" y="47" type="curve"/>
      <point x="295" y="39"/>
      <point x="436" y="143"/>
      <point x="436" y="336" type="curve" smooth="yes"/>
      <point x="436" y="488"/>
      <point x="349" y="535"/>
      <point x="261" y="540" type="curve" smooth="yes"/>
      <point x="226" y="542"/>
      <point x="207" y="542"/>
    </contour>
  </outline>
</glyph>
<glyph name="Ntilde" format="1">
  <advance width="615"/>
  <unicode hex="00D1"/>
  <outline>
    <contour>
      <point x="557" y="3" type="curve"/>
      <point x="524" y="-7" type="line"/>
      <point x="420" y="123"/>
      <point x="254" y="266"/>
      <point x="159" y="352" type="curve" smooth="yes"/>
      <point x="143" y="367"/>
      <point x="129" y="381"/>
      <point x="119" y="393" type="curve"/>
      <point x="117" y="258"/>
      <point x="133" y="42"/>
      <point x="141" y="9" type="curve"/>
      <point x="114" y="5"/>
      <point x="79" y="0"/>
      <point x="47" y="-14" type="curve"/>
      <point x="63" y="97"/>
      <point x="67" y="400"/>
      <point x="62" y="582" type="curve"/>
      <point x="70" y="586"/>
      <point x="84" y="589"/>
      <point x="97" y="593" type="curve"/>
      <point x="194" y="470"/>
      <point x="328" y="354"/>
      <point x="449" y="248" type="curve" smooth="yes"/>
      <point x="465" y="234"/>
      <point x="481" y="221"/>
      <point x="495" y="205" type="curve"/>
      <point x="495" y="377"/>
      <point x="489" y="475"/>
      <point x="477" y="575" type="curve"/>
      <point x="498" y="577"/>
      <point x="547" y="587"/>
      <point x="568" y="596" type="curve"/>
      <point x="554" y="558"/>
      <point x="548" y="313"/>
      <point x="549" y="103" type="curve" smooth="yes"/>
      <point x="549" y="76"/>
      <point x="553" y="36"/>
    </contour>
    <contour>
      <point x="353" y="635" type="curve" smooth="yes"/>
      <point x="317" y="637"/>
      <point x="294" y="654"/>
      <point x="266" y="655" type="curve"/>
      <point x="253" y="657"/>
      <point x="234" y="646"/>
      <point x="214" y="628" type="curve"/>
      <point x="202" y="632"/>
      <point x="193" y="641"/>
      <point x="185" y="649" type="curve"/>
      <point x="210" y="689"/>
      <point x="254" y="744"/>
      <point x="281" y="742" type="curve" smooth="yes"/>
      <point x="312" y="739"/>
      <point x="330" y="724"/>
      <point x="367" y="722" type="curve" smooth="yes"/>
      <point x="395" y="720"/>
      <point x="412" y="734"/>
      <point x="428" y="749" type="curve"/>
      <point x="441" y="744"/>
      <point x="451" y="738"/>
      <point x="460" y="729" type="curve"/>
      <point x="423" y="668"/>
      <point x="379" y="633"/>
    </contour>
  </outline>
</glyph>
<glyph name="Ograve" format="1">
  <advance width="662"/>
  <unicode hex="00D2"/>
  <outline>
    <contour>
      <point x="357" y="594" type="curve" smooth="yes"/>
      <point x="511" y="594"/>
      <point x="625" y="482"/>
      <point x="626" y="315" type="curve" smooth="yes"/>
      <point x="626" y="211"/>
      <point x="580" y="114"/>
      <point x="496" y="48" type="curve" smooth="yes"/>
      <point x="457" y="18"/>
      <point x="367" y="-17"/>
      <point x="304" y="-17" type="curve" smooth="yes"/>
      <point x="73" y="-17"/>
      <point x="35" y="187"/>
      <point x="35" y="276" type="curve"/>
      <point x="37" y="359"/>
      <point x="79" y="480"/>
      <point x="181" y="543" type="curve" smooth="yes"/>
      <point x="219" y="566"/>
      <point x="300" y="594"/>
    </contour>
    <contour>
      <point x="326" y="539" type="curve" smooth="yes"/>
      <point x="253" y="539"/>
      <point x="157" y="484"/>
      <point x="157" y="278" type="curve" smooth="yes"/>
      <point x="157" y="182"/>
      <point x="203" y="40"/>
      <point x="336" y="40" type="curve" smooth="yes"/>
      <point x="410" y="40"/>
      <point x="505" y="106"/>
      <point x="505" y="311" type="curve" smooth="yes"/>
      <point x="505" y="489"/>
      <point x="392" y="539"/>
    </contour>
    <contour>
      <point x="266" y="765" type="curve"/>
      <point x="305" y="735"/>
      <point x="375" y="694"/>
      <point x="434" y="664" type="curve"/>
      <point x="433" y="656"/>
      <point x="426" y="638"/>
      <point x="420" y="629" type="curve"/>
      <point x="351" y="649"/>
      <point x="295" y="661"/>
      <point x="226" y="673" type="curve"/>
      <point x="242" y="701"/>
      <point x="261" y="745"/>
    </contour>
  </outline>
</glyph>
<glyph name="Oacute" format="1">
  <advance width="662"/>
  <unicode hex="00D3"/>
  <outline>
    <contour>
      <point x="357" y="594" type="curve" smooth="yes"/>
      <point x="511" y="594"/>
      <point x="625" y="482"/>
      <point x="626" y="315" type="curve" smooth="yes"/>
      <point x="626" y="211"/>
      <point x="580" y="114"/>
      <point x="496" y="48" type="curve" smooth="yes"/>
      <point x="457" y="18"/>
      <point x="367" y="-17"/>
      <point x="304" y="-17" type="curve" smooth="yes"/>
      <point x="73" y="-17"/>
      <point x="35" y="187"/>
      <point x="35" y="276" type="curve"/>
      <point x="37" y="359"/>
      <point x="79" y="480"/>
      <point x="181" y="543" type="curve" smooth="yes"/>
      <point x="219" y="566"/>
      <point x="300" y="594"/>
    </contour>
    <contour>
      <point x="326" y="539" type="curve" smooth="yes"/>
      <point x="253" y="539"/>
      <point x="157" y="484"/>
      <point x="157" y="278" type="curve" smooth="yes"/>
      <point x="157" y="182"/>
      <point x="203" y="40"/>
      <point x="336" y="40" type="curve" smooth="yes"/>
      <point x="410" y="40"/>
      <point x="505" y="106"/>
      <point x="505" y="311" type="curve" smooth="yes"/>
      <point x="505" y="489"/>
      <point x="392" y="539"/>
    </contour>
    <contour>
      <point x="420" y="776" type="curve"/>
      <point x="424" y="755"/>
      <point x="441" y="712"/>
      <point x="457" y="683" type="curve"/>
      <point x="388" y="672"/>
      <point x="334" y="659"/>
      <point x="265" y="640" type="curve"/>
      <point x="259" y="648"/>
      <point x="251" y="665"/>
      <point x="251" y="673" type="curve"/>
      <point x="310" y="703"/>
      <point x="380" y="745"/>
    </contour>
  </outline>
</glyph>
<glyph name="Otilde" format="1">
  <advance width="662"/>
  <unicode hex="00D5"/>
  <outline>
    <contour>
      <point x="357" y="594" type="curve" smooth="yes"/>
      <point x="511" y="594"/>
      <point x="625" y="482"/>
      <point x="626" y="315" type="curve" smooth="yes"/>
      <point x="626" y="211"/>
      <point x="580" y="114"/>
      <point x="496" y="48" type="curve" smooth="yes"/>
      <point x="457" y="18"/>
      <point x="367" y="-17"/>
      <point x="304" y="-17" type="curve" smooth="yes"/>
      <point x="73" y="-17"/>
      <point x="35" y="187"/>
      <point x="35" y="276" type="curve"/>
      <point x="37" y="359"/>
      <point x="79" y="480"/>
      <point x="181" y="543" type="curve" smooth="yes"/>
      <point x="219" y="566"/>
      <point x="300" y="594"/>
    </contour>
    <contour>
      <point x="326" y="539" type="curve" smooth="yes"/>
      <point x="253" y="539"/>
      <point x="157" y="484"/>
      <point x="157" y="278" type="curve" smooth="yes"/>
      <point x="157" y="182"/>
      <point x="203" y="40"/>
      <point x="336" y="40" type="curve" smooth="yes"/>
      <point x="410" y="40"/>
      <point x="505" y="106"/>
      <point x="505" y="311" type="curve" smooth="yes"/>
      <point x="505" y="489"/>
      <point x="392" y="539"/>
    </contour>
    <contour>
      <point x="383" y="635" type="curve" smooth="yes"/>
      <point x="347" y="637"/>
      <point x="324" y="654"/>
      <point x="296" y="655" type="curve"/>
      <point x="283" y="657"/>
      <point x="264" y="646"/>
      <point x="244" y="628" type="curve"/>
      <point x="232" y="632"/>
      <point x="223" y="641"/>
      <point x="215" y="649" type="curve"/>
      <point x="240" y="689"/>
      <point x="284" y="744"/>
      <point x="311" y="742" type="curve" smooth="yes"/>
      <point x="342" y="739"/>
      <point x="360" y="724"/>
      <point x="397" y="722" type="curve" smooth="yes"/>
      <point x="425" y="720"/>
      <point x="442" y="734"/>
      <point x="458" y="749" type="curve"/>
      <point x="471" y="744"/>
      <point x="481" y="738"/>
      <point x="490" y="729" type="curve"/>
      <point x="453" y="668"/>
      <point x="409" y="633"/>
    </contour>
  </outline>
</glyph>
<glyph name="Odieresis" format="1">
  <advance width="662"/>
  <unicode hex="00D6"/>
  <outline>
    <contour>
      <point x="357" y="594" type="curve" smooth="yes"/>
      <point x="511" y="594"/>
      <point x="625" y="482"/>
      <point x="626" y="315" type="curve" smooth="yes"/>
      <point x="626" y="211"/>
      <point x="580" y="114"/>
      <point x="496" y="48" type="curve" smooth="yes"/>
      <point x="457" y="18"/>
      <point x="367" y="-17"/>
      <point x="304" y="-17" type="curve" smooth="yes"/>
      <point x="73" y="-17"/>
      <point x="35" y="187"/>
      <point x="35" y="276" type="curve"/>
      <point x="37" y="359"/>
      <point x="79" y="480"/>
      <point x="181" y="543" type="curve" smooth="yes"/>
      <point x="219" y="566"/>
      <point x="300" y="594"/>
    </contour>
    <contour>
      <point x="326" y="539" type="curve" smooth="yes"/>
      <point x="253" y="539"/>
      <point x="157" y="484"/>
      <point x="157" y="278" type="curve" smooth="yes"/>
      <point x="157" y="182"/>
      <point x="203" y="40"/>
      <point x="336" y="40" type="curve" smooth="yes"/>
      <point x="410" y="40"/>
      <point x="505" y="106"/>
      <point x="505" y="311" type="curve" smooth="yes"/>
      <point x="505" y="489"/>
      <point x="392" y="539"/>
    </contour>
    <contour>
      <point x="281" y="734" type="curve" smooth="yes"/>
      <point x="313" y="734"/>
      <point x="329" y="718"/>
      <point x="329" y="697" type="curve" smooth="yes"/>
      <point x="329" y="669"/>
      <point x="297" y="653"/>
      <point x="265" y="653" type="curve" smooth="yes"/>
      <point x="243" y="653"/>
      <point x="224" y="666"/>
      <point x="224" y="686" type="curve" smooth="yes"/>
      <point x="224" y="711"/>
      <point x="253" y="734"/>
    </contour>
    <contour>
      <point x="436" y="734" type="curve" smooth="yes"/>
      <point x="467" y="734"/>
      <point x="483" y="718"/>
      <point x="483" y="697" type="curve" smooth="yes"/>
      <point x="483" y="669"/>
      <point x="452" y="653"/>
      <point x="419" y="653" type="curve" smooth="yes"/>
      <point x="398" y="653"/>
      <point x="378" y="666"/>
      <point x="378" y="686" type="curve" smooth="yes"/>
      <point x="378" y="711"/>
      <point x="408" y="734"/>
    </contour>
  </outline>
</glyph>
<glyph name="multiply" format="1">
  <advance width="416"/>
  <unicode hex="00D7"/>
  <outline>
    <contour>
      <point x="89" y="367" type="curve"/>
      <point x="129" y="323"/>
      <point x="172" y="278"/>
      <point x="214" y="234" type="curve"/>
      <point x="258" y="278"/>
      <point x="300" y="322"/>
      <point x="341" y="366" type="curve"/>
      <point x="350" y="359"/>
      <point x="369" y="337"/>
      <point x="372" y="327" type="curve"/>
      <point x="339" y="296"/>
      <point x="279" y="236"/>
      <point x="246" y="203" type="curve"/>
      <point x="288" y="159"/>
      <point x="332" y="117"/>
      <point x="377" y="74" type="curve"/>
      <point x="370" y="65"/>
      <point x="350" y="44"/>
      <point x="342" y="35" type="curve"/>
      <point x="299" y="82"/>
      <point x="258" y="126"/>
      <point x="213" y="169" type="curve"/>
      <point x="179" y="137"/>
      <point x="120" y="77"/>
      <point x="82" y="37" type="curve"/>
      <point x="74" y="40"/>
      <point x="52" y="69"/>
      <point x="50" y="74" type="curve"/>
      <point x="82" y="104"/>
      <point x="145" y="166"/>
      <point x="181" y="202" type="curve"/>
      <point x="140" y="246"/>
      <point x="98" y="289"/>
      <point x="55" y="331" type="curve"/>
      <point x="58" y="337"/>
      <point x="85" y="364"/>
    </contour>
  </outline>
</glyph>
<glyph name="Oslash" format="1">
  <advance width="662"/>
  <unicode hex="00D8"/>
  <outline>
    <contour>
      <point x="357" y="594" type="curve" smooth="yes"/>
      <point x="386" y="594"/>
      <point x="413" y="590"/>
      <point x="439" y="583" type="curve"/>
      <point x="463" y="633" type="line"/>
      <point x="476" y="633"/>
      <point x="502" y="625"/>
      <point x="508" y="619" type="curve"/>
      <point x="499" y="602"/>
      <point x="491" y="584"/>
      <point x="482" y="566" type="curve"/>
      <point x="569" y="523"/>
      <point x="625" y="432"/>
      <point x="626" y="315" type="curve" smooth="yes"/>
      <point x="626" y="211"/>
      <point x="580" y="114"/>
      <point x="496" y="48" type="curve" smooth="yes"/>
      <point x="457" y="18"/>
      <point x="367" y="-17"/>
      <point x="304" y="-17" type="curve" smooth="yes"/>
      <point x="266" y="-17"/>
      <point x="233" y="-12"/>
      <point x="205" y="-2" type="curve"/>
      <point x="175" y="-64" type="line"/>
      <point x="161" y="-62"/>
      <point x="140" y="-57"/>
      <point x="129" y="-49" type="curve"/>
      <point x="162" y="17" type="line"/>
      <point x="56" y="79"/>
      <point x="35" y="210"/>
      <point x="35" y="276" type="curve"/>
      <point x="37" y="359"/>
      <point x="79" y="480"/>
      <point x="181" y="543" type="curve" smooth="yes"/>
      <point x="219" y="566"/>
      <point x="300" y="594"/>
    </contour>
    <contour>
      <point x="444" y="488" type="curve"/>
      <point x="378" y="355"/>
      <point x="305" y="206"/>
      <point x="240" y="72" type="curve"/>
      <point x="265" y="52"/>
      <point x="297" y="40"/>
      <point x="336" y="40" type="curve" smooth="yes"/>
      <point x="410" y="40"/>
      <point x="505" y="106"/>
      <point x="505" y="311" type="curve" smooth="yes"/>
      <point x="505" y="397"/>
      <point x="479" y="453"/>
    </contour>
    <contour>
      <point x="326" y="539" type="curve" smooth="yes"/>
      <point x="253" y="539"/>
      <point x="157" y="484"/>
      <point x="157" y="278" type="curve" smooth="yes"/>
      <point x="157" y="225"/>
      <point x="171" y="157"/>
      <point x="207" y="107" type="curve"/>
      <point x="407" y="516" type="line"/>
      <point x="379" y="533"/>
      <point x="349" y="539"/>
    </contour>
  </outline>
</glyph>
<glyph name="Uacute" format="1">
  <advance width="582"/>
  <unicode hex="00DA"/>
  <outline>
    <contour>
      <point x="35" y="582" type="curve"/>
      <point x="72" y="580"/>
      <point x="139" y="580"/>
      <point x="168" y="584" type="curve"/>
      <point x="162" y="454"/>
      <point x="170" y="305"/>
      <point x="187" y="182" type="curve" smooth="yes"/>
      <point x="202" y="77"/>
      <point x="253" y="47"/>
      <point x="302" y="47" type="curve" smooth="yes"/>
      <point x="402" y="47"/>
      <point x="441" y="127"/>
      <point x="452" y="196" type="curve" smooth="yes"/>
      <point x="471" y="306"/>
      <point x="472" y="494"/>
      <point x="464" y="573" type="curve"/>
      <point x="491" y="576"/>
      <point x="531" y="584"/>
      <point x="557" y="597" type="curve"/>
      <point x="538" y="483"/>
      <point x="523" y="325"/>
      <point x="506" y="213" type="curve" smooth="yes"/>
      <point x="486" y="84"/>
      <point x="422" y="-14"/>
      <point x="284" y="-14" type="curve" smooth="yes"/>
      <point x="150" y="-14"/>
      <point x="89" y="57"/>
      <point x="70" y="191" type="curve"/>
      <point x="58" y="324"/>
      <point x="52" y="468"/>
    </contour>
    <contour>
      <point x="380" y="776" type="curve"/>
      <point x="384" y="755"/>
      <point x="401" y="712"/>
      <point x="417" y="683" type="curve"/>
      <point x="348" y="672"/>
      <point x="294" y="659"/>
      <point x="225" y="640" type="curve"/>
      <point x="219" y="648"/>
      <point x="211" y="665"/>
      <point x="211" y="673" type="curve"/>
      <point x="270" y="703"/>
      <point x="340" y="745"/>
    </contour>
  </outline>
</glyph>
<glyph name="Udieresis" format="1">
  <advance width="582"/>
  <unicode hex="00DC"/>
  <outline>
    <contour>
      <point x="35" y="582" type="curve"/>
      <point x="72" y="580"/>
      <point x="139" y="580"/>
      <point x="168" y="584" type="curve"/>
      <point x="162" y="454"/>
      <point x="170" y="305"/>
      <point x="187" y="182" type="curve" smooth="yes"/>
      <point x="202" y="77"/>
      <point x="253" y="47"/>
      <point x="302" y="47" type="curve" smooth="yes"/>
      <point x="402" y="47"/>
      <point x="441" y="127"/>
      <point x="452" y="196" type="curve" smooth="yes"/>
      <point x="471" y="306"/>
      <point x="472" y="494"/>
      <point x="464" y="573" type="curve"/>
      <point x="491" y="576"/>
      <point x="531" y="584"/>
      <point x="557" y="597" type="curve"/>
      <point x="538" y="483"/>
      <point x="523" y="325"/>
      <point x="506" y="213" type="curve" smooth="yes"/>
      <point x="486" y="84"/>
      <point x="422" y="-14"/>
      <point x="284" y="-14" type="curve" smooth="yes"/>
      <point x="150" y="-14"/>
      <point x="89" y="57"/>
      <point x="70" y="191" type="curve"/>
      <point x="58" y="324"/>
      <point x="52" y="468"/>
    </contour>
    <contour>
      <point x="244" y="734" type="curve" smooth="yes"/>
      <point x="276" y="734"/>
      <point x="292" y="718"/>
      <point x="292" y="697" type="curve" smooth="yes"/>
      <point x="292" y="669"/>
      <point x="260" y="653"/>
      <point x="228" y="653" type="curve" smooth="yes"/>
      <point x="206" y="653"/>
      <point x="187" y="666"/>
      <point x="187" y="686" type="curve" smooth="yes"/>
      <point x="187" y="711"/>
      <point x="216" y="734"/>
    </contour>
    <contour>
      <point x="399" y="734" type="curve" smooth="yes"/>
      <point x="430" y="734"/>
      <point x="446" y="718"/>
      <point x="446" y="697" type="curve" smooth="yes"/>
      <point x="446" y="669"/>
      <point x="415" y="653"/>
      <point x="382" y="653" type="curve" smooth="yes"/>
      <point x="361" y="653"/>
      <point x="341" y="666"/>
      <point x="341" y="686" type="curve" smooth="yes"/>
      <point x="341" y="711"/>
      <point x="371" y="734"/>
    </contour>
  </outline>
</glyph>
<glyph name="Yacute" format="1">
  <advance width="506"/>
  <unicode hex="00DD"/>
  <outline>
    <contour>
      <point x="5" y="583" type="curve"/>
      <point x="54" y="579"/>
      <point x="122" y="580"/>
      <point x="163" y="583" type="curve"/>
      <point x="193" y="502"/>
      <point x="233" y="427"/>
      <point x="284" y="355" type="curve"/>
      <point x="345" y="434"/>
      <point x="386" y="502"/>
      <point x="422" y="577" type="curve"/>
      <point x="448" y="579"/>
      <point x="491" y="580"/>
      <point x="527" y="588" type="curve"/>
      <point x="431" y="480"/>
      <point x="391" y="426"/>
      <point x="303" y="301" type="curve"/>
      <point x="300" y="161"/>
      <point x="302" y="72"/>
      <point x="313" y="-1" type="curve"/>
      <point x="276" y="2"/>
      <point x="212" y="3"/>
      <point x="182" y="-1" type="curve"/>
      <point x="189" y="62"/>
      <point x="194" y="218"/>
      <point x="189" y="302" type="curve"/>
      <point x="149" y="381"/>
      <point x="48" y="533"/>
    </contour>
    <contour>
      <point x="362" y="776" type="curve"/>
      <point x="366" y="755"/>
      <point x="383" y="712"/>
      <point x="399" y="683" type="curve"/>
      <point x="330" y="672"/>
      <point x="276" y="659"/>
      <point x="207" y="640" type="curve"/>
      <point x="201" y="648"/>
      <point x="193" y="665"/>
      <point x="193" y="673" type="curve"/>
      <point x="252" y="703"/>
      <point x="322" y="745"/>
    </contour>
  </outline>
</glyph>
<glyph name="Thorn" format="1">
  <advance width="496"/>
  <unicode hex="00DE"/>
  <outline>
    <contour>
      <point x="55" y="583" type="curve"/>
      <point x="72" y="579"/>
      <point x="161" y="581"/>
      <point x="182" y="583" type="curve"/>
      <point x="179" y="545"/>
      <point x="177" y="506"/>
      <point x="175" y="465" type="curve"/>
      <point x="201" y="466"/>
      <point x="228" y="466"/>
      <point x="255" y="466" type="curve" smooth="yes"/>
      <point x="378" y="466"/>
      <point x="471" y="444"/>
      <point x="471" y="330" type="curve" smooth="yes"/>
      <point x="471" y="259"/>
      <point x="419" y="188"/>
      <point x="231" y="147" type="curve"/>
      <point x="226" y="154"/>
      <point x="222" y="177"/>
      <point x="221" y="183" type="curve"/>
      <point x="302" y="207"/>
      <point x="348" y="248"/>
      <point x="348" y="328" type="curve" smooth="yes"/>
      <point x="348" y="386"/>
      <point x="312" y="420"/>
      <point x="251" y="420" type="curve" smooth="yes"/>
      <point x="218" y="420"/>
      <point x="191" y="419"/>
      <point x="174" y="417" type="curve"/>
      <point x="169" y="263"/>
      <point x="171" y="106"/>
      <point x="176" y="-2" type="curve"/>
      <point x="151" y="1"/>
      <point x="72" y="3"/>
      <point x="48" y="0" type="curve"/>
      <point x="61" y="133"/>
      <point x="62" y="424"/>
    </contour>
  </outline>
</glyph>
<glyph name="germandbls" format="1">
  <advance width="475"/>
  <unicode hex="00DF"/>
  <outline>
    <contour>
      <point x="36" y="403" type="curve"/>
      <point x="69" y="403" type="line"/>
      <point x="70" y="430"/>
      <point x="67" y="481"/>
      <point x="69" y="528" type="curve" smooth="yes"/>
      <point x="72" y="611"/>
      <point x="155" y="716"/>
      <point x="258" y="716" type="curve" smooth="yes"/>
      <point x="378" y="716"/>
      <point x="410" y="640"/>
      <point x="410" y="583" type="curve" smooth="yes"/>
      <point x="410" y="535"/>
      <point x="382" y="479"/>
      <point x="347" y="424" type="curve" smooth="yes"/>
      <point x="325" y="390"/>
      <point x="317" y="370"/>
      <point x="317" y="346" type="curve" smooth="yes"/>
      <point x="318" y="320"/>
      <point x="354" y="279"/>
      <point x="381" y="252" type="curve" smooth="yes"/>
      <point x="428" y="206"/>
      <point x="445" y="172"/>
      <point x="445" y="119" type="curve" smooth="yes"/>
      <point x="445" y="69"/>
      <point x="403" y="-7"/>
      <point x="292" y="-7" type="curve" smooth="yes"/>
      <point x="283" y="-7"/>
      <point x="246" y="-7"/>
      <point x="237" y="-3" type="curve"/>
      <point x="236" y="7"/>
      <point x="239" y="35"/>
      <point x="242" y="42" type="curve"/>
      <point x="305" y="33"/>
      <point x="336" y="58"/>
      <point x="336" y="100" type="curve" smooth="yes"/>
      <point x="336" y="132"/>
      <point x="311" y="173"/>
      <point x="287" y="200" type="curve" smooth="yes"/>
      <point x="255" y="238"/>
      <point x="234" y="280"/>
      <point x="234" y="309" type="curve" smooth="yes"/>
      <point x="234" y="345"/>
      <point x="248" y="372"/>
      <point x="279" y="425" type="curve" smooth="yes"/>
      <point x="291" y="446"/>
      <point x="309" y="485"/>
      <point x="309" y="558" type="curve" smooth="yes"/>
      <point x="309" y="623"/>
      <point x="276" y="657"/>
      <point x="243" y="657" type="curve" smooth="yes"/>
      <point x="212" y="657"/>
      <point x="191" y="635"/>
      <point x="186" y="607" type="curve" smooth="yes"/>
      <point x="177" y="565"/>
      <point x="174" y="562"/>
      <point x="175" y="403" type="curve" smooth="yes"/>
      <point x="176" y="287"/>
      <point x="177" y="54"/>
      <point x="192" y="-2" type="curve"/>
      <point x="167" y="2"/>
      <point x="82" y="1"/>
      <point x="59" y="-2" type="curve"/>
      <point x="70" y="123"/>
      <point x="69" y="238"/>
      <point x="69" y="358" type="curve"/>
      <point x="62" y="358"/>
      <point x="48" y="359"/>
      <point x="35" y="358" type="curve"/>
      <point x="35" y="369"/>
      <point x="35" y="390"/>
    </contour>
  </outline>
</glyph>
<glyph name="atilde" format="1">
  <advance width="430"/>
  <unicode hex="00E3"/>
  <outline>
    <contour>
      <point x="66" y="378" type="curve"/>
      <point x="131" y="399"/>
      <point x="194" y="409"/>
      <point x="239" y="409" type="curve" smooth="yes"/>
      <point x="294" y="409"/>
      <point x="373" y="395"/>
      <point x="371" y="323" type="curve" smooth="yes"/>
      <point x="370" y="270"/>
      <point x="369" y="123"/>
      <point x="372" y="66" type="curve" smooth="yes"/>
      <point x="373" y="50"/>
      <point x="373" y="24"/>
      <point x="380" y="-1" type="curve"/>
      <point x="344" y="3"/>
      <point x="299" y="2"/>
      <point x="262" y="-4" type="curve"/>
      <point x="260" y="7"/>
      <point x="260" y="24"/>
      <point x="260" y="33" type="curve"/>
      <point x="211" y="10"/>
      <point x="149" y="-10"/>
      <point x="119" y="-10" type="curve" smooth="yes"/>
      <point x="82" y="-10"/>
      <point x="61" y="-3"/>
      <point x="42" y="34" type="curve" smooth="yes"/>
      <point x="32" y="55"/>
      <point x="26" y="89"/>
      <point x="28" y="118" type="curve" smooth="yes"/>
      <point x="33" y="174"/>
      <point x="99" y="199"/>
      <point x="142" y="210" type="curve" smooth="yes"/>
      <point x="176" y="218"/>
      <point x="217" y="225"/>
      <point x="260" y="230" type="curve"/>
      <point x="263" y="254"/>
      <point x="263" y="296"/>
      <point x="259" y="316" type="curve"/>
      <point x="254" y="350"/>
      <point x="213" y="357"/>
      <point x="173" y="357" type="curve" smooth="yes"/>
      <point x="147" y="357"/>
      <point x="100" y="347"/>
      <point x="76" y="340" type="curve"/>
      <point x="72" y="345"/>
      <point x="66" y="365"/>
    </contour>
    <contour>
      <point x="201" y="62" type="curve" smooth="yes"/>
      <point x="217" y="64"/>
      <point x="234" y="65"/>
      <point x="259" y="72" type="curve"/>
      <point x="258" y="111"/>
      <point x="259" y="156"/>
      <point x="260" y="189" type="curve"/>
      <point x="236" y="186"/>
      <point x="210" y="180"/>
      <point x="199" y="177" type="curve" smooth="yes"/>
      <point x="159" y="165"/>
      <point x="132" y="142"/>
      <point x="140" y="100" type="curve" smooth="yes"/>
      <point x="146" y="67"/>
      <point x="163" y="57"/>
    </contour>
    <contour>
      <point x="257" y="469" type="curve" smooth="yes"/>
      <point x="221" y="471"/>
      <point x="198" y="488"/>
      <point x="170" y="489" type="curve"/>
      <point x="157" y="491"/>
      <point x="138" y="480"/>
      <point x="118" y="462" type="curve"/>
      <point x="106" y="466"/>
      <point x="97" y="475"/>
      <point x="89" y="483" type="curve"/>
      <point x="114" y="523"/>
      <point x="158" y="578"/>
      <point x="185" y="576" type="curve" smooth="yes"/>
      <point x="216" y="573"/>
      <point x="234" y="558"/>
      <point x="271" y="556" type="curve" smooth="yes"/>
      <point x="299" y="554"/>
      <point x="316" y="568"/>
      <point x="332" y="583" type="curve"/>
      <point x="345" y="578"/>
      <point x="355" y="572"/>
      <point x="364" y="563" type="curve"/>
      <point x="327" y="502"/>
      <point x="283" y="467"/>
    </contour>
  </outline>
</glyph>
